<!-- Generated by IcoMoon.io -->
<svg version="1.1" xmlns="http://www.w3.org/2000/svg" width="100px" height="100px" viewBox="0 0 32 32">
<title>agility-osrs</title>
<path d="M11.593 2.137v2.137h4.631v-4.274h-4.631v2.137z"></path>
<path d="M6.428 8.549l-2.458 2.493 2.102 2.137c2.173 2.208 2.814 2.458 3.526 1.354 0.321-0.534 0.142-0.855-0.926-1.959l-1.318-1.318 1.069-1.354c0.606-0.748 1.318-1.354 1.567-1.354s0.641 0.712 0.855 1.567c0.214 0.855 0.606 1.745 0.926 1.995 0.427 0.356 0.534 1.282 0.534 4.168 0 4.809-0.677 6.198-5.094 10.722-2.707 2.707-3.206 3.384-2.885 3.883 1.033 1.639 1.425 1.496 4.987-2.030 2.208-2.208 3.776-4.096 4.453-5.45 0.57-1.104 1.175-2.030 1.318-2.030s1.318 1.033 2.565 2.315l2.28 2.315-2.030 2.066c-1.104 1.14-2.030 2.208-2.030 2.422 0 0.57 1.318 1.639 1.852 1.496 0.249-0.036 1.745-1.425 3.313-3.063l2.814-2.957-3.491-3.491-3.455-3.491-0.285-2.814c-0.321-2.992-0.249-3.348 0.463-3.348 0.499 0 0.926-1.496 0.926-3.241 0-0.57 0.178-1.033 0.392-1.033 0.249 0 1.567 1.211 2.956 2.707l2.529 2.743 2.208-2.28c1.781-1.817 2.137-2.387 1.852-2.885-0.499-0.962-1.389-0.784-2.743 0.499l-1.211 1.175-4.096-4.453h-11.007l-2.458 2.493z"></path>
</svg>
