<svg xmlns="http://www.w3.org/2000/svg" width="100" height="100" viewBox="0 0 32 32"><path d="M11.593 2.137v2.137h4.631V0h-4.631v2.137zM6.428 8.549 3.97 11.042l2.102 2.137c2.173 2.208 2.814 2.458 3.526 1.354.321-.534.142-.855-.926-1.959l-1.318-1.318 1.069-1.354c.606-.748 1.318-1.354 1.567-1.354s.641.712.855 1.567c.214.855.606 1.745.926 1.995.427.356.534 1.282.534 4.168 0 4.809-.677 6.198-5.094 10.722-2.707 2.707-3.206 3.384-2.885 3.883 1.033 1.639 1.425 1.496 4.987-2.03 2.208-2.208 3.776-4.096 4.453-5.45.57-1.104 1.175-2.03 1.318-2.03s1.318 1.033 2.565 2.315l2.28 2.315-2.03 2.066c-1.104 1.14-2.03 2.208-2.03 2.422 0 .57 1.318 1.639 1.852 1.496.249-.036 1.745-1.425 3.313-3.063l2.814-2.957-3.491-3.491-3.455-3.491-.285-2.814c-.321-2.992-.249-3.348.463-3.348.499 0 .926-1.496.926-3.241 0-.57.178-1.033.392-1.033.249 0 1.567 1.211 2.956 2.707l2.529 2.743 2.208-2.28c1.781-1.817 2.137-2.387 1.852-2.885-.499-.962-1.389-.784-2.743.499l-1.211 1.175-4.096-4.453H8.886L6.428 8.548z"/></svg>