<?xml version="1.0" encoding="UTF-8" standalone="no"?>
<!-- Generated by IcoMoon.io -->

<svg
   version="1.1"
   width="100px"
   height="100px"
   viewBox="0 0 32 32"
   id="svg6"
   sodipodi:docname="attack-osrs.svg"
   inkscape:version="1.1 (c68e22c387, 2021-05-23)"
   xmlns:inkscape="http://www.inkscape.org/namespaces/inkscape"
   xmlns:sodipodi="http://sodipodi.sourceforge.net/DTD/sodipodi-0.dtd"
   xmlns="http://www.w3.org/2000/svg"
   xmlns:svg="http://www.w3.org/2000/svg">
  <defs
     id="defs10" />
  <sodipodi:namedview
     id="namedview8"
     pagecolor="#ffffff"
     bordercolor="#666666"
     borderopacity="1.0"
     inkscape:pageshadow="2"
     inkscape:pageopacity="0.0"
     inkscape:pagecheckerboard="0"
     showgrid="false"
     inkscape:zoom="26"
     inkscape:cx="15.980769"
     inkscape:cy="16.019231"
     inkscape:window-width="1920"
     inkscape:window-height="1017"
     inkscape:window-x="1912"
     inkscape:window-y="-8"
     inkscape:window-maximized="1"
     inkscape:current-layer="svg6" />
  <title
     id="title2">attack-osrs</title>
  <path
     d="M18.148 9.673l-9.457 9.457-7.692 0.2-0.1 2.564-0.1 2.597h4.162l-0.966 0.966c-0.666 0.733-1.299 1.032-2.298 1.099l-1.365 0.1-0.167 2.597-0.167 2.564h5.494v-1.332c0-0.999 0.233-1.565 0.832-2.164 0.433-0.466 0.899-0.832 0.999-0.832s0.167 0.832 0.167 1.831v1.865l5.161-0.2 0.2-7.659 9.424-9.49 9.457-9.49 0.133-2.098 0.133-2.065h-4.362l-9.49 9.49zM30.602 2.647c-0.033 1.232-0.499 1.732-9.49 10.722-8.391 8.391-9.49 9.39-9.956 8.957-0.433-0.466 0.133-1.132 4.995-5.994 2.997-2.997 5.361-5.561 5.228-5.694s-2.697 2.198-5.694 5.195c-4.828 4.762-5.561 5.361-6.027 4.995-0.466-0.4 0.599-1.565 8.857-9.856 5.195-5.195 9.723-9.49 10.123-9.557 1.632-0.366 1.998-0.133 1.965 1.232zM9.89 22.060l1.598 1.565v6.194h-2.664v-2.098c0-1.998-0.067-2.164-1.232-3.297-1.199-1.165-1.365-1.232-3.33-1.132l-2.098 0.067v-2.864h6.127l1.598 1.565z"
     id="path4" />
  <path
     style="fill:#999999;fill-rule:evenodd;stroke:#000000;stroke-width:0.0512821"
     d="m 11.150888,22.310651 c -0.314519,-0.314519 -0.02478,-0.79766 1.385106,-2.309657 0.26578,-0.28503 1.54766,-1.59239 2.848621,-2.905246 3.558062,-3.59059 5.230237,-5.362652 5.823731,-6.17161 0.429667,-0.585655 -0.11807,-0.192616 -1.57411,1.129532 -0.994519,0.903066 -2.124194,1.988362 -4.288082,4.119623 -4.332855,4.267525 -5.209496,4.995151 -5.6480501,4.687976 C 9.1515723,20.478464 10.123548,19.380967 17.923077,11.574123 23.6172,5.8746592 27.204638,2.4431552 28.428361,1.5254668 c 0.177874,-0.1333902 0.780587,-0.256236 1.257161,-0.256236 0.582714,0 0.798626,0.1807378 0.894428,0.7487175 0.02628,0.155781 0.03687,0.4327011 0.02505,0.654837 -0.06601,1.240541 -0.472458,1.695121 -10.129603,11.3290807 -6.750524,6.734316 -8.032232,7.94452 -8.80232,8.311253 -0.290662,0.138419 -0.381732,0.137989 -0.522189,-0.0025 z"
     id="path1036" />
  <path
     style="fill:#b3a906;fill-rule:evenodd;stroke:#000000;stroke-width:0.0512821;fill-opacity:1"
     d="M 8.83383,29.82101 C 8.819454,29.80663 8.807692,29.100668 8.807692,28.252196 c 0,-2.278016 -0.043634,-2.504769 -0.6153846,-3.197942 -0.2775415,-0.336483 -1.2462242,-1.237612 -1.5445112,-1.4368 -0.1290942,-0.08621 -0.357948,-0.195495 -0.5085642,-0.242865 -0.2577415,-0.08106 -0.3315309,-0.08557 -1.2546169,-0.07671 -0.5394231,0.0052 -1.3615385,0.02335 -1.8269231,0.04037 -0.4653846,0.01702 -0.8591346,0.02474 -0.875,0.01716 C 2.166827,23.347809 2.153846,22.702254 2.153846,21.92081 V 20.5 h 3.080648 3.0806479 l 1.592655,1.564114 1.5926551,1.564113 -0.0098,3.099348 -0.0098,3.099348 -1.310401,0.01011 c -0.7207199,0.0056 -1.3221622,-0.0017 -1.336538,-0.01602 z"
     id="path2079" />
</svg>
