<svg xmlns="http://www.w3.org/2000/svg" width="100" height="100" viewBox="0 0 32 32"><path d="M18.148 9.673 8.691 19.13l-7.692.2-.1 2.564-.1 2.597h4.162l-.966.966c-.666.733-1.299 1.032-2.298 1.099l-1.365.1-.167 2.597-.167 2.564h5.494v-1.332c0-.999.233-1.565.832-2.164.433-.466.899-.832.999-.832s.167.832.167 1.831v1.865l5.161-.2.2-7.659 9.424-9.49 9.457-9.49.133-2.098.133-2.065h-4.362l-9.49 9.49zm12.454-7.026c-.033 1.232-.499 1.732-9.49 10.722-8.391 8.391-9.49 9.39-9.956 8.957-.433-.466.133-1.132 4.995-5.994 2.997-2.997 5.361-5.561 5.228-5.694s-2.697 2.198-5.694 5.195c-4.828 4.762-5.561 5.361-6.027 4.995-.466-.4.599-1.565 8.857-9.856 5.195-5.195 9.723-9.49 10.123-9.557 1.632-.366 1.998-.133 1.965 1.232zM9.89 22.06l1.598 1.565v6.194H8.824v-2.098c0-1.998-.067-2.164-1.232-3.297-1.199-1.165-1.365-1.232-3.33-1.132l-2.098.067v-2.864h6.127l1.598 1.565z"/><path d="M11.15 22.31c-.314-.314-.024-.797 1.386-2.309a261.79 261.79 0 0 1 2.849-2.905c3.558-3.59 5.23-5.363 5.823-6.172.43-.586-.118-.192-1.574 1.13-.994.903-2.124 1.988-4.288 4.12-4.333 4.267-5.21 4.994-5.648 4.687-.546-.383.426-1.48 8.225-9.287 5.694-5.7 9.282-9.13 10.505-10.049.178-.133.78-.256 1.258-.256.582 0 .798.181.894.749.026.156.037.433.025.655-.066 1.24-.472 1.695-10.13 11.329-6.75 6.734-8.032 7.944-8.802 8.311-.29.139-.382.138-.522-.002z" style="fill:#999;fill-rule:evenodd;stroke:#000;stroke-width:.0512821"/><path d="M8.834 29.821c-.015-.014-.026-.72-.026-1.569 0-2.278-.044-2.505-.616-3.198-.277-.336-1.246-1.237-1.544-1.437a2.397 2.397 0 0 0-.509-.242c-.258-.081-.331-.086-1.254-.077-.54.005-1.362.023-1.827.04-.466.017-.86.025-.875.017-.016-.007-.03-.653-.03-1.434V20.5h6.162l1.593 1.564 1.592 1.564-.01 3.1-.01 3.099-1.31.01c-.72.006-1.322-.002-1.336-.016z" style="fill:#b3a906;fill-rule:evenodd;stroke:#000;stroke-width:.0512821;fill-opacity:1"/></svg>