<svg xmlns="http://www.w3.org/2000/svg" width="100" height="100" viewBox="0 0 32 32"><path d="M18.203 4.695c-2.407 2.475-4.034 4.373-3.932 4.644.102.237-.678 1.322-1.797 2.441l-1.966 2H8.169c-4.339 0-5.661 1.288-5.661 5.492 0 2.373-.034 2.475-1.254 3.729L0 24.289l2.678 2.712c2.61 2.644 2.746 2.712 4.305 2.712H8.61v-1.356c0-.746.102-1.356.271-1.356.136 0 1.492.983 3.017 2.203l2.746 2.237 10.678-.203-.068-2.847c-.034-1.593-.271-3.254-.542-3.729-.237-.508-1.39-1.695-2.509-2.678-1.661-1.458-2.068-2-2.068-2.814 0-.915.102-.983 1.322-.983 2.034 0 2.271-.169 2.136-1.661-.136-1.525.373-2.034 1.254-1.254.373.339 1.22.542 2.271.542 1.559 0 1.797-.102 3.288-1.627l1.593-1.627V3.746L28.745.56h-6.407l-4.136 4.136zm11.255-1.729 1.525 1.424v7.492l-1.254 1.288c-1.051 1.085-1.492 1.288-2.678 1.288-1.322 0-1.627-.203-3.898-2.407l-2.441-2.407-1.051 1.051-1.017 1.051-2.915-2.847 3.627-3.661 3.661-3.661h2.475c2.407 0 2.475.034 3.966 1.39zm-12.373 8.949 1.492 1.525 2.237-2.169.949.983c.881.915.949 1.22.814 2.78l-.136 1.797h-3.288l-.102 1.254-.102 1.288-2.61.102c-2.644.102-2.644.102-2.644-.78 0-.814-.102-.847-1.864-.847-3.797 0-4.339.78-4.441 6.271-.068 3.932-.102 4.068-.814 4.169-.576.102-1.322-.441-2.915-2l-2.169-2.169 6.847-6.847c3.797-3.797 6.949-6.881 7.051-6.881s.881.678 1.695 1.525zm-4.068 7.458c0 .847.034.847 2.814.847 2.712.034 2.814.068 4.068 1.186.678.678 1.254 1.254 1.254 1.322s-.814.136-1.831.136c-2.034 0-3.695.712-4.339 1.864-.237.407-.508 1.695-.61 2.847l-.169 2.068-2.949-2.373-2.983-2.373V22.49c0-3.119.678-3.966 3.119-3.966 1.525 0 1.627.068 1.627.847zm8.169 4.915c.814.441 1.661 2.068 1.661 3.22 0 1.356-1.695 2.881-3.186 2.881-1.763 0-2.644-.983-2.509-2.814.068-1.085.305-1.492.983-1.898 1.932-1.085 4.034.712 2.881 2.509-.61.949-1.593 1.119-2.237.339s-.136-1.627.847-1.458c.678.136.78.102.475-.271-.542-.644-1.119-.576-1.797.169-.78.847-.441 2 .746 2.441 1.22.475 2.576-.542 2.712-2.034.203-1.932-1.492-3.051-3.559-2.373-1.797.576-2.339 2.475-1.322 4.441.475.915.475.949-.407.949-.915 0-.915 0-.847-2.407.068-2.475.407-3.22 1.627-3.695.983-.407 3.153-.407 3.932 0z"/><path d="M24.068 4.83c-.983.983-.644 2.169 1.119 3.898 2.407 2.441 4.102 2.203 4.102-.542 0-2.678-3.593-4.983-5.22-3.356z"/><path d="M13.096 28.766a503.828 503.828 0 0 0-2.935-2.353l-1.897-1.51.017-1.884c.017-1.693.026-1.927.098-2.307.243-1.3.749-1.876 1.833-2.091.751-.15 2.21-.14 2.54.017.203.097.25.226.283.776.026.459.033.486.131.57a.816.816 0 0 0 .248.133c.09.028.792.057 1.894.078 3.212.062 3.311.085 4.4 1.036.425.37 1.446 1.426 1.446 1.494 0 .02-.06.047-.132.06-.21.04-1.267.098-1.799.099-1.513.003-2.9.453-3.707 1.204-.5.466-.708.916-.916 1.989-.134.692-.195 1.198-.297 2.471-.055.689-.1 1.066-.127 1.064-.023-.002-.509-.382-1.08-.846z" style="fill:#765436;fill-rule:evenodd;stroke:#000;stroke-width:.0512821;fill-opacity:1"/><path d="M15.904 30.348c-.295-.12-.347-.508-.29-2.173.073-2.124.254-2.862.834-3.405.239-.224.596-.426.976-.552.584-.193 1.598-.288 2.398-.223.985.08 1.371.213 1.77.609.874.866 1.436 2.453 1.195 3.374-.242.93-1.196 1.88-2.278 2.267-.325.116-.356.12-.951.118-.56-.003-.644-.013-.926-.106-.881-.29-1.36-.917-1.478-1.935a5.085 5.085 0 0 1 .1-1.53c.165-.635.585-1.054 1.33-1.322.244-.089.342-.102.743-.103.387-.001.504.013.725.09.348.12.694.36.92.64.554.688.48 1.656-.182 2.393-.23.255-.486.416-.788.493-.433.111-.81-.02-1.169-.404-.24-.256-.331-.462-.332-.749a.716.716 0 0 1 .375-.665c.155-.091.224-.107.47-.107.159 0 .404.015.546.034.141.018.285.023.318.01.055-.021.056-.035.006-.13-.074-.14-.396-.448-.55-.526-.18-.09-.514-.08-.732.023-.22.104-.656.508-.815.756-.157.244-.249.615-.217.872.096.767.899 1.403 1.771 1.403.529 0 .945-.186 1.369-.611.452-.453.665-.944.714-1.64.078-1.137-.561-2.053-1.64-2.35-.383-.105-1.147-.096-1.597.019-.426.108-.972.368-1.238.59-.717.595-1.025 1.554-.84 2.617.075.425.237.88.522 1.458.259.526.287.686.131.757-.112.051-1.07.058-1.19.008z" style="fill:#765436;fill-opacity:1;fill-rule:evenodd;stroke:#000;stroke-width:.0512821"/><path d="M9.846 14.577a13.605 13.605 0 0 0-3.577.077 5.381 5.381 0 0 0-1.074.258c-.345.13-.673.32-.926.588-.321.34-.507.786-.654 1.23-.44 1.333-.599 2.758-.461 4.155" style="fill:#fff;stroke:#000;stroke-width:1px;stroke-linecap:butt;stroke-linejoin:miter;stroke-opacity:0"/><path d="M3.14 20.797c-.049-.18-.024-1.681.035-2.132.164-1.252.508-2.366.907-2.934.501-.713 1.334-1.033 3.123-1.196.54-.05 2.41-.03 2.55.028.075.03-.245.343-2.915 2.86-4.083 3.85-3.673 3.476-3.7 3.374z" style="fill:#765436;fill-opacity:1;fill-rule:evenodd;stroke:#000;stroke-width:.0512821;stroke-opacity:0"/><path d="M3.117 19.38a9.36 9.36 0 0 1 .12-1.114 8.92 8.92 0 0 1 .533-1.958c.261-.628.599-1.004 1.146-1.276.402-.2.903-.327 1.696-.43.613-.08 1.145-.11 1.866-.104.365.003.477.006.79.024.2.012.392.026.428.032l.103.016a.19.19 0 0 1 .042.008c.002.001-.162.159-.365.35l-.79.747c-.67.637-1.074 1.018-3.043 2.875l-.941.888H3.113z" style="fill:#765436;fill-opacity:1;fill-rule:evenodd;stroke:#000;stroke-width:.00906547;stroke-opacity:0"/><path d="M3.152 20.874a.033.033 0 0 0-.007-.018c-.006-.007-.008-.013-.006-.026a.246.246 0 0 0-.004-.053 2.331 2.331 0 0 1-.018-.293l-.008-.265a11.591 11.591 0 0 1 .061-1.517c.017-.145.061-.434.098-.634.057-.311.127-.617.207-.907l.022-.079h3.704l-.027.027a1047.035 1047.035 0 0 1-3.692 3.471 26.619 26.619 0 0 0-.326.302c-.002 0-.004-.003-.004-.008z" style="fill:#765436;fill-opacity:1;fill-rule:evenodd;stroke:#000;stroke-width:.00520833;stroke-opacity:0"/><path d="M5.903 28.158c-.527-.263-1.313-.943-2.903-2.514L1.469 24.13l4.281-4.29c4.416-4.425 9.544-9.466 9.632-9.466.118 0 .92.736 1.99 1.825.634.646 1.18 1.175 1.215 1.175.034 0 .53-.464 1.104-1.031.574-.567 1.071-1.031 1.106-1.031.035 0 .386.335.781.744.848.88 1.003 1.15 1.038 1.818.023.437-.08 2.34-.152 2.797l-.032.203H20.81c-.893 0-1.626.007-1.63.016-.004.008-.053.564-.109 1.234l-.102 1.218-.344.043c-.578.073-4.01.164-4.37.116-.462-.061-.567-.199-.568-.743-.002-.509-.093-.705-.376-.802-.276-.095-2.37-.106-3.04-.017-1.404.188-2.034.663-2.423 1.824-.243.726-.343 1.672-.411 3.892-.09 2.903-.159 3.967-.274 4.243-.174.418-.718.53-1.26.26z" style="fill:#86847f;fill-opacity:1;fill-rule:evenodd;stroke:#86847f;stroke-width:.0833333;stroke-opacity:1"/><path d="M26.364 14.432c-.42-.061-.93-.32-1.436-.728-.242-.195-1.297-1.186-2.344-2.203l-1.903-1.848-1.02 1.06-1.018 1.06-1.364-1.337c-.75-.735-1.414-1.383-1.475-1.44-.11-.102-.06-.155 3.552-3.766l3.663-3.664h1.884c1.036 0 2.08.027 2.321.06.829.112 1.175.34 2.8 1.85l.966.899v7.493l-.713.755c-.888.94-1.4 1.385-1.832 1.59-.512.244-1.324.33-2.081.219zm2.222-4.217c.258-.17.53-.687.62-1.18.1-.542.036-1.497-.13-1.944-.478-1.282-1.685-2.368-3.007-2.704-1.562-.398-2.905.845-2.408 2.227.376 1.044 2.05 2.822 3.253 3.454.235.123.525.248.644.278.343.086.786.03 1.028-.131z" style="fill:#563d32;fill-opacity:1;fill-rule:evenodd;stroke:#563d32;stroke-width:.0745856;stroke-opacity:1"/></svg>