<?xml version="1.0" encoding="UTF-8" standalone="no"?>
<!-- Generated by IcoMoon.io -->

<svg
   version="1.1"
   width="100px"
   height="100px"
   viewBox="0 0 32 32"
   id="svg8"
   sodipodi:docname="construction-osrs.svg"
   inkscape:version="1.1 (c68e22c387, 2021-05-23)"
   xmlns:inkscape="http://www.inkscape.org/namespaces/inkscape"
   xmlns:sodipodi="http://sodipodi.sourceforge.net/DTD/sodipodi-0.dtd"
   xmlns="http://www.w3.org/2000/svg"
   xmlns:svg="http://www.w3.org/2000/svg">
  <defs
     id="defs12">
    <inkscape:path-effect
       effect="spiro"
       id="path-effect1179"
       is_visible="true"
       lpeversion="1" />
  </defs>
  <sodipodi:namedview
     id="namedview10"
     pagecolor="#ffffff"
     bordercolor="#666666"
     borderopacity="1.0"
     inkscape:pageshadow="2"
     inkscape:pageopacity="0.0"
     inkscape:pagecheckerboard="0"
     showgrid="false"
     inkscape:zoom="17.876543"
     inkscape:cx="16.530041"
     inkscape:cy="15.858771"
     inkscape:window-width="1920"
     inkscape:window-height="1017"
     inkscape:window-x="1912"
     inkscape:window-y="-8"
     inkscape:window-maximized="1"
     inkscape:current-layer="svg8" />
  <title
     id="title2">construction-osrs</title>
  <path
     d="M18.203 4.695c-2.407 2.475-4.034 4.373-3.932 4.644 0.102 0.237-0.678 1.322-1.797 2.441l-1.966 2h-2.339c-4.339 0-5.661 1.288-5.661 5.492 0 2.373-0.034 2.475-1.254 3.729l-1.254 1.288 2.678 2.712c2.61 2.644 2.746 2.712 4.305 2.712h1.627v-1.356c0-0.746 0.102-1.356 0.271-1.356 0.136 0 1.492 0.983 3.017 2.203l2.746 2.237 10.678-0.203-0.068-2.847c-0.034-1.593-0.271-3.254-0.542-3.729-0.237-0.508-1.39-1.695-2.509-2.678-1.661-1.458-2.068-2-2.068-2.814 0-0.915 0.102-0.983 1.322-0.983 2.034 0 2.271-0.169 2.136-1.661-0.136-1.525 0.373-2.034 1.254-1.254 0.373 0.339 1.22 0.542 2.271 0.542 1.559 0 1.797-0.102 3.288-1.627l1.593-1.627v-8.814l-3.254-3.186h-6.407l-4.136 4.136zM29.458 2.966l1.525 1.424v7.492l-1.254 1.288c-1.051 1.085-1.492 1.288-2.678 1.288-1.322 0-1.627-0.203-3.898-2.407l-2.441-2.407-1.051 1.051-1.017 1.051-2.915-2.847 3.627-3.661 3.661-3.661h2.475c2.407 0 2.475 0.034 3.966 1.39zM17.085 11.915l1.492 1.525 2.237-2.169 0.949 0.983c0.881 0.915 0.949 1.22 0.814 2.78l-0.136 1.797h-3.288l-0.102 1.254-0.102 1.288-2.61 0.102c-2.644 0.102-2.644 0.102-2.644-0.78 0-0.814-0.102-0.847-1.864-0.847-3.797 0-4.339 0.78-4.441 6.271-0.068 3.932-0.102 4.068-0.814 4.169-0.576 0.102-1.322-0.441-2.915-2l-2.169-2.169 6.847-6.847c3.797-3.797 6.949-6.881 7.051-6.881s0.881 0.678 1.695 1.525zM13.017 19.373c0 0.847 0.034 0.847 2.814 0.847 2.712 0.034 2.814 0.068 4.068 1.186 0.678 0.678 1.254 1.254 1.254 1.322s-0.814 0.136-1.831 0.136c-2.034 0-3.695 0.712-4.339 1.864-0.237 0.407-0.508 1.695-0.61 2.847l-0.169 2.068-2.949-2.373-2.983-2.373v-2.407c0-3.119 0.678-3.966 3.119-3.966 1.525 0 1.627 0.068 1.627 0.847zM21.186 24.288c0.814 0.441 1.661 2.068 1.661 3.22 0 1.356-1.695 2.881-3.186 2.881-1.763 0-2.644-0.983-2.509-2.814 0.068-1.085 0.305-1.492 0.983-1.898 1.932-1.085 4.034 0.712 2.881 2.509-0.61 0.949-1.593 1.119-2.237 0.339s-0.136-1.627 0.847-1.458c0.678 0.136 0.78 0.102 0.475-0.271-0.542-0.644-1.119-0.576-1.797 0.169-0.78 0.847-0.441 2 0.746 2.441 1.22 0.475 2.576-0.542 2.712-2.034 0.203-1.932-1.492-3.051-3.559-2.373-1.797 0.576-2.339 2.475-1.322 4.441 0.475 0.915 0.475 0.949-0.407 0.949-0.915 0-0.915 0-0.847-2.407 0.068-2.475 0.407-3.22 1.627-3.695 0.983-0.407 3.153-0.407 3.932 0z"
     id="path4" />
  <path
     d="M24.068 4.83c-0.983 0.983-0.644 2.169 1.119 3.898 2.407 2.441 4.102 2.203 4.102-0.542 0-2.678-3.593-4.983-5.22-3.356z"
     id="path6" />
  <path
     style="fill:#765436;fill-rule:evenodd;stroke:#000000;stroke-width:0.0512821;fill-opacity:1"
     d="M 13.096154,28.765996 C 12.525,28.302355 11.204005,27.2437 10.16061,26.41343 l -1.8970827,-1.509584 0.017905,-1.884615 c 0.01609,-1.693574 0.025942,-1.927502 0.097193,-2.307693 0.2434041,-1.298787 0.7491162,-1.875685 1.8329127,-2.090922 0.751626,-0.149268 2.209704,-0.139429 2.539645,0.01714 0.204095,0.09685 0.251439,0.226449 0.283499,0.77606 0.02677,0.458957 0.03301,0.486065 0.131391,0.570686 0.05681,0.04886 0.16816,0.108562 0.247452,0.132665 0.09073,0.02758 0.792837,0.05636 1.894167,0.07764 3.21215,0.06207 3.311734,0.08552 4.400458,1.036279 0.424585,0.370779 1.445696,1.426086 1.445696,1.494109 0,0.01951 -0.0592,0.04658 -0.131549,0.06015 -0.21029,0.03945 -1.267113,0.09717 -1.799173,0.09826 -1.513319,0.0031 -2.900495,0.453801 -3.706815,1.204339 -0.500987,0.466328 -0.708257,0.916378 -0.916017,1.988972 -0.13414,0.692512 -0.194912,1.197745 -0.297248,2.471154 -0.05534,0.688599 -0.100437,1.066171 -0.127101,1.064105 -0.02273,-0.0018 -0.508635,-0.382545 -1.079789,-0.846186 z"
     id="path903" />
  <path
     style="fill:#765436;fill-opacity:1;fill-rule:evenodd;stroke:#000000;stroke-width:0.0512821"
     d="m 15.903846,30.348255 c -0.294773,-0.120648 -0.346424,-0.508257 -0.289586,-2.173156 0.0725,-2.123753 0.253389,-2.862577 0.833763,-3.405489 0.238869,-0.22345 0.596231,-0.425252 0.976397,-0.551371 0.583152,-0.193459 1.597512,-0.287755 2.397844,-0.222906 0.984242,0.07975 1.370736,0.212641 1.770175,0.60865 0.873089,0.865592 1.435134,2.452572 1.195049,3.374319 -0.242303,0.930264 -1.196813,1.879788 -2.278938,2.267031 -0.324488,0.11612 -0.355623,0.11996 -0.950858,0.117261 -0.559065,-0.0025 -0.64382,-0.01218 -0.926092,-0.105358 -0.880851,-0.290775 -1.359653,-0.917618 -1.477915,-1.934872 -0.0497,-0.427492 -0.0036,-1.129037 0.100583,-1.531141 0.164438,-0.634587 0.585227,-1.053031 1.329016,-1.32161 0.244939,-0.08845 0.342901,-0.102021 0.743639,-0.103047 0.387508,-9.92e-4 0.503842,0.01342 0.725273,0.08986 0.34777,0.120055 0.693581,0.361055 0.919182,0.640589 0.55487,0.687519 0.481368,1.656013 -0.181646,2.393444 -0.229067,0.254778 -0.486124,0.415545 -0.788148,0.49292 -0.432276,0.110744 -0.808936,-0.01945 -1.168561,-0.403917 -0.239747,-0.25631 -0.331113,-0.462367 -0.332178,-0.749164 -0.0011,-0.297833 0.122667,-0.517443 0.375177,-0.66567 0.154951,-0.09096 0.224096,-0.106629 0.470132,-0.106549 0.158654,5e-5 0.404181,0.01524 0.545616,0.03376 0.141435,0.01851 0.284829,0.02304 0.318653,0.01006 0.05484,-0.02104 0.05543,-0.03513 0.0055,-0.130059 -0.074,-0.140621 -0.395673,-0.447616 -0.550529,-0.525401 -0.179121,-0.08997 -0.513177,-0.07953 -0.730996,0.02286 -0.219626,0.103237 -0.656276,0.507894 -0.815067,0.755349 -0.157036,0.244719 -0.249187,0.614901 -0.217066,0.871984 0.09586,0.767271 0.898516,1.403362 1.770834,1.403362 0.528836,0 0.944598,-0.185598 1.368875,-0.611071 0.451946,-0.453219 0.66542,-0.943744 0.713681,-1.639907 0.0788,-1.136693 -0.561068,-2.053271 -1.640248,-2.349571 -0.382756,-0.105089 -1.146567,-0.09631 -1.596154,0.01834 -0.426287,0.108711 -0.972165,0.368711 -1.238372,0.589833 -0.717347,0.595858 -1.024595,1.553972 -0.839218,2.616999 0.07416,0.425256 0.236732,0.88009 0.521113,1.457922 0.259167,0.5266 0.286971,0.686639 0.13159,0.757435 -0.112183,0.05111 -1.069572,0.05777 -1.190498,0.0083 z"
     id="path1053" />
  <path
     style="fill:#ffffff;stroke:#000000;stroke-width:1px;stroke-linecap:butt;stroke-linejoin:miter;stroke-opacity:0"
     d="m 9.8461538,14.576923 c -1.1887544,-0.131965 -2.3949406,-0.106027 -3.576923,0.07692 -0.3645112,0.05642 -0.7287212,0.128247 -1.0740068,0.257975 -0.3452856,0.129728 -0.6727392,0.320011 -0.9259932,0.588179 -0.3216,0.340538 -0.5067334,0.78608 -0.6538462,1.230772 C 3.174633,18.06307 3.016301,19.488058 3.1538462,20.884615"
     id="path1177"
     inkscape:path-effect="#path-effect1179"
     inkscape:original-d="m 9.8461538,14.576923 c -1.1913076,0.02664 -2.3836153,0.05228 -3.576923,0.07692 -1.1933077,0.02464 -1.3323334,0.565103 -2,0.846154 C 3.6015641,15.781051 3.8343333,16.321513 3.6153846,16.730769 3.3964359,17.140026 3.3086923,19.501 3.1538462,20.884615" />
  <path
     style="fill:#765436;fill-opacity:1;fill-rule:evenodd;stroke:#000000;stroke-width:0.0512821;stroke-opacity:0"
     d="M 3.1394111,20.797254 C 3.0910002,20.616651 3.1158835,19.11551 3.1747489,18.665432 3.338516,17.413285 3.6828674,16.299343 4.08176,15.73134 c 0.5012134,-0.713702 1.3345235,-1.032971 3.1229719,-1.196515 0.5401258,-0.04939 2.4103604,-0.02894 2.5511869,0.02789 0.07377,0.02977 -0.2454911,0.342988 -2.9155884,2.860358 -4.0837216,3.850137 -3.6735722,3.476198 -3.7009193,3.374177 z"
     id="path4812" />
  <path
     style="fill:#765436;fill-opacity:1;fill-rule:evenodd;stroke:#000000;stroke-width:0.00906547;stroke-opacity:0"
     d="m 3.1170262,19.379145 c 0.038714,-0.567624 0.056216,-0.730873 0.1193662,-1.113353 0.1225844,-0.742459 0.3021416,-1.401196 0.5337466,-1.958142 0.2608378,-0.627242 0.5987444,-1.003372 1.145613,-1.275203 0.4020156,-0.199829 0.9036234,-0.327266 1.6963763,-0.430976 0.6129546,-0.08019 1.145159,-0.10982 1.866354,-0.103913 0.364876,0.003 0.4763622,0.0065 0.788696,0.02474 0.2000636,0.01169 0.3928182,0.02605 0.4283435,0.0319 0.035525,0.0059 0.082027,0.01277 0.1033368,0.01538 0.02131,0.0026 0.040226,0.0062 0.042036,0.008 0.00181,0.0018 -0.1622555,0.159281 -0.36459,0.349937 -0.2023346,0.190655 -0.5578949,0.527162 -0.7901341,0.747793 -0.6704103,0.6369 -1.0738976,1.018117 -3.0429147,2.874964 l -0.9416758,0.888031 -0.7943058,1.55e-4 -0.7943058,1.53e-4 z"
     id="path4890" />
  <path
     style="fill:#765436;fill-opacity:1;fill-rule:evenodd;stroke:#000000;stroke-width:0.00520833;stroke-opacity:0"
     d="m 3.1523438,20.87397 c 0,-0.0052 -0.00345,-0.01348 -0.00768,-0.01835 -0.00602,-0.0069 -0.00719,-0.01238 -0.00544,-0.02518 0.00123,-0.009 -5.356e-4,-0.03295 -0.00392,-0.05327 -0.00905,-0.05425 -0.013653,-0.128614 -0.018134,-0.292829 -0.0022,-0.08055 -0.00573,-0.200052 -0.00785,-0.265553 -0.00898,-0.277539 -0.00181,-0.72334 0.015549,-0.966846 0.012722,-0.178494 0.038561,-0.49325 0.045148,-0.549943 0.016793,-0.144546 0.061483,-0.433702 0.097933,-0.633651 0.0568,-0.311577 0.1267852,-0.617684 0.207418,-0.907226 l 0.022028,-0.0791 h 1.851854 1.8518542 l -0.02731,0.02685 c -0.024538,0.02412 -0.325614,0.308088 -1.9491851,1.83842 -0.8078251,0.761434 -1.1386036,1.072336 -1.4003906,1.316245 -0.2066319,0.19252 -0.23213,0.216131 -0.3417969,0.316496 -0.053711,0.04916 -0.1482864,0.136949 -0.2101676,0.195097 -0.061881,0.05815 -0.1141762,0.10631 -0.1162109,0.107026 -0.00203,7.17e-4 -0.0037,-0.003 -0.0037,-0.0082 z"
     id="path4968" />
  <path
     style="fill:#86847f;fill-opacity:1;fill-rule:evenodd;stroke:#86847f;stroke-width:0.0833333;stroke-opacity:1"
     d="M 5.9028965,28.158318 C 5.3757376,27.895407 4.590271,27.215061 3,25.643926 L 1.46875,24.131101 5.75,19.840636 C 10.165587,15.415544 15.294493,10.375 15.381569,10.375 c 0.118242,0 0.9209,0.736267 1.990099,1.82549 0.634104,0.645981 1.180825,1.17451 1.214934,1.17451 0.03411,0 0.531176,-0.464063 1.104595,-1.03125 0.573418,-0.567188 1.071076,-1.03125 1.105906,-1.03125 0.03483,0 0.386341,0.335034 0.781134,0.744521 0.848012,0.87957 1.002327,1.149974 1.03749,1.817979 0.02301,0.437016 -0.08047,2.340774 -0.152026,2.796875 L 22.431836,16.875 h -1.622168 c -0.892192,0 -1.625365,0.007 -1.629273,0.01563 -0.0039,0.0086 -0.05313,0.563951 -0.109375,1.234127 L 18.96875,19.34326 18.625,19.38649 c -0.577588,0.07264 -4.00936,0.163524 -4.369531,0.115717 -0.462588,-0.0614 -0.567681,-0.198748 -0.56889,-0.743503 -0.0011,-0.5087 -0.09305,-0.704935 -0.375708,-0.802049 -0.276238,-0.09491 -2.369467,-0.106064 -3.040724,-0.0162 -1.4031389,0.187834 -2.0335926,0.662575 -2.4222845,1.82402 -0.2427627,0.725395 -0.3427875,1.671879 -0.4112851,3.891783 -0.089562,2.902571 -0.1580979,3.967104 -0.2731317,4.242418 -0.1746145,0.417912 -0.7185656,0.529956 -1.2605492,0.25965 z"
     id="path5512" />
  <path
     style="fill:#563d32;fill-opacity:1;fill-rule:evenodd;stroke:#563d32;stroke-width:0.0745856;stroke-opacity:1"
     d="m 26.36378,14.431746 c -0.419048,-0.06123 -0.930066,-0.320214 -1.435872,-0.72771 -0.242293,-0.1952 -1.297046,-1.186501 -2.343897,-2.202892 l -1.903365,-1.8479853 -1.01901,1.0594843 -1.01901,1.059484 -1.363958,-1.336143 C 16.528491,9.7011059 15.86475,9.0532894 15.803688,8.9963925 15.694229,8.8943991 15.744215,8.8413905 19.355669,5.2296208 l 3.663002,-3.6633225 h 1.884062 c 1.036233,0 2.08097,0.02664 2.321638,0.059199 0.828307,0.1120601 1.174355,0.3408834 2.799534,1.8511867 l 0.966426,0.8981139 v 3.7465928 3.7465923 l -0.713225,0.75528 c -0.887766,0.940112 -1.399874,1.384659 -1.832009,1.590318 -0.511788,0.243566 -1.324451,0.32875 -2.081317,0.218165 z m 2.222617,-4.217159 c 0.257659,-0.17051 0.52877,-0.6868082 0.619837,-1.180402 C 29.30617,8.4925149 29.241848,7.5379165 29.075285,7.0907695 28.597857,5.809088 27.39065,4.7232665 26.068798,4.3865857 24.507289,3.9888638 23.163819,5.2319494 23.661027,6.6144464 c 0.375476,1.044018 2.050191,2.8215607 3.253461,3.4532216 0.234995,0.123362 0.524481,0.248576 0.643301,0.278254 0.34365,0.08583 0.785744,0.02938 1.028608,-0.131335 z"
     id="path6143" />
</svg>
