<svg xmlns="http://www.w3.org/2000/svg" width="100" height="100" viewBox="0 0 32 32"><path d="M6.984.671c-.355.355-.604 1.208-.604 1.883 0 .995.32 1.527 1.421 2.629C8.973 6.32 9.222 6.817 9.222 7.918v1.35H6.558c-2.415 0-2.7.071-3.197.853-.426.675-.497 1.03-.213 1.563.568 1.101 2.522 2.557 3.623 2.806 1.883.355.959 2.451-2.096 4.866-2.948 2.309-3.552 3.73-2.877 6.465.355 1.35.924 2.238 2.629 3.943l2.167 2.238h9.2c10.23 0 9.981.035 12.29-2.522 1.421-1.563 2.025-2.771 2.309-4.511.32-1.989-.604-3.694-3.019-5.577-3.161-2.486-4.085-4.547-2.167-4.902 1.243-.284 3.907-2.593 3.907-3.445 0-1.101-1.172-1.776-3.126-1.776h-1.847V7.742c0-1.208.142-1.563.817-1.847 1.137-.497 1.279-2.7.249-3.73-.604-.604-1.101-.71-2.593-.639-1.812.107-1.847.142-1.954 1.243-.142 1.314-.781 1.598-.781.355 0-1.35-.675-1.669-3.445-1.669-1.954 0-2.842-.178-3.73-.71C11.141-.214 7.802-.25 6.985.674zm5.008 1.208c.284.284.426 1.669.426 3.907 0 3.481 0 3.481-.888 3.481-.817 0-.888-.142-.888-1.527 0-1.314-.213-1.705-1.421-2.913C8.226 3.868 7.8 3.122 7.8 2.447c0-.959.071-.995 1.883-.995 1.03 0 2.06.178 2.309.426zm15.7 9.128c0 .604-1.883 1.847-3.445 2.273-1.314.355-1.527.533-1.527 1.35 0 1.776.746 2.948 3.588 5.683 2.238 2.131 2.806 2.877 2.806 3.694 0 1.492-1.279 3.872-2.877 5.293l-1.385 1.279H6.95l-1.669-1.741c-1.776-1.847-2.7-4.049-2.309-5.541.107-.462 1.35-1.812 2.735-3.055 2.593-2.309 3.517-3.765 3.517-5.577 0-.853-.178-1.03-1.527-1.385-1.563-.426-3.445-1.669-3.445-2.273 0-.178 4.76-.32 11.722-.32s11.722.142 11.722.32z"/><rect width=".796" height="5.573" x="14.102" y="3.133" ry=".01" style="fill:#fff;fill-rule:evenodd;stroke:#fff;stroke-width:1.04067;stroke-miterlimit:4;stroke-dasharray:none;stroke-opacity:1"/><rect width="1.382" height="5.313" x="17.078" y="3.344" ry=".009" style="fill:#fff;fill-rule:evenodd;stroke:#fff;stroke-width:1.10922;stroke-miterlimit:4;stroke-dasharray:none;stroke-opacity:1"/><rect width="1.769" height="3.385" x="20.654" y="5.269" ry=".011" style="fill:#fff;fill-rule:evenodd;stroke:#fff;stroke-width:1.17;stroke-miterlimit:4;stroke-dasharray:none;stroke-opacity:1"/><rect width="2" height="1.769" x="22.077" y="3" ry=".712" style="fill:#fff;fill-rule:evenodd;stroke:#fff;stroke-width:1.17;stroke-miterlimit:4;stroke-dasharray:none;stroke-opacity:1"/><rect width="2.236" height="2.173" x="19.193" y="-11.192" ry=".275" style="fill:#fff;fill-rule:evenodd;stroke:#fff;stroke-width:.652766;stroke-miterlimit:4;stroke-dasharray:none;stroke-opacity:1" transform="rotate(39.438)"/><path d="M5.939 29.535c-1.455-1.524-1.892-2.096-2.42-3.17-.448-.911-.635-1.599-.634-2.333.001-.724.104-.962.735-1.702.504-.59 1.174-1.258 2.342-2.337 2.09-1.932 2.915-3.093 3.173-4.468.073-.392.087-1.176.024-1.398-.1-.356-.375-.526-1.255-.78a8.75 8.75 0 0 1-1.708-.663c-.603-.308-1.152-.68-1.51-1.022-.295-.281-.498-.596-.43-.664.086-.086 1.154-.161 3.282-.232 1.893-.063 12.145-.09 14.789-.039 3.094.06 4.752.13 5.24.22.164.03.165.133.006.374-.255.385-1.004.942-1.838 1.368-.571.29-.911.425-1.629.642-1.285.389-1.41.529-1.363 1.534.056 1.223.455 2.066 1.622 3.43.233.271 1.195 1.264 2.14 2.205 1.81 1.807 2.141 2.182 2.428 2.76l.163.33-.002.484c-.003.52-.055.779-.29 1.452-.292.839-1.014 2.065-1.684 2.865-.29.346-.877.921-1.85 1.815l-.405.37H6.934z" style="fill:#7a6b09;fill-rule:evenodd;stroke:#7a6b09;stroke-width:.045;stroke-miterlimit:4;stroke-dasharray:none;stroke-opacity:1;fill-opacity:1"/><path d="M9.152 1.41c-.405.032-.876-.049-1.225.205-.252.283-.15.707-.156 1.053.091.828.723 1.451 1.25 2.042.49.554 1.097 1.043 1.386 1.743.258.803.106 1.669.28 2.49.096.374.548.384.859.367.236-.028.544.082.674-.183.243-.344.193-.8.233-1.2.02-1.54.028-3.085-.059-4.624-.076-.486-.074-1.025-.354-1.447-.428-.333-1.008-.361-1.528-.415a17.537 17.537 0 0 0-1.36-.03Z" style="fill:#fff;fill-rule:evenodd;stroke:#000;stroke-width:0;stroke-miterlimit:4;stroke-dasharray:none"/></svg>