<?xml version="1.0" encoding="UTF-8" standalone="no"?>
<!-- Generated by IcoMoon.io -->

<svg
   version="1.1"
   width="100px"
   height="100px"
   viewBox="0 0 32 32"
   id="svg6"
   sodipodi:docname="crafting-osrs.svg"
   inkscape:version="1.1 (c68e22c387, 2021-05-23)"
   xmlns:inkscape="http://www.inkscape.org/namespaces/inkscape"
   xmlns:sodipodi="http://sodipodi.sourceforge.net/DTD/sodipodi-0.dtd"
   xmlns="http://www.w3.org/2000/svg"
   xmlns:svg="http://www.w3.org/2000/svg">
  <defs
     id="defs10" />
  <sodipodi:namedview
     id="namedview8"
     pagecolor="#ffffff"
     bordercolor="#666666"
     borderopacity="1.0"
     inkscape:pageshadow="2"
     inkscape:pageopacity="0.0"
     inkscape:pagecheckerboard="0"
     showgrid="false"
     inkscape:zoom="26"
     inkscape:cx="15.980769"
     inkscape:cy="16.019231"
     inkscape:window-width="1920"
     inkscape:window-height="1017"
     inkscape:window-x="1912"
     inkscape:window-y="-8"
     inkscape:window-maximized="1"
     inkscape:current-layer="svg6" />
  <title
     id="title2">crafting-osrs</title>
  <path
     d="M16.526 1.391c-0.136 0.102-0.238 1.527-0.238 3.088 0 2.24 0.136 3.054 0.577 3.529 0.543 0.611 0.475 0.747-1.425 2.647l-2.002 2.036-4.615-4.581c-2.986-2.952-4.887-4.581-5.362-4.581-1.188 0-2.783 1.595-2.783 2.817 0 0.916 0.645 1.697 4.479 5.565l4.513 4.513-4.853 4.853c-2.647 2.647-4.819 5.090-4.819 5.396 0 0.882 2.002 2.986 2.85 2.986 0.475 0 2.308-1.561 5.565-4.819l4.853-4.785 1.256 1.222c0.95 0.916 1.391 1.154 1.663 0.882 0.645-0.645 1.12 0 1.12 1.493 0 1.357 0.17 1.629 2.884 4.31l2.884 2.884 2.274-2.308 2.308-2.274-2.884-2.884c-2.545-2.579-3.020-2.884-4.106-2.884-1.425 0-2.24-0.645-1.595-1.29 0.305-0.305 0.136-0.713-0.814-1.697l-1.222-1.256 2.002-2.036 2.002-2.002 1.256 1.222c0.814 0.78 1.968 1.425 3.088 1.765l1.799 0.509 2.409-2.375 2.409-2.409-9.773-9.773h-2.749c-1.493 0-2.85 0.102-2.952 0.238zM26.129 6.753l4.242 4.242-1.731 1.731-1.765 1.731-1.29-0.407c-0.916-0.271-2.375-1.459-4.785-3.835l-3.495-3.461v-4.242h4.581l4.242 4.242zM10.859 11.843l6.923 6.923-1.968 2.104-7.058-7.058c-3.869-3.869-7.058-7.194-7.058-7.364 0-0.543 1.086-1.561 1.663-1.561 0.305 0 3.665 3.122 7.499 6.957zM11.605 18.358l0.916 0.882-4.479 4.547c-2.443 2.477-4.717 4.513-5.022 4.513-0.272 0-0.848-0.339-1.256-0.78l-0.713-0.747 4.479-4.649c2.477-2.545 4.615-4.649 4.785-4.649 0.204-0.034 0.747 0.373 1.29 0.882zM18.528 21.005c0.305 0.271 1.018 0.509 1.595 0.509 0.916 0 1.527 0.407 3.461 2.375l2.375 2.375-1.459 1.425-1.425 1.459-2.206-2.206c-1.9-1.9-2.206-2.341-2.206-3.427 0-0.78-0.238-1.425-0.679-1.832-0.373-0.339-0.679-0.747-0.679-0.916 0-0.441 0.679-0.305 1.222 0.238z"
     id="path4" />
  <rect
     style="fill:#ffffff;fill-rule:evenodd;stroke:#ffffff;stroke-width:1.17;stroke-opacity:1"
     id="rect849"
     width="1.8844845"
     height="4.6230216"
     x="19.935907"
     y="-5.4646006"
     ry="0.048642524"
     transform="rotate(44.43516)" />
  <path
     style="fill:#783c09;fill-rule:evenodd;stroke:#783c09;stroke-width:0.045;stroke-opacity:1;fill-opacity:1"
     d="M 2.5717613,28.146923 C 2.2895474,28.005915 2.1749121,27.912255 1.6390775,27.3849 l -0.6109225,-0.601254 2.5967629,-2.6899 c 3.6763533,-3.808211 5.5647783,-5.702797 6.3555552,-6.37629 0.3707059,-0.315725 0.3923249,-0.315769 0.8563619,-0.0017 0.306742,0.20759 1.681053,1.462307 1.673875,1.528211 -0.0058,0.05359 -5.7024208,5.790943 -6.51071,6.557304 -1.7098665,1.62117 -2.7767925,2.506448 -3.02074,2.506448 -0.047156,0 -0.2305299,-0.07234 -0.4074987,-0.160769 z"
     id="path1276" />
  <path
     style="fill:#783c09;fill-opacity:1;fill-rule:evenodd;stroke:#783c09;stroke-width:0.045;stroke-opacity:1"
     d="m 15.803848,15.10927 c -0.261752,-0.187924 -1.40815,-1.335155 -1.475037,-1.476108 -0.07755,-0.163428 -0.07589,-0.413127 0.0038,-0.567171 0.07726,-0.149395 3.242195,-3.3807707 3.417198,-3.488928 0.192422,-0.1189237 0.465248,-0.1043607 0.676324,0.036101 0.235051,0.1564156 1.443866,1.381415 1.494333,1.51434 0.0602,0.15856 0.0502,0.397191 -0.02254,0.537868 -0.09179,0.177512 -3.296201,3.429494 -3.452343,3.503588 -0.215479,0.102252 -0.446008,0.08081 -0.641703,-0.05969 z"
     id="path1537" />
  <path
     style="fill:#583a0c;fill-opacity:1;fill-rule:evenodd;stroke:#583a0c;stroke-width:0.045;stroke-opacity:1"
     d="M 10.511652,15.563059 C 3.8969023,8.9353081 1.6906689,6.6447711 1.6931524,6.4075923 1.6956074,6.1731347 2.0552558,5.6602878 2.4388538,5.3442465 2.7081337,5.1223903 3.1556531,4.8846154 3.3039316,4.8846154 c 0.4391452,0 3.3271569,2.720207 10.3680604,9.7656366 l 4.1143,4.116944 -0.117294,0.126017 c -0.06451,0.06931 -0.508212,0.543817 -0.986001,1.054462 l -0.868709,0.928443 z"
     id="path1576" />
  <path
     style="fill:#757b7c;fill-opacity:1;fill-rule:evenodd;stroke:#757b7c;stroke-width:0.045;stroke-opacity:1"
     d="M 26.134615,14.235475 C 25.301907,13.9698 25.10415,13.882058 24.62122,13.564005 23.52314,12.84082 22.471972,11.887079 19.298138,8.7342919 L 17.307692,6.7570458 V 4.6285228 2.5 h 2.298143 2.298142 l 4.240963,4.2410938 4.240964,4.2410942 -1.743632,1.739675 c -0.958997,0.956822 -1.759768,1.738509 -1.77949,1.737084 -0.01972,-0.0014 -0.347397,-0.101988 -0.728167,-0.223472 z"
     id="path1837" />
  <path
     style="fill:#757b7c;fill-opacity:1;fill-rule:evenodd;stroke:#757b7c;stroke-width:0.045;stroke-opacity:1"
     d="m 21.670471,27.759615 c -1.66747,-1.677555 -2.040447,-2.070148 -2.368984,-2.493572 -0.499102,-0.643251 -0.60228,-0.918444 -0.64766,-1.727421 -0.05463,-0.973802 -0.200671,-1.34724 -0.752333,-1.92373 -0.569297,-0.594916 -0.719659,-0.906992 -0.508321,-1.055019 0.203113,-0.142266 0.592442,-0.01309 1.0276,0.340938 0.4662,0.379285 0.910795,0.538376 1.675381,0.599508 0.554144,0.04431 0.681185,0.07712 1.062309,0.274415 0.524363,0.27144 1.066128,0.754392 2.96924,2.646909 l 1.839242,1.829001 -1.452937,1.451601 c -0.799116,0.798381 -1.454007,1.451601 -1.455313,1.451601 -0.0013,0 -0.626007,-0.627404 -1.388224,-1.394231 z"
     id="path2271" />
</svg>
