<svg xmlns="http://www.w3.org/2000/svg" width="100" height="100" viewBox="0 0 32 32"><path d="M16.526 1.391c-.136.102-.238 1.527-.238 3.088 0 2.24.136 3.054.577 3.529.543.611.475.747-1.425 2.647l-2.002 2.036L8.823 8.11C5.837 5.158 3.936 3.529 3.461 3.529 2.273 3.529.678 5.124.678 6.346c0 .916.645 1.697 4.479 5.565l4.513 4.513-4.853 4.853c-2.647 2.647-4.819 5.09-4.819 5.396 0 .882 2.002 2.986 2.85 2.986.475 0 2.308-1.561 5.565-4.819l4.853-4.785 1.256 1.222c.95.916 1.391 1.154 1.663.882.645-.645 1.12 0 1.12 1.493 0 1.357.17 1.629 2.884 4.31l2.884 2.884 2.274-2.308 2.308-2.274-2.884-2.884c-2.545-2.579-3.02-2.884-4.106-2.884-1.425 0-2.24-.645-1.595-1.29.305-.305.136-.713-.814-1.697l-1.222-1.256 2.002-2.036 2.002-2.002 1.256 1.222c.814.78 1.968 1.425 3.088 1.765l1.799.509 2.409-2.375 2.409-2.409-9.773-9.773h-2.749c-1.493 0-2.85.102-2.952.238zm9.603 5.362 4.242 4.242-1.731 1.731-1.765 1.731-1.29-.407c-.916-.271-2.375-1.459-4.785-3.835l-3.495-3.461V2.512h4.581l4.242 4.242zm-15.27 5.09 6.923 6.923-1.968 2.104-7.058-7.058C4.887 9.943 1.698 6.618 1.698 6.448c0-.543 1.086-1.561 1.663-1.561.305 0 3.665 3.122 7.499 6.957zm.746 6.515.916.882-4.479 4.547C5.599 26.264 3.325 28.3 3.02 28.3c-.272 0-.848-.339-1.256-.78l-.713-.747 4.479-4.649c2.477-2.545 4.615-4.649 4.785-4.649.204-.034.747.373 1.29.882zm6.923 2.647c.305.271 1.018.509 1.595.509.916 0 1.527.407 3.461 2.375l2.375 2.375-1.459 1.425-1.425 1.459-2.206-2.206c-1.9-1.9-2.206-2.341-2.206-3.427 0-.78-.238-1.425-.679-1.832-.373-.339-.679-.747-.679-.916 0-.441.679-.305 1.222.238z"/><rect width="1.884" height="4.623" x="19.936" y="-5.465" ry=".049" style="fill:#fff;fill-rule:evenodd;stroke:#fff;stroke-width:1.17;stroke-opacity:1" transform="rotate(44.435)"/><path d="M2.572 28.147c-.282-.141-.397-.235-.933-.762l-.61-.601 2.596-2.69C7.3 20.286 9.19 18.39 9.98 17.717c.371-.315.393-.315.857-.001.307.207 1.68 1.462 1.674 1.528-.006.054-5.703 5.79-6.511 6.557-1.71 1.621-2.777 2.507-3.02 2.507-.048 0-.231-.073-.408-.161z" style="fill:#783c09;fill-rule:evenodd;stroke:#783c09;stroke-width:.045;stroke-opacity:1;fill-opacity:1"/><path d="M15.804 15.11c-.262-.189-1.408-1.336-1.475-1.477a.711.711 0 0 1 .004-.567c.077-.15 3.242-3.38 3.417-3.489.192-.119.465-.104.676.036.235.157 1.444 1.382 1.494 1.515.06.158.05.397-.022.537-.092.178-3.296 3.43-3.452 3.504a.614.614 0 0 1-.642-.06z" style="fill:#783c09;fill-opacity:1;fill-rule:evenodd;stroke:#783c09;stroke-width:.045;stroke-opacity:1"/><path d="M10.512 15.563C3.897 8.935 1.69 6.645 1.693 6.408c.003-.235.362-.748.746-1.064.27-.222.717-.46.865-.46.44 0 3.327 2.72 10.368 9.766l4.114 4.117-.117.126-.986 1.055-.869.928z" style="fill:#583a0c;fill-opacity:1;fill-rule:evenodd;stroke:#583a0c;stroke-width:.045;stroke-opacity:1"/><path d="M26.135 14.235c-.833-.265-1.03-.353-1.514-.671-1.098-.723-2.149-1.677-5.323-4.83l-1.99-1.977V2.5h4.596l4.24 4.241 4.242 4.241-1.744 1.74c-.959.957-1.76 1.738-1.78 1.737-.019-.001-.347-.102-.727-.224zM21.67 27.76c-1.667-1.678-2.04-2.07-2.369-2.494-.499-.643-.602-.918-.647-1.727-.055-.974-.2-1.348-.753-1.924-.569-.595-.72-.907-.508-1.055.203-.142.593-.013 1.028.34.466.38.91.54 1.675.6.554.045.681.077 1.062.275.525.271 1.067.754 2.97 2.647l1.839 1.829-1.453 1.451-1.455 1.452c-.002 0-.626-.628-1.389-1.394z" style="fill:#757b7c;fill-opacity:1;fill-rule:evenodd;stroke:#757b7c;stroke-width:.045;stroke-opacity:1"/></svg>