<?xml version="1.0" encoding="UTF-8" standalone="no"?>
<!-- Generated by IcoMoon.io -->

<svg
   version="1.1"
   width="100px"
   height="100px"
   viewBox="0 0 32 32"
   id="svg8"
   sodipodi:docname="defence-osrs.svg"
   inkscape:version="1.1 (c68e22c387, 2021-05-23)"
   xmlns:inkscape="http://www.inkscape.org/namespaces/inkscape"
   xmlns:sodipodi="http://sodipodi.sourceforge.net/DTD/sodipodi-0.dtd"
   xmlns="http://www.w3.org/2000/svg"
   xmlns:svg="http://www.w3.org/2000/svg">
  <defs
     id="defs12" />
  <sodipodi:namedview
     id="namedview10"
     pagecolor="#ffffff"
     bordercolor="#666666"
     borderopacity="1.0"
     inkscape:pageshadow="2"
     inkscape:pageopacity="0.0"
     inkscape:pagecheckerboard="0"
     showgrid="false"
     inkscape:zoom="22.627417"
     inkscape:cx="8.5515726"
     inkscape:cy="16.329747"
     inkscape:window-width="1920"
     inkscape:window-height="1017"
     inkscape:window-x="1912"
     inkscape:window-y="-8"
     inkscape:window-maximized="1"
     inkscape:current-layer="svg8" />
  <title
     id="title2">defence-osrs</title>
  <path
     d="M1.548 11.665v11.665l9.222 8.671h10.563l4.576-4.335 4.542-4.335v-23.329h-28.903v11.665zM29.006 12.249l0.069 10.323-8.533 8.052h-9.084l-4.095-3.854-4.095-3.888v-21.161l12.834 0.069 12.8 0.103 0.103 10.357z"
     id="path4" />
  <path
     d="M13.247 8.602v3.441h-7.226v5.505h7.226v8.258h5.505v-8.258h7.226v-5.505h-7.226v-6.882h-5.505v3.441zM17.72 9.531v3.372l7.226-0.206v3.819h-7.226v8.258h-3.441v-8.258h-7.226v-1.927c0-1.858 0.034-1.892 0.963-1.858 0.516 0.034 2.133 0.069 3.613 0.034l2.649-0.034v-6.538h3.441v3.338z"
     id="path6" />
  <path
     style="fill:#000000;fill-opacity:1;fill-rule:evenodd;stroke:#000004;stroke-width:0.0365625;stroke-opacity:1"
     d="m 14.211121,6.1162109 c -0.07105,0.2716476 -0.009,0.5705911 -0.02985,0.8525391 0,1.8817952 0,3.763591 0,5.645386 -2.217208,0.06805 -4.4360545,0.02201 -6.653564,0.02997 -0.3252165,-0.01764 -0.5173804,0.311126 -0.5300904,0.599548 -0.078744,1.088178 -0.032146,2.181441 -0.05072,3.271668 0.066752,0.187229 0.3235763,0.06609 0.4747306,0.101103 2.2532147,0.0049 4.5064298,0.0099 6.7596438,0.0148 0,2.716674 0,5.433349 0,8.150024 0.0673,0.186942 0.32374,0.0653 0.474976,0.09998 1.0297,-0.0079 2.0656,0.01577 3.091424,-0.01183 0.146653,-0.101125 0.0374,-0.33803 0.07105,-0.494394 0,-2.581258 0,-5.162516 0,-7.743774 2.378214,-0.0052 4.756429,-0.0104 7.134643,-0.01563 0.1862,-0.06758 0.0661,-0.323425 0.101331,-0.474545 -0.0055,-1.151883 0.03345,-2.306379 -0.0146,-3.456791 -0.11279,-0.147759 -0.33827,-0.0392 -0.498638,-0.06932 -2.241235,0.04557 -4.482479,0.09884 -6.722736,0.179735 0,-2.202393 0,-4.4047855 0,-6.607178 -0.0673,-0.1869423 -0.32374,-0.065304 -0.474976,-0.099976 -1.0297,0.00788 -2.0656,-0.015767 -3.091424,0.011831 l -0.02892,0.011831 z"
     id="path12531" />
  <path
     style="fill:#929a95;fill-opacity:1;fill-rule:evenodd;stroke:#929a95;stroke-width:0.0517072;stroke-opacity:1"
     d="m 3.1962228,1.6565047 c -0.060186,0.7640149 -0.0082,1.5489155 -0.025197,2.3209708 0.00197,6.3124015 0.00388,12.6248025 0.00578,18.9372035 0.3865296,0.46551 0.8854891,0.852425 1.3155354,1.287514 2.2875723,2.163504 4.575284,4.326862 6.8631488,6.490057 0.704805,0.0638 1.432288,0.0094 2.145834,0.02764 2.357023,3.11e-4 4.714045,6.23e-4 7.071068,9.34e-4 0.566655,-0.448051 1.068654,-0.997397 1.610391,-1.484487 2.325127,-2.197616 4.65029,-4.395193 6.975449,-6.592775 0.0696,-0.58631 0.0027,-1.19999 0.01944,-1.796902 C 29.129019,14.552352 29.099351,8.2575015 28.98568,1.9640096 28.973569,1.6954669 28.614067,1.8343268 28.440623,1.7911623 22.325681,1.7054181 16.209889,1.6888273 10.094577,1.6441642 7.8198652,1.6306617 5.5451285,1.619652 3.2703689,1.6235317 l -0.040381,0.017958 z M 15.998291,5.2707594 c 0.879999,0 1.759998,0 2.639998,0 0,2.2647498 0,4.5295002 0,6.7942496 0.154162,0.213047 0.521995,0.04797 0.762953,0.100041 2.161631,0 4.323261,0 6.484891,0 0,1.759999 0,3.519997 0,5.279996 -2.382601,0 -4.765202,0 -7.147803,0 -0.213047,0.154162 -0.04797,0.521995 -0.100041,0.762954 0,2.500452 0,5.000904 0,7.501356 -1.759999,0 -3.519997,0 -5.279996,0 0,-2.721423 0,-5.442846 0,-8.164269 -0.154162,-0.213047 -0.521995,-0.04797 -0.762953,-0.100041 -2.161631,0 -4.3232611,0 -6.4848913,0 0,-1.759999 0,-3.519997 0,-5.279996 2.3826011,0 4.7652023,0 7.1478033,0 0.213047,-0.154162 0.04797,-0.521995 0.100041,-0.762953 0,-2.0437792 0,-4.0875586 0,-6.1313376 0.879999,0 1.759999,0 2.639998,0 z"
     id="path12648" />
</svg>
