<svg xmlns="http://www.w3.org/2000/svg" width="100" height="100" viewBox="0 0 32 32"><path d="M1.548 11.665V23.33l9.222 8.671h10.563l4.576-4.335 4.542-4.335V.002H1.548v11.665zm27.458.584.069 10.323-8.533 8.052h-9.084L7.363 26.77l-4.095-3.888V1.721l12.834.069 12.8.103.103 10.357z"/><path d="M13.247 8.602v3.441H6.021v5.505h7.226v8.258h5.505v-8.258h7.226v-5.505h-7.226V5.161h-5.505v3.441zm4.473.929v3.372l7.226-.206v3.819H17.72v8.258h-3.441v-8.258H7.053v-1.927c0-1.858.034-1.892.963-1.858.516.034 2.133.069 3.613.034l2.649-.034V6.193h3.441v3.338z"/><path d="M14.211 6.116c-.07.272-.009.57-.03.853v5.645c-2.217.068-4.436.022-6.653.03-.326-.018-.518.311-.53.6-.08 1.088-.033 2.181-.051 3.271.067.188.323.066.475.101l6.76.015v8.15c.067.187.323.066.474.1 1.03-.008 2.066.016 3.092-.012.146-.1.037-.338.07-.494v-7.744l7.135-.015c.187-.068.066-.324.102-.475-.006-1.152.033-2.306-.015-3.457-.113-.147-.338-.039-.499-.07-2.24.047-4.482.1-6.722.18V6.189c-.068-.187-.324-.066-.475-.1-1.03.007-2.066-.016-3.092.011l-.029.012z" style="fill:#000;fill-opacity:1;fill-rule:evenodd;stroke:#000004;stroke-width:.0365625;stroke-opacity:1"/><path d="M3.196 1.657c-.06.764-.008 1.548-.025 2.32l.006 18.938c.386.465.885.852 1.315 1.287l6.863 6.49c.705.064 1.433.01 2.146.028h7.071c.567-.447 1.069-.997 1.61-1.484l6.976-6.592c.07-.587.003-1.2.02-1.797-.049-6.295-.079-12.59-.192-18.883-.012-.269-.372-.13-.545-.173-6.115-.086-12.231-.102-18.346-.147-2.275-.013-4.55-.024-6.825-.02l-.04.017zM15.998 5.27h2.64v6.794c.154.213.522.048.763.1h6.485v5.28h-7.148c-.213.154-.048.522-.1.763v7.501h-5.28v-8.164c-.154-.213-.522-.048-.763-.1H6.11v-5.28h7.148c.213-.154.048-.522.1-.763V5.271h2.64z" style="fill:#929a95;fill-opacity:1;fill-rule:evenodd;stroke:#929a95;stroke-width:.0517072;stroke-opacity:1"/></svg>