<?xml version="1.0" encoding="UTF-8" standalone="no"?>
<!-- Generated by IcoMoon.io -->

<svg
   version="1.1"
   width="100px"
   height="100px"
   viewBox="0 0 32 32"
   id="svg8"
   sodipodi:docname="farming-osrs.svg"
   inkscape:version="1.1 (c68e22c387, 2021-05-23)"
   xmlns:inkscape="http://www.inkscape.org/namespaces/inkscape"
   xmlns:sodipodi="http://sodipodi.sourceforge.net/DTD/sodipodi-0.dtd"
   xmlns="http://www.w3.org/2000/svg"
   xmlns:svg="http://www.w3.org/2000/svg">
  <defs
     id="defs12">
    <inkscape:path-effect
       effect="spiro"
       id="path-effect971"
       is_visible="true"
       lpeversion="1" />
  </defs>
  <sodipodi:namedview
     id="namedview10"
     pagecolor="#ffffff"
     bordercolor="#666666"
     borderopacity="1.0"
     inkscape:pageshadow="2"
     inkscape:pageopacity="0.0"
     inkscape:pagecheckerboard="0"
     showgrid="false"
     inkscape:zoom="13"
     inkscape:cx="1.5"
     inkscape:cy="9.5"
     inkscape:window-width="1920"
     inkscape:window-height="1017"
     inkscape:window-x="1912"
     inkscape:window-y="-8"
     inkscape:window-maximized="1"
     inkscape:current-layer="svg8" />
  <title
     id="title2">farming-osrs</title>
  <path
     d="M14.946 1.714c-0.758 0.379-2.171 1.344-3.135 2.239-2.239 1.964-2.653 3.307-2.446 7.89 0.103 1.826 0.069 3.342-0.069 3.342-0.586 0-1.929-3.066-2.102-4.789-0.138-1.516-0.345-1.998-1.102-2.549l-0.93-0.689-1.964 0.999c-3.893 1.998-4.238 4.065-0.999 5.478 1.86 0.827 1.895 0.896 3.652 4.548 0.999 2.067 2.205 4.134 2.687 4.686 0.758 0.827 0.861 1.206 0.827 3.376l-0.034 2.446 1.447 0.655c5.512 2.446 11.852 2.033 15.331-0.93 1.206-1.034 1.413-1.413 1.413-2.584 0-1.309 0.034-1.344 1.447-1.55 0.792-0.138 1.792-0.586 2.239-1.034 0.689-0.689 0.792-1.137 0.792-3.48 0-3.239-0.413-3.962-2.791-4.996l-1.688-0.758v-2.791c0-1.516-0.138-2.928-0.31-3.135-0.172-0.172-0.379-1.309-0.448-2.515-0.138-1.998-0.276-2.308-1.275-3.17-1.378-1.137-2.377-1.344-6.201-1.344-2.171 0-3.342 0.172-4.341 0.655zM24.455 3.403c0.827 0.758 1.102 1.309 1.24 2.618 0.172 1.516 0.138 1.688-0.379 1.481-0.345-0.138-0.758-0.241-0.93-0.241s-0.31-0.517-0.31-1.171c0-1.895-1.102-2.515-4.582-2.584l-2.86-0.069-1.792 1.447c-0.999 0.758-1.964 1.688-2.136 2.033-0.413 0.758-0.482 4.858-0.069 4.754 0.138-0.034 1.102 0.138 2.171 0.379 2.549 0.62 7.683 0.379 9.199-0.413 1.378-0.758 1.516-1.998 0.241-2.584-1.792-0.827-5.547-1.171-8.131-0.758-1.378 0.207-2.653 0.448-2.86 0.551s-0.103-0.034 0.276-0.345c1.447-1.171 7.442-1.171 10.887 0l1.895 0.655v2.067c0 1.481-0.138 2.033-0.413 1.964-0.861-0.138-0.413 0.241 1.895 1.654 1.275 0.792 2.515 1.688 2.756 1.998s0.413 1.516 0.413 2.86c0 2.102-0.103 2.412-0.896 3.032-0.482 0.379-1.688 0.861-2.722 1.102-1.55 0.345-1.757 0.482-1.378 0.896 1.206 1.171-0.689 3.445-3.721 4.444-2.171 0.724-6.856 0.517-9.543-0.413l-1.895-0.655-0.103-2.549c-0.103-2.239-0.207-2.618-0.965-3.204-0.448-0.379-1.585-2.239-2.515-4.169-1.998-4.272-2.653-5.099-4.375-5.581-1.792-0.482-1.86-1.688-0.172-2.825 2.481-1.688 3.618-1.378 3.376 0.93-0.172 1.447 0.724 3.411 2.377 5.271 0.93 0.999 1.171 1.585 1.171 2.618 0 0.758 0.138 1.447 0.31 1.55 0.517 0.345 0.724-1.757 0.724-7.338 0-3.618 0.138-5.65 0.448-6.236 0.241-0.482 1.413-1.585 2.584-2.515l2.171-1.619h3.755c3.652 0 3.824 0.034 4.858 0.965zM23.318 9.535c0.586 0.241 1.102 0.586 1.102 0.792 0 0.999-5.926 1.723-9.027 1.102-3.652-0.758-3.17-2.033 0.93-2.412 2.687-0.276 5.581-0.069 6.994 0.517z"
     id="path4" />
  <path
     d="M25.11 15.392c0 0.138 0.207 0.413 0.482 0.62 0.31 0.241 0.551 1.309 0.655 3.066 0.103 2.377 0.069 2.722-0.517 3.032-1.068 0.551-0.482 0.724 1.034 0.31 2.618-0.689 3.652-3.307 1.998-4.996-0.861-0.861-3.652-2.412-3.652-2.033z"
     id="path6" />
  <path
     style="fill:#525eff;fill-opacity:1;fill-rule:evenodd;stroke:#525eff;stroke-width:0;stroke-miterlimit:4;stroke-dasharray:none;stroke-opacity:1"
     d="m 18.62062,8.7960217 c -1.251156,0.01057 -2.5056,0.091814 -3.738417,0.3125547 -0.559346,0.1120599 -1.130566,0.2389962 -1.629285,0.5271194 -0.21318,0.1278156 -0.440578,0.3289108 -0.425161,0.6010722 0.017,0.234437 0.209894,0.401535 0.382397,0.536996 0.515052,0.336097 1.117248,0.502733 1.707418,0.653007 0.995301,0.247293 2.025021,0.322008 3.047731,0.332932 1.434963,0.0088 2.873585,-0.09343 4.285994,-0.352131 0.607511,-0.121242 1.223889,-0.252888 1.782605,-0.529511 0.201143,-0.108149 0.427841,-0.250893 0.481886,-0.489349 0.03292,-0.211851 -0.155733,-0.363289 -0.304482,-0.4783145 C 23.49479,9.3855779 22.612462,9.1647605 21.750515,9.0176566 20.717026,8.8473501 19.666993,8.7923697 18.62062,8.7960217 Z"
     id="path2421" />
  <path
     style="fill:#726c65;fill-opacity:1;fill-rule:evenodd;stroke:#726c65;stroke-width:0;stroke-miterlimit:4;stroke-dasharray:none;stroke-opacity:1"
     d="m 15.828876,2.3756761 c -1.624251,1.2263596 -3.342496,2.3845227 -4.655132,3.9614381 -0.397372,0.5505627 -0.384792,1.27061 -0.460013,1.9170681 -0.197686,3.1797517 -0.101875,6.3689987 -0.235612,9.5505347 -0.07209,0.735037 -0.07657,1.494625 -0.324423,2.19025 -0.05648,0.192658 -0.2974133,0.07245 -0.3094952,-0.08398 -0.322372,-0.957892 0.00629,-2.088869 -0.5921727,-2.97183 C 8.7006781,16.09448 7.9452969,15.405015 7.4050346,14.550742 6.7569242,13.570617 6.1830038,12.472103 6.1191408,11.282527 6.0797308,10.696679 6.1849362,10.098709 6.0836088,9.5160758 5.9965638,9.0384773 5.5814777,8.615485 5.0751202,8.6423527 4.3548543,8.7061735 3.7090889,9.09053 3.0937028,9.4424592 2.48153,9.8387285 1.8207834,10.275787 1.498723,10.955829 c -0.161098,0.378161 -0.099392,0.850326 0.226262,1.123573 0.5977238,0.58203 1.5022036,0.588411 2.1868075,1.025976 0.7989928,0.490803 1.3027945,1.32504 1.7600075,2.113973 1.2218631,2.220684 2.1429731,4.615909 3.6252612,6.68704 0.3343446,0.51196 0.9621688,0.832205 1.1112918,1.454411 0.247579,0.970348 0.199561,1.991636 0.271642,2.989033 0.03498,0.591968 0.0334,1.188706 0.09863,1.777569 0.415533,0.206151 0.88522,0.318402 1.322229,0.483688 1.083424,0.399987 2.209161,0.674126 3.353899,0.825465 1.15436,0.162209 2.320325,0.256618 3.486507,0.205721 1.291254,0.0035 2.608209,-0.10571 3.816632,-0.59375 1.209821,-0.494412 2.401903,-1.189605 3.18457,-2.262846 0.380547,-0.521633 0.64181,-1.277722 0.251953,-1.866587 -0.08948,-0.17912 -0.354752,-0.319868 -0.308143,-0.539438 0.355192,-0.254254 0.816546,-0.302882 1.226262,-0.430438 1.108135,-0.283824 2.257722,-0.603966 3.172626,-1.320989 0.496744,-0.391951 0.716894,-1.035383 0.692383,-1.653846 0.01352,-0.999048 0.05441,-2.004829 -0.05309,-2.999712 -0.07467,-0.525467 -0.160022,-1.129649 -0.631479,-1.457995 -1.414842,-1.177196 -3.072221,-2.010917 -4.547026,-3.101412 -0.04268,-0.04778 -0.280039,-0.197375 -0.09706,-0.179913 0.184757,-0.0014 0.463644,0.0607 0.53403,-0.185923 0.208667,-0.508599 0.121714,-1.080251 0.153893,-1.616656 0.0034,-0.765321 9.42e-4,-1.5306538 0.0017,-2.2959792 C 26.066723,8.9596396 25.703278,8.9049431 25.396233,8.77491 23.950423,8.2489562 22.450692,7.8624881 20.916509,7.7159435 19.44068,7.5448181 17.947863,7.5567396 16.466271,7.63614 c -1.019688,0.1188692 -2.110277,0.226465 -2.974159,0.8333612 -0.12823,0.1271692 -0.358376,0.227613 -0.386794,0.4193211 0.107312,0.1122539 0.277246,-0.063313 0.410824,-0.054117 1.764789,-0.3777792 3.556445,-0.7069265 5.368307,-0.647455 1.656134,0.048198 3.339995,0.2115992 4.912501,0.7488227 0.484,0.1849508 1.072822,0.4364131 1.225812,0.9858023 0.0985,0.4286697 -0.07291,0.8727707 -0.394832,1.1651887 -0.720311,0.738455 -1.801536,0.884503 -2.769464,1.03896 -2.04652,0.263236 -4.136941,0.288776 -6.18584,0.02069 -1.011971,-0.161495 -2.009828,-0.424118 -3.027344,-0.559871 -0.154786,-0.09042 -0.125557,-0.322721 -0.163085,-0.475511 -0.07771,-1.095395 -0.04962,-2.2067085 0.06521,-3.2986465 0.05677,-0.4487108 0.146676,-0.9313931 0.509145,-1.2478997 1.013945,-1.0878348 2.246285,-1.9474227 3.385132,-2.8993633 0.201627,-0.2656317 0.538405,-0.1322832 0.823229,-0.152309 1.456441,0.059997 2.927209,0.00816 4.369769,0.2190526 0.745055,0.1257183 1.562187,0.3346511 2.030058,0.9831327 0.510273,0.7189199 0.224193,1.6621347 0.532302,2.4465893 0.127305,0.2252754 0.448212,0.1548416 0.653095,0.2551835 0.274878,0.054321 0.549575,0.2267235 0.832557,0.1875 C 25.9388,7.38341 25.827297,6.98411 25.819416,6.68969 25.718757,5.7332561 25.675734,4.6667203 25.006611,3.906851 24.424427,3.2420553 23.713358,2.5601889 22.787685,2.4755924 21.419336,2.3557749 20.042163,2.409927 18.670079,2.3824782 c -0.946484,0.00117 -1.897385,-0.024838 -2.841203,-0.0068 z m 9.387696,13.0193809 c 0.67344,0.165599 1.267035,0.557336 1.866162,0.893619 0.677847,0.440225 1.420257,0.841066 1.90705,1.504593 0.296608,0.421086 0.522834,0.920732 0.478809,1.449969 0.04169,0.456525 -0.07292,0.907001 -0.294592,1.30589 -0.549461,1.058604 -1.687051,1.692204 -2.824579,1.908166 -0.35313,0.05649 -0.728355,0.188584 -1.083046,0.09784 0.02561,-0.136038 0.211172,-0.210136 0.315505,-0.293495 0.311481,-0.164768 0.656224,-0.392824 0.694411,-0.7817 0.152131,-0.946245 0.04187,-1.910844 -0.01045,-2.861387 -0.08343,-0.807236 -0.115612,-1.65263 -0.460475,-2.400557 -0.161744,-0.307907 -0.533943,-0.484074 -0.63499,-0.821289 0.01511,-0.0034 0.03087,-0.0026 0.0462,-0.0017 z"
     id="path2577" />
</svg>
