<svg xmlns="http://www.w3.org/2000/svg" width="100" height="100" viewBox="0 0 32 32"><path d="M14.946 1.714c-.758.379-2.171 1.344-3.135 2.239-2.239 1.964-2.653 3.307-2.446 7.89.103 1.826.069 3.342-.069 3.342-.586 0-1.929-3.066-2.102-4.789-.138-1.516-.345-1.998-1.102-2.549l-.93-.689-1.964.999c-3.893 1.998-4.238 4.065-.999 5.478 1.86.827 1.895.896 3.652 4.548.999 2.067 2.205 4.134 2.687 4.686.758.827.861 1.206.827 3.376l-.034 2.446 1.447.655c5.512 2.446 11.852 2.033 15.331-.93 1.206-1.034 1.413-1.413 1.413-2.584 0-1.309.034-1.344 1.447-1.55.792-.138 1.792-.586 2.239-1.034.689-.689.792-1.137.792-3.48 0-3.239-.413-3.962-2.791-4.996l-1.688-.758v-2.791c0-1.516-.138-2.928-.31-3.135-.172-.172-.379-1.309-.448-2.515-.138-1.998-.276-2.308-1.275-3.17-1.378-1.137-2.377-1.344-6.201-1.344-2.171 0-3.342.172-4.341.655zm9.509 1.689c.827.758 1.102 1.309 1.24 2.618.172 1.516.138 1.688-.379 1.481-.345-.138-.758-.241-.93-.241s-.31-.517-.31-1.171c0-1.895-1.102-2.515-4.582-2.584l-2.86-.069-1.792 1.447c-.999.758-1.964 1.688-2.136 2.033-.413.758-.482 4.858-.069 4.754.138-.034 1.102.138 2.171.379 2.549.62 7.683.379 9.199-.413 1.378-.758 1.516-1.998.241-2.584-1.792-.827-5.547-1.171-8.131-.758-1.378.207-2.653.448-2.86.551s-.103-.034.276-.345c1.447-1.171 7.442-1.171 10.887 0l1.895.655v2.067c0 1.481-.138 2.033-.413 1.964-.861-.138-.413.241 1.895 1.654 1.275.792 2.515 1.688 2.756 1.998s.413 1.516.413 2.86c0 2.102-.103 2.412-.896 3.032-.482.379-1.688.861-2.722 1.102-1.55.345-1.757.482-1.378.896 1.206 1.171-.689 3.445-3.721 4.444-2.171.724-6.856.517-9.543-.413l-1.895-.655-.103-2.549c-.103-2.239-.207-2.618-.965-3.204-.448-.379-1.585-2.239-2.515-4.169-1.998-4.272-2.653-5.099-4.375-5.581-1.792-.482-1.86-1.688-.172-2.825 2.481-1.688 3.618-1.378 3.376.93-.172 1.447.724 3.411 2.377 5.271.93.999 1.171 1.585 1.171 2.618 0 .758.138 1.447.31 1.55.517.345.724-1.757.724-7.338 0-3.618.138-5.65.448-6.236.241-.482 1.413-1.585 2.584-2.515l2.171-1.619h3.755c3.652 0 3.824.034 4.858.965zm-1.137 6.132c.586.241 1.102.586 1.102.792 0 .999-5.926 1.723-9.027 1.102-3.652-.758-3.17-2.033.93-2.412 2.687-.276 5.581-.069 6.994.517z"/><path d="M25.11 15.392c0 .138.207.413.482.62.31.241.551 1.309.655 3.066.103 2.377.069 2.722-.517 3.032-1.068.551-.482.724 1.034.31 2.618-.689 3.652-3.307 1.998-4.996-.861-.861-3.652-2.412-3.652-2.033z"/><path d="M18.62 8.796c-1.25.01-2.505.092-3.738.313-.56.112-1.13.239-1.63.527-.212.128-.44.329-.424.6.017.235.21.402.382.538.515.336 1.117.502 1.708.653.995.247 2.025.322 3.047.333a23.014 23.014 0 0 0 4.286-.352c.608-.122 1.224-.253 1.783-.53.201-.108.428-.25.482-.49.033-.211-.156-.363-.305-.478-.716-.524-1.599-.745-2.46-.892-1.034-.17-2.084-.226-3.13-.222Z" style="fill:#525eff;fill-opacity:1;fill-rule:evenodd;stroke:#525eff;stroke-width:0;stroke-miterlimit:4;stroke-dasharray:none;stroke-opacity:1"/><path d="M15.829 2.376c-1.624 1.226-3.343 2.384-4.655 3.961-.398.55-.385 1.27-.46 1.917-.198 3.18-.102 6.37-.236 9.55-.072.736-.076 1.495-.324 2.191-.057.193-.298.072-.31-.084-.322-.958.006-2.089-.592-2.972-.551-.845-1.307-1.534-1.847-2.388-.648-.98-1.222-2.079-1.286-3.268-.04-.586.066-1.184-.035-1.767-.087-.478-.503-.9-1.009-.874-.72.064-1.366.449-1.981.8-.612.397-1.273.834-1.595 1.514-.161.378-.1.85.226 1.123.598.582 1.502.589 2.187 1.026.799.491 1.303 1.325 1.76 2.114 1.222 2.221 2.143 4.616 3.625 6.687.334.512.962.833 1.111 1.455.248.97.2 1.991.272 2.989.035.592.033 1.189.099 1.777.415.207.885.319 1.322.484 1.083.4 2.209.674 3.354.826 1.154.162 2.32.256 3.486.205 1.292.004 2.608-.105 3.817-.593 1.21-.495 2.402-1.19 3.184-2.263.381-.522.642-1.278.252-1.867-.09-.179-.354-.32-.308-.54.355-.254.817-.302 1.227-.43 1.108-.284 2.257-.604 3.172-1.32.497-.393.717-1.036.693-1.655.013-.999.054-2.004-.054-3-.074-.525-.16-1.129-.631-1.457-1.415-1.178-3.072-2.011-4.547-3.102-.043-.048-.28-.197-.097-.18.185-.001.464.061.534-.186.209-.508.122-1.08.154-1.616.003-.766 0-1.53.002-2.296-.272-.177-.636-.232-.943-.362-1.446-.526-2.945-.913-4.48-1.06-1.475-.17-2.968-.158-4.45-.079-1.02.119-2.11.227-2.974.834-.128.127-.358.227-.387.419.108.112.278-.063.411-.054 1.765-.378 3.557-.707 5.368-.648 1.657.048 3.34.212 4.913.75.484.184 1.073.435 1.226.985.098.429-.073.873-.395 1.165-.72.739-1.802.885-2.77 1.039-2.046.263-4.136.289-6.185.02-1.012-.16-2.01-.423-3.028-.56-.155-.09-.125-.322-.163-.475a18.878 18.878 0 0 1 .065-3.298c.057-.449.147-.932.51-1.248 1.013-1.088 2.246-1.948 3.385-2.9.201-.265.538-.132.823-.152 1.456.06 2.927.008 4.37.22.745.125 1.562.334 2.03.982.51.72.224 1.662.532 2.447.127.225.448.155.653.255.275.054.55.227.833.188.256-.222.144-.62.136-.915-.1-.957-.143-2.023-.812-2.783-.583-.665-1.294-1.347-2.22-1.431-1.368-.12-2.745-.066-4.117-.094-.946.002-1.897-.024-2.841-.006zm9.388 13.02c.673.165 1.267.556 1.866.893.678.44 1.42.84 1.907 1.504.296.421.523.921.479 1.45.041.457-.073.907-.295 1.306-.55 1.059-1.687 1.692-2.825 1.908-.353.057-.728.189-1.083.098.026-.136.212-.21.316-.293.311-.165.656-.393.694-.782.152-.946.042-1.91-.01-2.861-.084-.808-.116-1.653-.46-2.401-.162-.308-.535-.484-.636-.821a.166.166 0 0 1 .047-.002z" style="fill:#726c65;fill-opacity:1;fill-rule:evenodd;stroke:#726c65;stroke-width:0;stroke-miterlimit:4;stroke-dasharray:none;stroke-opacity:1"/></svg>