<svg xmlns="http://www.w3.org/2000/svg" width="100" height="100" viewBox="0 0 32 32"><path d="M13.811.655c.642 1.487.541 2.67-.406 4.462-.507 1.014-1.115 1.893-1.284 1.927-.203.068-.575-.372-.845-.98-.676-1.453-2.569-2.366-4.225-2.062-1.115.203-1.217.304-1.014 1.048.135.575-.237 1.656-1.318 3.752-.811 1.622-1.724 3.785-2.028 4.766-.744 2.467-.744 7.368 0 8.416.642.946.135 1.758-1.082 1.758-.946 0-1.217.406-1.521 2.366-.304 1.893.203 4.326 1.082 5.273.608.676.744.676 4.259.237 3.278-.439 11.999-.439 23.22 0 1.825.068 2.028 0 2.67-.879.575-.744.71-1.386.676-3.245-.034-2.636-.473-3.752-1.487-3.752-.372 0-.913-.237-1.183-.507-.473-.439-.473-.575 0-1.048.845-.845.946-1.758.575-6.388-.473-6.354-1.96-9.7-4.901-11.12-1.386-.642-3.245-.744-2.636-.135.575.575.507 2.163-.169 3.414l-.541 1.082-.575-1.859c-.744-2.4-1.758-4.394-2.772-5.273C17.191.86 15.501.083 14.453.083c-.71 0-.845.101-.642.575zm3.786 2.569c.744.811 1.622 2.231 1.893 3.143.642 1.893 1.251 5.678 1.251 7.808 0 2.163.541 1.758.811-.575.135-1.183.642-2.772 1.217-3.853.507-1.014 1.048-2.298 1.183-2.873.27-1.284.507-1.284 1.69-.135 1.352 1.352 2.467 3.988 2.873 6.861.507 3.481.169 5.915-.946 6.76-1.555 1.217-4.293.676-5.746-1.149l-.642-.845-.811.879c-2.197 2.366-6.084 2.366-8.686 0l-.744-.71-.575.777c-1.149 1.656-4.597 2.298-5.847 1.048-.913-.913-1.149-2.028-.913-4.63.135-1.758.507-2.839 1.893-5.577.946-1.859 1.724-3.752 1.724-4.191 0-.879.473-1.014 1.791-.507s1.927 2.569 1.96 6.557c.034 3.718-.034 3.819 1.183-1.183.237-1.082.98-2.738 1.656-3.752.642-.98 1.386-2.569 1.589-3.549.237-.98.541-1.758.642-1.758.135 0 .811.642 1.555 1.453zm-3.684 18.048 1.656.913 1.994-.777c2.873-1.115 3.617-1.217 4.259-.473.27.338.642.946.744 1.352.237.744.169.777-2.062.811l-2.298.034 1.183.507c.744.338 2.772.642 5.475.811 2.332.135 4.563.338 4.935.439 1.115.372 1.42 2.772.608 4.732l-.473 1.115-2.467-.304c-2.163-.237-3.481-.744-10.005-3.887-7.977-3.819-8.315-4.056-6.861-5.509.879-.879 1.386-.845 3.312.237zm-2.062 3.989c1.284.507 2.434 1.014 2.569 1.149.473.473-6.929 3.684-9.092 3.921-1.115.135-2.265.304-2.603.406-.879.237-1.724-1.994-1.453-3.921.101-.811.27-1.589.372-1.69.304-.304 2.974-.608 5.475-.676 1.893-.034 2.974.169 4.732.811z"/><path d="M11.7 20.373c-.623.005-1.035.55-1.434.953-.253.271-.529.674-.316 1.048.349.577.984.894 1.536 1.245 1.55.865 3.154 1.628 4.751 2.402 2.583 1.22 5.136 2.511 7.783 3.587 1.14.467 2.343.768 3.568.899.787.093 1.57.22 2.361.274.188-.262.27-.614.413-.913.36-.83.584-1.728.546-2.638.003-.812-.168-1.735-.843-2.265-.367-.244-.84-.185-1.256-.265-2.825-.322-5.694-.28-8.487-.85-.63-.132-1.218-.395-1.807-.649 1.245-.079 2.497-.003 3.738-.136.22-.013.486-.153.445-.413-.071-.642-.44-1.212-.815-1.723-.268-.385-.746-.549-1.202-.512-.975.068-1.88.49-2.792.807-.777.28-1.541.624-2.323.873-1.089-.53-2.105-1.235-3.255-1.639a1.934 1.934 0 0 0-.61-.084z" style="fill:#583a0c;fill-rule:evenodd;stroke:#726c65;stroke-width:0;fill-opacity:1"/><path d="M7.432 24.39c-1.687.04-3.379.14-5.043.43-.268.084-.636.07-.812.324-.236.577-.306 1.212-.375 1.828-.086 1.125.046 2.323.645 3.302.202.316.57.64.972.497 1.439-.282 2.923-.346 4.317-.832 2.251-.742 4.453-1.653 6.533-2.792.287-.192.657-.335.828-.651.024-.198-.264-.221-.381-.317-1.849-.87-3.794-1.69-5.865-1.771-.272-.015-.546-.02-.82-.019z" style="fill:#583a0c;fill-opacity:1;fill-rule:evenodd;stroke:#726c65;stroke-width:0"/><path d="M16.04 1.722c-.197.087-.222.36-.314.535-.367 1.068-.575 2.198-1.102 3.2-.49 1.11-1.245 2.077-1.736 3.19-.762 1.568-1.025 3.309-1.485 4.975-.087.303-.167.703-.295.943-.135-1.971.01-3.974-.316-5.936-.175-1.003-.4-2.098-1.154-2.84-.453-.422-1.088-.582-1.684-.676-.3-.056-.64.097-.712.411-.094.44-.154.89-.328 1.31-.829 2.254-2.118 4.307-2.925 6.57-.423 1.258-.486 2.601-.523 3.918-.01 1.03.136 2.158.881 2.934.67.763 1.782.898 2.737.78 1.045-.138 2.11-.494 2.9-1.215.367-.36.653-.79.966-1.196.767.772 1.617 1.492 2.635 1.907 1.933.851 4.33.716 6.046-.563.58-.434 1.06-.98 1.545-1.513.58.791 1.213 1.6 2.12 2.033 1.2.648 2.75.834 3.969.133.847-.436 1.213-1.404 1.376-2.287.293-1.684.131-3.409-.124-5.087-.373-2.167-1.065-4.352-2.442-6.102-.422-.48-.87-.973-1.443-1.274-.254-.12-.489.108-.549.345-.202.627-.364 1.268-.631 1.872-.489 1.257-1.218 2.416-1.569 3.727-.33 1.029-.39 2.114-.64 3.16-.062.185-.11.428-.273.543-.163-.336-.12-.738-.159-1.101a33.65 33.65 0 0 0-1.016-7.244c-.24-1.014-.691-1.965-1.274-2.826-.62-.976-1.452-1.793-2.314-2.554a.325.325 0 0 0-.168-.072z" style="fill:#da5501;fill-opacity:1;fill-rule:evenodd;stroke:#726c65;stroke-width:0"/></svg>