<?xml version="1.0" encoding="UTF-8" standalone="no"?>
<!-- Generated by IcoMoon.io -->

<svg
   version="1.1"
   width="100px"
   height="100px"
   viewBox="0 0 32 32"
   id="svg6"
   sodipodi:docname="firemaking-osrs.svg"
   inkscape:version="1.1 (c68e22c387, 2021-05-23)"
   xmlns:inkscape="http://www.inkscape.org/namespaces/inkscape"
   xmlns:sodipodi="http://sodipodi.sourceforge.net/DTD/sodipodi-0.dtd"
   xmlns="http://www.w3.org/2000/svg"
   xmlns:svg="http://www.w3.org/2000/svg">
  <defs
     id="defs10" />
  <sodipodi:namedview
     id="namedview8"
     pagecolor="#ffffff"
     bordercolor="#666666"
     borderopacity="1.0"
     inkscape:pageshadow="2"
     inkscape:pageopacity="0.0"
     inkscape:pagecheckerboard="0"
     showgrid="false"
     inkscape:zoom="26"
     inkscape:cx="15.25"
     inkscape:cy="10.634615"
     inkscape:window-width="1920"
     inkscape:window-height="1017"
     inkscape:window-x="1912"
     inkscape:window-y="-8"
     inkscape:window-maximized="1"
     inkscape:current-layer="svg6" />
  <title
     id="title2">firemaking-osrs</title>
  <path
     d="M13.811 0.655c0.642 1.487 0.541 2.67-0.406 4.462-0.507 1.014-1.115 1.893-1.284 1.927-0.203 0.068-0.575-0.372-0.845-0.98-0.676-1.453-2.569-2.366-4.225-2.062-1.115 0.203-1.217 0.304-1.014 1.048 0.135 0.575-0.237 1.656-1.318 3.752-0.811 1.622-1.724 3.785-2.028 4.766-0.744 2.467-0.744 7.368 0 8.416 0.642 0.946 0.135 1.758-1.082 1.758-0.946 0-1.217 0.406-1.521 2.366-0.304 1.893 0.203 4.326 1.082 5.273 0.608 0.676 0.744 0.676 4.259 0.237 3.278-0.439 11.999-0.439 23.22 0 1.825 0.068 2.028 0 2.67-0.879 0.575-0.744 0.71-1.386 0.676-3.245-0.034-2.636-0.473-3.752-1.487-3.752-0.372 0-0.913-0.237-1.183-0.507-0.473-0.439-0.473-0.575 0-1.048 0.845-0.845 0.946-1.758 0.575-6.388-0.473-6.354-1.96-9.7-4.901-11.12-1.386-0.642-3.245-0.744-2.636-0.135 0.575 0.575 0.507 2.163-0.169 3.414l-0.541 1.082-0.575-1.859c-0.744-2.4-1.758-4.394-2.772-5.273-1.115-1.048-2.805-1.825-3.853-1.825-0.71 0-0.845 0.101-0.642 0.575zM17.597 3.224c0.744 0.811 1.622 2.231 1.893 3.143 0.642 1.893 1.251 5.678 1.251 7.808 0 2.163 0.541 1.758 0.811-0.575 0.135-1.183 0.642-2.772 1.217-3.853 0.507-1.014 1.048-2.298 1.183-2.873 0.27-1.284 0.507-1.284 1.69-0.135 1.352 1.352 2.467 3.988 2.873 6.861 0.507 3.481 0.169 5.915-0.946 6.76-1.555 1.217-4.293 0.676-5.746-1.149l-0.642-0.845-0.811 0.879c-2.197 2.366-6.084 2.366-8.686 0l-0.744-0.71-0.575 0.777c-1.149 1.656-4.597 2.298-5.847 1.048-0.913-0.913-1.149-2.028-0.913-4.63 0.135-1.758 0.507-2.839 1.893-5.577 0.946-1.859 1.724-3.752 1.724-4.191 0-0.879 0.473-1.014 1.791-0.507s1.927 2.569 1.96 6.557c0.034 3.718-0.034 3.819 1.183-1.183 0.237-1.082 0.98-2.738 1.656-3.752 0.642-0.98 1.386-2.569 1.589-3.549 0.237-0.98 0.541-1.758 0.642-1.758 0.135 0 0.811 0.642 1.555 1.453zM13.913 21.272l1.656 0.913 1.994-0.777c2.873-1.115 3.617-1.217 4.259-0.473 0.27 0.338 0.642 0.946 0.744 1.352 0.237 0.744 0.169 0.777-2.062 0.811l-2.298 0.034 1.183 0.507c0.744 0.338 2.772 0.642 5.475 0.811 2.332 0.135 4.563 0.338 4.935 0.439 1.115 0.372 1.42 2.772 0.608 4.732l-0.473 1.115-2.467-0.304c-2.163-0.237-3.481-0.744-10.005-3.887-7.977-3.819-8.315-4.056-6.861-5.509 0.879-0.879 1.386-0.845 3.312 0.237zM11.851 25.261c1.284 0.507 2.434 1.014 2.569 1.149 0.473 0.473-6.929 3.684-9.092 3.921-1.115 0.135-2.265 0.304-2.603 0.406-0.879 0.237-1.724-1.994-1.453-3.921 0.101-0.811 0.27-1.589 0.372-1.69 0.304-0.304 2.974-0.608 5.475-0.676 1.893-0.034 2.974 0.169 4.732 0.811z"
     id="path4" />
  <path
     style="fill:#583a0c;fill-rule:evenodd;stroke:#726c65;stroke-width:0;fill-opacity:1"
     d="m 11.70012,20.373498 c -0.622628,0.0046 -1.035307,0.550261 -1.433654,0.95243 -0.253144,0.271274 -0.5290795,0.673905 -0.3164209,1.04772 0.3486739,0.577702 0.9842969,0.894262 1.5362829,1.244967 1.549402,0.865678 3.153967,1.628868 4.750885,2.402147 2.582528,1.220286 5.135399,2.511418 7.782999,3.587477 1.140085,0.46713 2.342982,0.76745 3.567827,0.898454 0.786545,0.09327 1.5708,0.220307 2.361104,0.274031 0.188177,-0.261991 0.270248,-0.61345 0.413019,-0.912772 0.359656,-0.830559 0.583399,-1.727644 0.54556,-2.637556 0.0036,-0.812888 -0.167869,-1.735082 -0.842593,-2.265778 -0.366643,-0.243494 -0.84054,-0.18493 -1.256104,-0.264941 -2.825287,-0.322171 -5.694417,-0.279302 -8.48716,-0.84963 -0.630628,-0.131954 -1.218059,-0.395451 -1.806465,-0.64895 1.244541,-0.07877 2.496884,-0.0033 3.737547,-0.136345 0.220516,-0.01243 0.4863,-0.152499 0.445521,-0.412258 -0.07187,-0.642987 -0.440758,-1.212505 -0.815055,-1.723332 -0.268621,-0.385149 -0.746797,-0.549063 -1.202298,-0.512095 -0.975481,0.06777 -1.879921,0.489089 -2.792278,0.806658 -0.776409,0.280583 -1.541211,0.624208 -2.322431,0.87288 -1.089287,-0.529071 -2.105755,-1.234371 -3.255816,-1.638302 -0.197412,-0.06024 -0.404042,-0.08984 -0.61047,-0.0848 z"
     id="path864" />
  <path
     style="fill:#583a0c;fill-opacity:1;fill-rule:evenodd;stroke:#726c65;stroke-width:0"
     d="m 7.4319412,24.389423 c -1.6865016,0.04062 -3.378899,0.141256 -5.0429177,0.430041 -0.2681984,0.0843 -0.6355914,0.06969 -0.8119502,0.324241 -0.2362964,0.577298 -0.3061397,1.212227 -0.3747097,1.82861 -0.085864,1.124379 0.046015,2.322678 0.6443161,3.301273 0.2024063,0.316459 0.5704246,0.639894 0.9723596,0.497482 1.4387173,-0.281792 2.9229403,-0.345842 4.3172538,-0.832403 2.2508381,-0.741754 4.4526369,-1.652988 6.5326969,-2.791631 0.287282,-0.191538 0.656961,-0.335313 0.82763,-0.651393 0.02443,-0.197977 -0.263813,-0.220882 -0.380977,-0.316228 -1.848511,-0.87117 -3.79358,-1.690531 -5.8642411,-1.771812 -0.2729007,-0.01426 -0.5462092,-0.01927 -0.8194607,-0.01818 z"
     id="path1014" />
  <path
     style="fill:#da5501;fill-opacity:1;fill-rule:evenodd;stroke:#726c65;stroke-width:0"
     d="m 16.039213,1.7222806 c -0.196306,0.087042 -0.221056,0.3601414 -0.312951,0.53433 -0.367457,1.0679669 -0.575236,2.1983929 -1.10204,3.2011215 -0.490504,1.1099483 -1.245322,2.0767471 -1.736398,3.1896887 -0.762314,1.5675352 -1.024329,3.3081512 -1.484396,4.9748052 -0.08724,0.30305 -0.16738,0.70261 -0.295105,0.942603 -0.134872,-1.971105 0.0102,-3.974259 -0.316481,-5.9359875 C 10.617361,7.6260262 10.392577,6.5312331 9.6379958,5.7895885 9.1845227,5.3666641 8.5501765,5.2070114 7.9540265,5.11253 7.6545985,5.0574413 7.3147558,5.2099537 7.2415865,5.5241887 7.147926,5.9641381 7.088174,6.4147269 6.9138618,6.8346577 6.0853872,9.0882485 4.7956642,11.141132 3.9891784,13.403296 3.5663778,14.661984 3.5027357,16.005373 3.4658203,17.32204 c -0.00917,1.029963 0.136283,2.158239 0.881235,2.93442 0.6704494,0.762645 1.7818487,0.89793 2.7365761,0.77949 1.0453524,-0.138176 2.1097501,-0.494299 2.9001424,-1.215112 0.3673142,-0.359994 0.6534092,-0.790753 0.9664212,-1.196214 0.766884,0.772478 1.616619,1.491961 2.634846,1.90768 1.932701,0.850831 4.3297,0.715939 6.04601,-0.563248 0.579191,-0.434003 1.05998,-0.980089 1.545256,-1.512626 0.580583,0.790907 1.212611,1.598944 2.119551,2.032582 1.200607,0.647628 2.749316,0.833553 3.968786,0.132609 0.847136,-0.43537 1.213642,-1.404113 1.376357,-2.286886 0.293369,-1.683376 0.131112,-3.408784 -0.123949,-5.086237 C 28.144095,11.080615 27.45166,8.8956723 26.074944,7.1463085 25.65319,6.6651569 25.205191,6.172655 24.632437,5.871845 24.378042,5.751435 24.143381,5.9803746 24.083008,6.2165715 23.88142,6.8435054 23.719378,7.4848077 23.451648,8.08943 c -0.488378,1.2562742 -1.217963,2.415235 -1.56861,3.726497 -0.329843,1.028651 -0.390132,2.114547 -0.639861,3.16048 -0.06234,0.184124 -0.110712,0.427855 -0.27345,0.542749 C 20.807268,15.182941 20.849713,14.780941 20.811238,14.41752 20.730927,11.977028 20.40179,9.5397996 19.79513,7.1737488 19.554239,6.1600712 19.103904,5.2091892 18.521291,4.3482599 17.900984,3.3723287 17.068659,2.5554937 16.207482,1.7936448 c -0.0493,-0.034268 -0.106456,-0.06977 -0.168269,-0.071364 z"
     id="path1053" />
</svg>
