<?xml version="1.0" encoding="UTF-8" standalone="no"?>
<!-- Generated by IcoMoon.io -->

<svg
   version="1.1"
   width="100px"
   height="100px"
   viewBox="0 0 32 32"
   id="svg8"
   sodipodi:docname="fishing-osrs.svg"
   inkscape:version="1.1 (c68e22c387, 2021-05-23)"
   xmlns:inkscape="http://www.inkscape.org/namespaces/inkscape"
   xmlns:sodipodi="http://sodipodi.sourceforge.net/DTD/sodipodi-0.dtd"
   xmlns="http://www.w3.org/2000/svg"
   xmlns:svg="http://www.w3.org/2000/svg">
  <defs
     id="defs12">
    <inkscape:path-effect
       effect="spiro"
       id="path-effect864"
       is_visible="true"
       lpeversion="1" />
  </defs>
  <sodipodi:namedview
     id="namedview10"
     pagecolor="#ffffff"
     bordercolor="#666666"
     borderopacity="1.0"
     inkscape:pageshadow="2"
     inkscape:pageopacity="0.0"
     inkscape:pagecheckerboard="0"
     showgrid="false"
     inkscape:zoom="13"
     inkscape:cx="9.5769231"
     inkscape:cy="16.346154"
     inkscape:window-width="1920"
     inkscape:window-height="1017"
     inkscape:window-x="1912"
     inkscape:window-y="-8"
     inkscape:window-maximized="1"
     inkscape:current-layer="svg8" />
  <title
     id="title2">fishing-osrs</title>
  <path
     d="M22.124 1.372c-0.235 0.269-0.336 0.841-0.202 1.345 0.336 1.244-0.437 1.379-3.464 0.538-3.363-0.908-5.649-0.908-7.802 0.034l-1.715 0.706-1.48-0.706c-1.143-0.572-2.119-0.74-4.136-0.74-2.623 0-2.623 0-2.455 0.841 0.135 0.773 0.269 0.841 2.219 0.841 1.311 0 2.589 0.269 3.531 0.673 1.849 0.841 2.926 0.841 4.91-0.034 1.816-0.807 3.901-0.74 6.557 0.202 1.48 0.538 3.564 0.673 4.54 0.303 0.269-0.135 0.74-0.639 1.042-1.177 0.471-0.942 0.605-0.975 2.858-0.975s2.354 0.034 2.69 0.908c0.437 1.11 0.101 1.782-1.211 2.421-0.74 0.37-0.975 0.37-1.177 0.034s-0.605-0.168-1.581 0.572c-0.706 0.572-1.581 1.379-1.95 1.782l-0.673 0.773 2.186-0.235c4.842-0.471 6.725-1.681 6.725-4.338 0-1.782-0.908-3.127-2.556-3.8-1.581-0.639-6.322-0.639-6.86 0.034z"
     id="path4" />
  <path
     d="M9.346 9.745c-2.959 0.807-3.026 1.042-0.37 1.883 2.522 0.841 2.858 1.143 1.614 1.48-1.211 0.303-2.589 1.513-2.589 2.287 0 0.572 0.168 0.673 1.177 0.538 1.345-0.168 1.446 0.034 0.538 0.874-0.37 0.336-0.807 1.042-1.009 1.614-0.303 0.841-0.269 0.975 0.134 0.807 0.673-0.269 1.412-0.471 1.11-0.303-0.538 0.303-0.235 0.706 0.74 1.11 0.572 0.235 1.009 0.538 1.009 0.639 0 0.336-2.522 1.715-3.127 1.715-0.303 0-0.773-0.336-1.042-0.74-0.504-0.673-0.874-0.773-4.136-0.874-3.094-0.134-3.531-0.067-3.363 0.37 0.101 0.269 0.37 1.11 0.605 1.883s0.975 1.984 1.648 2.724c1.042 1.143 1.446 1.345 2.589 1.345 1.211 0 1.379 0.101 1.547 0.942 0.235 1.244 2.421 2.757 4.271 2.993 1.379 0.202 1.412 0.168 1.143-0.605-0.168-0.437-0.303-1.48-0.303-2.287 0-1.345 0.101-1.513 0.942-1.749 0.504-0.134 1.446-0.706 2.051-1.244 1.009-0.874 1.379-0.975 3.564-1.009 1.782-0.034 2.388 0.067 2.253 0.37-0.101 0.202-0.504 1.211-0.874 2.219l-0.74 1.816 2.186-0.168c3.934-0.336 6.557-2.657 6.591-5.885 0-0.874 0.336-1.412 1.715-2.69 1.883-1.749 2.287-2.388 2.69-4.103 0.303-1.345-0.202-4.203-0.807-4.674-0.235-0.168-1.782-0.404-3.497-0.538-2.858-0.202-3.127-0.168-3.766 0.504s-0.773 0.706-2.926 0.336c-1.244-0.235-3.363-0.773-4.708-1.244-2.657-0.874-4.54-0.975-6.86-0.336zM16.071 11.326c1.009 0.404 2.421 0.773 3.127 0.874 0.673 0.101 1.244 0.269 1.244 0.404 0 0.101-0.538 0.572-1.177 1.042s-1.177 0.975-1.177 1.177c0 0.168-0.841 1.143-1.816 2.152l-1.816 1.816-0.975-0.673c-0.504-0.37-1.244-0.773-1.614-0.942-0.572-0.235-0.538-0.303 0.504-0.572 2.556-0.706 2.623-0.773 1.446-1.379-0.605-0.336-1.648-0.572-2.354-0.572-1.749-0.034-0.807-0.538 1.547-0.841 2.085-0.269 1.984-0.538-0.975-2.152l-1.85-1.042 2.018 0.034c1.211 0 2.757 0.269 3.867 0.673zM29.657 11.965c0.605 0.202 0.908 0.639 1.076 1.547 0.336 1.883-0.336 3.564-2.219 5.313-1.513 1.412-1.782 1.547-3.396 1.547-1.513 0-1.849 0.134-2.926 1.211-1.211 1.211-1.345 1.244-4.203 1.412-2.757 0.168-3.060 0.235-4.338 1.278-0.74 0.639-1.614 1.143-1.95 1.143-0.975 0-1.48 0.942-1.446 2.724 0.034 1.849-0.235 2.018-1.412 0.841-0.437-0.437-0.874-0.74-0.975-0.639s-0.336-0.504-0.538-1.311l-0.404-1.513-1.58 0.168c-1.177 0.101-1.681 0-2.018-0.404s-0.37-0.639-0.067-1.009c0.336-0.404 0.269-0.437-0.269-0.303s-0.773-0.034-1.042-0.74c-0.168-0.471-0.336-0.942-0.336-1.042 0-0.067 1.042-0.134 2.287-0.134 1.883 0 2.421 0.134 2.926 0.673 0.908 1.009 2.69 0.874 4.876-0.404 1.042-0.572 3.564-2.791 5.784-5.010 3.564-3.598 4.069-3.968 5.414-4.17 1.11-0.168 1.581-0.404 1.681-0.874 0.134-0.538 0.504-0.639 2.186-0.639 1.143 0 2.421 0.134 2.892 0.336z"
     id="path6" />
  <path
     style="fill:#ffffff;stroke:#000000;stroke-width:0;stroke-linecap:butt;stroke-linejoin:miter;stroke-miterlimit:4;stroke-dasharray:none;stroke-opacity:1"
     d="m 26.538461,22 c 0.161641,0.77645 0.0866,1.600541 -0.212637,2.335022 -0.299233,0.734481 -0.821448,1.376392 -1.47967,1.818824 -0.591737,0.397743 -1.278212,0.630899 -1.967905,0.811662 -0.689693,0.180762 -1.39255,0.313907 -2.070557,0.534492 -0.05621,0.01829 -0.112502,0.03724 -0.170796,0.04703 -0.05829,0.0098 -0.119261,0.01006 -0.175358,-0.0086 -0.08183,-0.02717 -0.147226,-0.09349 -0.184729,-0.171127 -0.0375,-0.07764 -0.04913,-0.16578 -0.04604,-0.25195 0.0067,-0.187673 0.0799,-0.365839 0.153846,-0.538461 0.340966,-0.795943 0.729414,-1.586272 1.307693,-2.230769 0.261625,-0.291584 0.559818,-0.550197 0.884615,-0.769231 0.975851,-0.658084 2.16178,-0.943548 3.153846,-1.576923 0.07129,-0.04551 0.141731,-0.09291 0.217896,-0.129689 0.07617,-0.03678 0.159064,-0.06284 0.243643,-0.06262 0.06888,1.78e-4 0.137646,0.01809 0.19786,0.05154 0.06021,0.03345 0.111751,0.08237 0.148293,0.140764 z"
     id="path862"
     inkscape:path-effect="#path-effect864"
     inkscape:original-d="m 26.538461,22 c 0.114385,0.0631 -1.127205,2.770231 -1.692307,4.153846 -0.565103,1.383615 -2.691308,0.898436 -4.038462,1.346154 -1.347154,0.447718 -0.229769,0.02664 -0.346154,0.03846 -0.116384,0.01182 -0.152846,-0.281051 -0.230769,-0.423077 -0.07792,-0.142025 0.103564,-0.357974 0.153846,-0.538461 0.05028,-0.180487 0.872795,-1.48618 1.307693,-2.230769 0.434897,-0.74459 0.590743,-0.511821 0.884615,-0.769231 0.293872,-0.25741 2.103564,-1.050282 3.153846,-1.576923 1.050282,-0.526641 0.308692,-0.127205 0.461539,-0.192308 0.152846,-0.0651 0.231769,0.129205 0.346153,0.192308 z" />
  <path
     style="fill:#757b7c;fill-rule:evenodd;stroke:#726c65;stroke-width:0;stroke-miterlimit:4;stroke-dasharray:none;fill-opacity:1"
     d="m 26.523362,11.571364 c -0.550308,0.02967 -1.1378,-0.0177 -1.651667,0.213642 -0.375837,0.177027 -0.307039,0.699943 -0.661283,0.89994 -0.739242,0.455975 -1.676684,0.319993 -2.44051,0.728037 -0.98741,0.517146 -1.748157,1.359235 -2.5551,2.108987 -2.193073,2.128908 -4.309191,4.356038 -6.745209,6.214399 -1.106008,0.790109 -2.374739,1.459285 -3.7430307,1.581464 -0.6838292,0.07294 -1.3891265,-0.148001 -1.8775538,-0.64085 -0.3736627,-0.411566 -0.9232777,-0.580985 -1.4627543,-0.619114 -1.213345,-0.105477 -2.4390521,-0.08524 -3.6502266,0.0346 -0.1668387,-0.0023 -0.2115942,0.176238 -0.1336388,0.301007 0.180036,0.488536 0.2950806,1.023773 0.6138822,1.445462 0.2315309,0.307862 0.6474699,0.220222 0.9695763,0.157678 0.087464,-0.0076 0.28474,-0.05913 0.1494141,0.07332 -0.2265949,0.278583 -0.491372,0.680988 -0.2153696,1.021109 0.2257643,0.405143 0.6598014,0.658914 1.1222206,0.66872 0.8781794,0.05491 1.7544645,-0.105968 2.6250753,-0.16842 0.2980111,0.872955 0.4361808,1.812378 0.8181338,2.660457 0.075915,0.212106 0.3407781,0.10458 0.478215,0.248798 0.5720593,0.360004 0.9719889,0.953458 1.5785008,1.259615 0.2984567,0.09278 0.5092857,-0.216713 0.5129207,-0.481896 0.121165,-0.927679 -0.0215,-1.88897 0.255611,-2.789772 0.151064,-0.459855 0.482058,-0.942675 1.00468,-0.991027 0.927066,-0.104321 1.640229,-0.782619 2.350586,-1.321064 0.557606,-0.467245 1.221524,-0.831747 1.948618,-0.922175 1.517684,-0.239871 3.073134,-0.162737 4.587966,-0.435247 0.858317,-0.147349 1.449848,-0.838345 2.051157,-1.403245 0.459622,-0.462873 1.020651,-0.899418 1.699369,-0.932767 0.917296,-0.107194 1.899896,0.0501 2.770282,-0.330529 0.743711,-0.379046 1.315539,-1.012001 1.92006,-1.572658 1.031334,-1.025777 1.941803,-2.327113 2.009027,-3.827658 0.01352,-0.769923 -0.01743,-1.597073 -0.425631,-2.273888 -0.415925,-0.622833 -1.234556,-0.713424 -1.915632,-0.806673 -0.659463,-0.07588 -1.324082,-0.104188 -1.987689,-0.100252 z"
     id="path1016" />
  <path
     style="fill:#757b7c;fill-opacity:1;fill-rule:evenodd;stroke:#726c65;stroke-width:0;stroke-miterlimit:4;stroke-dasharray:none"
     d="m 26.238657,21.760141 c -0.425412,0.01534 -0.734687,0.361777 -1.117309,0.506273 -1.131459,0.572078 -2.422074,0.934841 -3.31606,1.885554 -0.73211,0.766229 -1.230721,1.732486 -1.580738,2.724887 -0.112139,0.273985 -0.01131,0.738962 0.342908,0.741159 1.216307,-0.350031 2.478957,-0.562539 3.651649,-1.052993 0.870788,-0.392101 1.588144,-1.105868 2.040638,-1.941099 0.381876,-0.753466 0.463335,-1.632284 0.368936,-2.461813 -0.03261,-0.187639 -0.174628,-0.414908 -0.390024,-0.401968 z"
     id="path1166" />
  <path
     style="fill:#757b7c;fill-opacity:1;fill-rule:evenodd;stroke:#726c65;stroke-width:0;stroke-miterlimit:4;stroke-dasharray:none"
     d="m 10.353891,10.564228 c -0.07064,-0.01212 -0.283603,-2.62e-4 -0.177659,0.110276 1.234869,0.728719 2.525183,1.367398 3.722171,2.156455 0.173269,0.146379 0.452504,0.27938 0.460146,0.531195 -0.213029,0.259993 -0.606338,0.24282 -0.910457,0.319712 -0.925352,0.164412 -1.889665,0.233416 -2.766376,0.596755 -0.15056,0.03557 -0.259284,0.261508 -0.06881,0.324895 0.541269,0.161443 1.112579,0.06127 1.65933,0.194486 0.76895,0.124226 1.522006,0.399617 2.146634,0.86606 0.09877,0.07464 0.05834,0.196422 -0.06115,0.22784 -0.888651,0.423615 -1.883408,0.556281 -2.796123,0.913161 -0.143159,0.04495 -0.126814,0.228851 0.01405,0.267954 0.67605,0.384736 1.384099,0.718515 2.010214,1.186588 0.293183,0.191198 0.565986,0.429593 0.87072,0.591582 1.164784,-1.173366 2.375686,-2.313697 3.427945,-3.593493 0.14824,-0.165574 0.249277,-0.364162 0.322506,-0.566212 0.636012,-0.773025 1.564644,-1.238109 2.226788,-1.986179 0.155941,-0.160875 -0.09014,-0.283047 -0.220802,-0.321156 -0.810495,-0.255538 -1.662793,-0.335655 -2.477919,-0.577447 -1.125155,-0.298022 -2.193961,-0.798237 -3.349581,-0.98789 -1.30344,-0.257964 -2.639613,-0.220287 -3.961464,-0.255033 l -0.03846,2.47e-4 z"
     id="path1205" />
</svg>
