<svg xmlns="http://www.w3.org/2000/svg" width="100" height="100" viewBox="0 0 32 32"><path d="M22.124 1.372c-.235.269-.336.841-.202 1.345.336 1.244-.437 1.379-3.464.538-3.363-.908-5.649-.908-7.802.034l-1.715.706-1.48-.706c-1.143-.572-2.119-.74-4.136-.74-2.623 0-2.623 0-2.455.841.135.773.269.841 2.219.841 1.311 0 2.589.269 3.531.673 1.849.841 2.926.841 4.91-.034 1.816-.807 3.901-.74 6.557.202 1.48.538 3.564.673 4.54.303.269-.135.74-.639 1.042-1.177.471-.942.605-.975 2.858-.975s2.354.034 2.69.908c.437 1.11.101 1.782-1.211 2.421-.74.37-.975.37-1.177.034s-.605-.168-1.581.572c-.706.572-1.581 1.379-1.95 1.782l-.673.773 2.186-.235c4.842-.471 6.725-1.681 6.725-4.338 0-1.782-.908-3.127-2.556-3.8-1.581-.639-6.322-.639-6.86.034zM9.346 9.745c-2.959.807-3.026 1.042-.37 1.883 2.522.841 2.858 1.143 1.614 1.48-1.211.303-2.589 1.513-2.589 2.287 0 .572.168.673 1.177.538 1.345-.168 1.446.034.538.874-.37.336-.807 1.042-1.009 1.614-.303.841-.269.975.134.807.673-.269 1.412-.471 1.11-.303-.538.303-.235.706.74 1.11.572.235 1.009.538 1.009.639 0 .336-2.522 1.715-3.127 1.715-.303 0-.773-.336-1.042-.74-.504-.673-.874-.773-4.136-.874-3.094-.134-3.531-.067-3.363.37.101.269.37 1.11.605 1.883s.975 1.984 1.648 2.724c1.042 1.143 1.446 1.345 2.589 1.345 1.211 0 1.379.101 1.547.942.235 1.244 2.421 2.757 4.271 2.993 1.379.202 1.412.168 1.143-.605-.168-.437-.303-1.48-.303-2.287 0-1.345.101-1.513.942-1.749.504-.134 1.446-.706 2.051-1.244 1.009-.874 1.379-.975 3.564-1.009 1.782-.034 2.388.067 2.253.37-.101.202-.504 1.211-.874 2.219l-.74 1.816 2.186-.168c3.934-.336 6.557-2.657 6.591-5.885 0-.874.336-1.412 1.715-2.69 1.883-1.749 2.287-2.388 2.69-4.103.303-1.345-.202-4.203-.807-4.674-.235-.168-1.782-.404-3.497-.538-2.858-.202-3.127-.168-3.766.504s-.773.706-2.926.336c-1.244-.235-3.363-.773-4.708-1.244-2.657-.874-4.54-.975-6.86-.336zm6.725 1.581c1.009.404 2.421.773 3.127.874.673.101 1.244.269 1.244.404 0 .101-.538.572-1.177 1.042s-1.177.975-1.177 1.177c0 .168-.841 1.143-1.816 2.152l-1.816 1.816-.975-.673a10.914 10.914 0 0 0-1.614-.942c-.572-.235-.538-.303.504-.572 2.556-.706 2.623-.773 1.446-1.379-.605-.336-1.648-.572-2.354-.572-1.749-.034-.807-.538 1.547-.841 2.085-.269 1.984-.538-.975-2.152l-1.85-1.042 2.018.034c1.211 0 2.757.269 3.867.673zm13.586.639c.605.202.908.639 1.076 1.547.336 1.883-.336 3.564-2.219 5.313-1.513 1.412-1.782 1.547-3.396 1.547-1.513 0-1.849.134-2.926 1.211-1.211 1.211-1.345 1.244-4.203 1.412-2.757.168-3.06.235-4.338 1.278-.74.639-1.614 1.143-1.95 1.143-.975 0-1.48.942-1.446 2.724.034 1.849-.235 2.018-1.412.841-.437-.437-.874-.74-.975-.639s-.336-.504-.538-1.311l-.404-1.513-1.58.168c-1.177.101-1.681 0-2.018-.404s-.37-.639-.067-1.009c.336-.404.269-.437-.269-.303s-.773-.034-1.042-.74c-.168-.471-.336-.942-.336-1.042 0-.067 1.042-.134 2.287-.134 1.883 0 2.421.134 2.926.673.908 1.009 2.69.874 4.876-.404 1.042-.572 3.564-2.791 5.784-5.01 3.564-3.598 4.069-3.968 5.414-4.17 1.11-.168 1.581-.404 1.681-.874.134-.538.504-.639 2.186-.639 1.143 0 2.421.134 2.892.336z"/><path d="M26.538 22c.162.776.087 1.6-.212 2.335a4.047 4.047 0 0 1-1.48 1.819c-.592.398-1.278.63-1.968.812-.69.18-1.392.313-2.07.534-.057.018-.113.037-.171.047a.365.365 0 0 1-.175-.009.327.327 0 0 1-.185-.17.535.535 0 0 1-.046-.253c.006-.187.08-.365.154-.538.34-.796.729-1.586 1.307-2.23.262-.292.56-.551.885-.77.976-.658 2.162-.944 3.154-1.577.071-.046.142-.093.218-.13a.563.563 0 0 1 .243-.062.412.412 0 0 1 .346.192z" style="fill:#fff;stroke:#000;stroke-width:0;stroke-linecap:butt;stroke-linejoin:miter;stroke-miterlimit:4;stroke-dasharray:none;stroke-opacity:1"/><path d="M26.523 11.571c-.55.03-1.137-.017-1.651.214-.376.177-.307.7-.662.9-.739.456-1.676.32-2.44.728-.988.517-1.748 1.36-2.555 2.109-2.193 2.129-4.31 4.356-6.745 6.214-1.106.79-2.375 1.46-3.743 1.582-.684.073-1.39-.148-1.878-.641-.374-.412-.923-.581-1.463-.62a19.755 19.755 0 0 0-3.65.035c-.167-.002-.212.177-.134.301.18.489.295 1.024.614 1.446.232.308.648.22.97.158.087-.008.285-.06.15.073-.227.279-.492.68-.216 1.021.226.405.66.659 1.122.669.878.055 1.755-.106 2.625-.169.298.873.436 1.813.818 2.66.076.213.341.105.479.25.572.36.972.953 1.578 1.26.298.092.51-.217.513-.483.121-.927-.022-1.889.256-2.79.15-.46.482-.942 1.004-.99.927-.105 1.64-.783 2.35-1.322.558-.467 1.222-.831 1.95-.922 1.517-.24 3.073-.162 4.587-.435.859-.147 1.45-.838 2.052-1.403.46-.463 1.02-.9 1.699-.933.917-.107 1.9.05 2.77-.33.744-.38 1.316-1.013 1.92-1.573 1.032-1.026 1.942-2.327 2.01-3.828.013-.77-.018-1.597-.426-2.274-.416-.623-1.235-.713-1.916-.806a16.535 16.535 0 0 0-1.988-.1z" style="fill:#757b7c;fill-rule:evenodd;stroke:#726c65;stroke-width:0;stroke-miterlimit:4;stroke-dasharray:none;fill-opacity:1"/><path d="M26.239 21.76c-.426.015-.735.362-1.118.506-1.131.572-2.422.935-3.316 1.886-.732.766-1.23 1.732-1.58 2.725-.113.274-.012.739.342.741 1.217-.35 2.48-.563 3.652-1.053.87-.392 1.588-1.106 2.04-1.941.383-.754.464-1.632.37-2.462-.033-.188-.175-.415-.39-.402zM10.354 10.564c-.07-.012-.284 0-.178.11 1.235.73 2.525 1.368 3.722 2.157.174.146.453.28.46.531-.212.26-.606.243-.91.32-.925.164-1.89.233-2.766.597-.15.035-.26.261-.07.325.542.161 1.113.06 1.66.194.77.124 1.522.4 2.147.866.099.075.058.196-.061.228-.889.424-1.884.556-2.796.913-.144.045-.127.229.014.268.676.385 1.384.719 2.01 1.187.293.19.566.43.87.591 1.165-1.173 2.376-2.314 3.429-3.593.148-.166.249-.364.322-.567.636-.773 1.565-1.238 2.227-1.986.156-.16-.09-.283-.221-.32-.81-.256-1.663-.337-2.478-.578-1.125-.298-2.194-.799-3.35-.988-1.303-.258-2.64-.22-3.96-.255h-.04z" style="fill:#757b7c;fill-opacity:1;fill-rule:evenodd;stroke:#726c65;stroke-width:0;stroke-miterlimit:4;stroke-dasharray:none"/></svg>