<svg xmlns="http://www.w3.org/2000/svg" width="100" height="100" viewBox="0 0 32 32"><path d="M16.907 1.718c-1.519 1.756-1.553 1.823-1.553 4.153v2.363L3.57 20.018l-1.047-.979c-.54-.54-1.047-.912-1.114-.81-.068.068-.439 1.688-.81 3.579-.54 2.701-.574 3.478-.236 3.478.979 0 6.55-1.452 6.55-1.688 0-.169-.405-.608-.912-1.013l-.912-.709L17.21 9.755h2.296c2.228 0 2.363-.068 3.984-1.418 1.553-1.317 1.654-1.486 1.654-3.039 0-1.621 0-1.621-1.114-1.621-1.351 0-2.161-.878-2.33-2.431C21.599.166 21.531.132 20.046.03c-1.519-.101-1.621-.034-3.14 1.688zm3.882.675c.135 1.418.068 1.519-2.127 3.613l-2.296 2.161V6.04c0-1.925.101-2.262 1.215-3.579.878-1.114 1.418-1.486 2.161-1.486.878 0 .945.101 1.047 1.418zM24.132 5.5c0 .945-.27 1.317-1.553 2.33-1.418 1.114-1.756 1.216-3.545 1.182-1.08-.034-1.992-.169-1.992-.304s.979-1.148 2.195-2.296c1.958-1.79 2.397-2.06 3.545-2.06 1.317 0 1.351.034 1.351 1.148zM28.049 7.424c-1.654.338-3.106.709-3.174.81-.101.101.203.608.709 1.114l.912.945-6.01 5.976-5.976 5.976h-2.296c-2.228 0-2.363.068-3.984 1.418-1.553 1.317-1.654 1.486-1.654 2.971 0 1.688.473 2.228 1.553 1.79.743-.27 1.756.945 1.891 2.296.101 1.114.169 1.148 1.654 1.249 1.519.101 1.621.034 3.14-1.688 1.519-1.756 1.553-1.823 1.553-4.153v-2.363l11.784-11.784 1.047.979c.54.54 1.08.912 1.148.81.068-.068.371-1.317.675-2.735.27-1.418.608-2.971.743-3.444.236-1.047.338-1.047-3.714-.169zM14.678 23.192c0 .068-.945 1.114-2.093 2.296-1.925 1.992-2.195 2.161-3.545 2.161-1.418 0-1.452-.034-1.452-1.148 0-.945.236-1.317 1.452-2.262 1.317-1.013 1.722-1.148 3.545-1.148 1.148-.034 2.093.034 2.093.101zm.675 2.87c0 1.958-.101 2.262-1.216 3.545-.912 1.08-1.452 1.418-2.195 1.418-.912 0-.979-.068-.979-1.418 0-1.317.203-1.621 2.093-3.545 1.148-1.182 2.161-2.127 2.195-2.127.068 0 .101.945.101 2.127z"/><path d="M19.82.916c-.643-.028-1.224.322-1.645.784-.549.605-1.11 1.22-1.508 1.937-.443.898-.34 1.935-.37 2.904.009.541-.02 1.087.036 1.625.127.081.23-.157.339-.213 1.183-1.12 2.408-2.201 3.52-3.395.405-.433.755-.986.695-1.605-.05-.561-.042-1.145-.23-1.682-.137-.32-.535-.356-.837-.355Z" style="fill:#096c02;fill-rule:evenodd;stroke:#726c65;stroke-width:0;fill-opacity:1"/><path d="M22.736 4.3a2.872 2.872 0 0 0-1.85.629c-1.243.961-2.366 2.07-3.457 3.198-.141.188-.381.342-.43.58.106.219.42.182.62.242 1.11.132 2.265.249 3.357-.054.683-.236 1.236-.73 1.806-1.157.599-.488 1.292-1.034 1.386-1.859.037-.429.074-.897-.109-1.299-.224-.356-.711-.245-1.063-.28a7.945 7.945 0 0 0-.26 0zM12.76 23.032c-.904.026-1.876-.042-2.686.438-.745.445-1.45.974-2.051 1.603-.313.318-.481.75-.476 1.194.004.396-.095.857.148 1.203.315.31.81.197 1.209.222.57-.009 1.19.031 1.684-.31.925-.615 1.644-1.481 2.425-2.259.57-.62 1.188-1.205 1.685-1.887.054-.166-.215-.134-.31-.158a19.1 19.1 0 0 0-1.627-.046zM15.244 23.917c-.304.15-.517.447-.777.66-.96.952-1.934 1.895-2.823 2.914-.387.492-.754 1.067-.716 1.72.011.514-.088 1.059.098 1.55.161.345.589.338.91.313a1.96 1.96 0 0 0 1.328-.499 9.915 9.915 0 0 0 1.696-1.95c.345-.523.437-1.158.413-1.773-.008-.957.037-1.918-.037-2.872-.012-.04-.05-.07-.092-.063z" style="fill:#096c02;fill-opacity:1;fill-rule:evenodd;stroke:#726c65;stroke-width:0"/></svg>