<?xml version="1.0" encoding="UTF-8" standalone="no"?>
<!-- Generated by IcoMoon.io -->

<svg
   version="1.1"
   width="100px"
   height="100px"
   viewBox="0 0 32 32"
   id="svg8"
   sodipodi:docname="fletching-osrs.svg"
   inkscape:version="1.1 (c68e22c387, 2021-05-23)"
   xmlns:inkscape="http://www.inkscape.org/namespaces/inkscape"
   xmlns:sodipodi="http://sodipodi.sourceforge.net/DTD/sodipodi-0.dtd"
   xmlns="http://www.w3.org/2000/svg"
   xmlns:svg="http://www.w3.org/2000/svg">
  <defs
     id="defs12" />
  <sodipodi:namedview
     id="namedview10"
     pagecolor="#ffffff"
     bordercolor="#666666"
     borderopacity="1.0"
     inkscape:pageshadow="2"
     inkscape:pageopacity="0.0"
     inkscape:pagecheckerboard="0"
     showgrid="false"
     inkscape:zoom="26"
     inkscape:cx="15.980769"
     inkscape:cy="16.019231"
     inkscape:window-width="1920"
     inkscape:window-height="1017"
     inkscape:window-x="1912"
     inkscape:window-y="-8"
     inkscape:window-maximized="1"
     inkscape:current-layer="svg8" />
  <title
     id="title2">fletching-osrs</title>
  <path
     d="M16.907 1.718c-1.519 1.756-1.553 1.823-1.553 4.153v2.363l-11.784 11.784-1.047-0.979c-0.54-0.54-1.047-0.912-1.114-0.81-0.068 0.068-0.439 1.688-0.81 3.579-0.54 2.701-0.574 3.478-0.236 3.478 0.979 0 6.55-1.452 6.55-1.688 0-0.169-0.405-0.608-0.912-1.013l-0.912-0.709 12.121-12.121h2.296c2.228 0 2.363-0.068 3.984-1.418 1.553-1.317 1.654-1.486 1.654-3.039 0-1.621 0-1.621-1.114-1.621-1.351 0-2.161-0.878-2.33-2.431-0.101-1.080-0.169-1.114-1.654-1.216-1.519-0.101-1.621-0.034-3.14 1.688zM20.789 2.393c0.135 1.418 0.068 1.519-2.127 3.613l-2.296 2.161v-2.127c0-1.925 0.101-2.262 1.215-3.579 0.878-1.114 1.418-1.486 2.161-1.486 0.878 0 0.945 0.101 1.047 1.418zM24.132 5.5c0 0.945-0.27 1.317-1.553 2.33-1.418 1.114-1.756 1.216-3.545 1.182-1.080-0.034-1.992-0.169-1.992-0.304s0.979-1.148 2.195-2.296c1.958-1.79 2.397-2.060 3.545-2.060 1.317 0 1.351 0.034 1.351 1.148z"
     id="path4" />
  <path
     d="M28.049 7.424c-1.654 0.338-3.106 0.709-3.174 0.81-0.101 0.101 0.203 0.608 0.709 1.114l0.912 0.945-6.010 5.976-5.976 5.976h-2.296c-2.228 0-2.363 0.068-3.984 1.418-1.553 1.317-1.654 1.486-1.654 2.971 0 1.688 0.473 2.228 1.553 1.79 0.743-0.27 1.756 0.945 1.891 2.296 0.101 1.114 0.169 1.148 1.654 1.249 1.519 0.101 1.621 0.034 3.14-1.688 1.519-1.756 1.553-1.823 1.553-4.153v-2.363l11.784-11.784 1.047 0.979c0.54 0.54 1.080 0.912 1.148 0.81 0.068-0.068 0.371-1.317 0.675-2.735 0.27-1.418 0.608-2.971 0.743-3.444 0.236-1.047 0.338-1.047-3.714-0.169zM14.678 23.192c0 0.068-0.945 1.114-2.093 2.296-1.925 1.992-2.195 2.161-3.545 2.161-1.418 0-1.452-0.034-1.452-1.148 0-0.945 0.236-1.317 1.452-2.262 1.317-1.013 1.722-1.148 3.545-1.148 1.148-0.034 2.093 0.034 2.093 0.101zM15.353 26.062c0 1.958-0.101 2.262-1.216 3.545-0.912 1.080-1.452 1.418-2.195 1.418-0.912 0-0.979-0.068-0.979-1.418 0-1.317 0.203-1.621 2.093-3.545 1.148-1.182 2.161-2.127 2.195-2.127 0.068 0 0.101 0.945 0.101 2.127z"
     id="path6" />
  <path
     style="fill:#096c02;fill-rule:evenodd;stroke:#726c65;stroke-width:0;fill-opacity:1"
     d="M 19.820388,0.91631611 C 19.177242,0.88804033 18.595509,1.2384738 18.17488,1.6997446 17.626229,2.304974 17.065453,2.9192477 16.667411,3.6374471 c -0.443237,0.8976135 -0.339536,1.934166 -0.370842,2.9036425 0.0091,0.5409931 -0.02028,1.0871985 0.03614,1.6250762 0.126809,0.081106 0.23031,-0.1576366 0.33918,-0.212992 C 17.85451,6.8320573 19.079774,5.7515542 20.191096,4.5582321 20.59678,4.125135 20.946851,3.5717757 20.887487,2.9532121 20.836318,2.3917693 20.845001,1.8077006 20.657828,1.2705078 20.52017,0.95079497 20.121837,0.91544959 19.820388,0.91631611 Z"
     id="path866" />
  <path
     style="fill:#096c02;fill-opacity:1;fill-rule:evenodd;stroke:#726c65;stroke-width:0"
     d="m 22.735727,4.3003305 c -0.669477,-0.018675 -1.326585,0.2145289 -1.850106,0.6287012 -1.243012,0.9614526 -2.365649,2.0700108 -3.45673,3.1980715 -0.140866,0.1879087 -0.381092,0.3418722 -0.430694,0.5803787 0.106393,0.2183516 0.420026,0.1815412 0.620944,0.2418119 1.109813,0.1316754 2.264496,0.2484512 3.357271,-0.053861 C 21.659079,8.6591682 22.211908,8.164807 22.782076,7.7382813 23.38057,7.2497857 24.074117,6.7041076 24.168344,5.8793571 24.204584,5.4504034 24.242354,4.981655 24.05927,4.5801533 23.835309,4.2236239 23.347507,4.3353758 22.995956,4.3008193 c -0.08673,-0.00185 -0.17349,-0.00148 -0.260229,-4.888e-4 z"
     id="path1016" />
  <path
     style="fill:#096c02;fill-opacity:1;fill-rule:evenodd;stroke:#726c65;stroke-width:0"
     d="m 12.760667,23.032151 c -0.904275,0.02561 -1.876642,-0.04261 -2.686674,0.437425 -0.744967,0.445582 -1.4502962,0.974777 -2.0509483,1.603336 -0.3127206,0.317599 -0.4812013,0.749712 -0.4759007,1.194288 0.00373,0.395643 -0.09539,0.856456 0.1475675,1.202827 0.3155795,0.310788 0.8106981,0.196555 1.2088283,0.221629 0.5709672,-0.0086 1.1898502,0.03152 1.6845012,-0.310421 0.924913,-0.614647 1.643541,-1.480516 2.425379,-2.2578 0.570357,-0.619531 1.187884,-1.205268 1.684372,-1.887107 0.05372,-0.165968 -0.214445,-0.134203 -0.309399,-0.15853 -0.541062,-0.04553 -1.085116,-0.04639 -1.627726,-0.04565 z"
     id="path1055" />
  <path
     style="fill:#096c02;fill-opacity:1;fill-rule:evenodd;stroke:#726c65;stroke-width:0"
     d="m 15.244065,23.916617 c -0.304139,0.150096 -0.51681,0.447027 -0.777193,0.660456 -0.959703,0.952284 -1.933679,1.895141 -2.823171,2.91399 -0.38641,0.491942 -0.75374,1.06699 -0.715441,1.719799 0.01115,0.513838 -0.08874,1.058692 0.09796,1.550857 0.16107,0.344488 0.588347,0.336982 0.910627,0.312463 0.489099,0.0069 0.962249,-0.174704 1.326978,-0.499062 0.64652,-0.570728 1.220126,-1.231107 1.696515,-1.949895 0.344427,-0.523025 0.436197,-1.158485 0.41286,-1.772911 -0.0081,-0.956925 0.03642,-1.918553 -0.03733,-2.872672 -0.01164,-0.03874 -0.0504,-0.06883 -0.0918,-0.06302 z"
     id="path1094" />
</svg>
