<?xml version="1.0" encoding="UTF-8" standalone="no"?>
<!-- Generated by IcoMoon.io -->

<svg
   version="1.1"
   width="100px"
   height="100px"
   viewBox="0 0 32 32"
   id="svg6"
   sodipodi:docname="herblore-osrs.svg"
   inkscape:version="1.1 (c68e22c387, 2021-05-23)"
   xmlns:inkscape="http://www.inkscape.org/namespaces/inkscape"
   xmlns:sodipodi="http://sodipodi.sourceforge.net/DTD/sodipodi-0.dtd"
   xmlns="http://www.w3.org/2000/svg"
   xmlns:svg="http://www.w3.org/2000/svg">
  <defs
     id="defs10" />
  <sodipodi:namedview
     id="namedview8"
     pagecolor="#ffffff"
     bordercolor="#666666"
     borderopacity="1.0"
     inkscape:pageshadow="2"
     inkscape:pageopacity="0.0"
     inkscape:pagecheckerboard="0"
     showgrid="false"
     inkscape:zoom="26"
     inkscape:cx="15.980769"
     inkscape:cy="16.019231"
     inkscape:window-width="1920"
     inkscape:window-height="1017"
     inkscape:window-x="1912"
     inkscape:window-y="-8"
     inkscape:window-maximized="1"
     inkscape:current-layer="svg6" />
  <title
     id="title2">herblore-osrs</title>
  <path
     d="M14.457 6.435c-0.733 0.833-1.666 2.199-2.065 2.998-0.666 1.432-0.733 1.466-1.432 0.966-1.133-0.833-3.265-1.766-4.664-2.032l-1.299-0.233 0.2 2.732 0.167 2.765-0.866-0.233c-0.5-0.133-1.699-0.333-2.698-0.5l-1.799-0.233 0.2 2.199c0.5 6.096 4.497 10.66 10.26 11.726 5.43 0.999 11.259 0.5 14.724-1.266 2.299-1.133 4.73-3.797 5.563-5.963 0.7-1.899 1.466-5.996 1.199-6.429-0.167-0.267-2.865 0-4.597 0.466-0.866 0.233-0.866 0.2-0.666-1.233 0.133-0.766 0.233-1.965 0.233-2.598 0-1.133-0.033-1.166-1.166-1.066-1.499 0.1-2.898 0.633-4.264 1.666-0.6 0.433-1.133 0.733-1.166 0.7-0.033-0.067-0.433-0.833-0.866-1.699-0.799-1.632-2.898-4.264-3.364-4.264-0.167 0-0.866 0.7-1.632 1.532zM17.688 8.367c1.799 2.698 2.199 4.664 1.965 9.927-0.133 2.532-0.167 4.597-0.1 4.597s0.466-1.033 0.833-2.299c0.833-2.732 2.365-4.264 5.33-5.396 1.899-0.7 4.764-1.332 4.997-1.099s-0.7 4.264-1.199 5.297c-1.566 3.098-4.997 5.53-8.428 6.029l-1.499 0.2 2.265-2.065c1.965-1.799 3.231-3.431 3.231-4.164 0-0.133-0.633 0.533-1.399 1.466-1.732 2.032-5.863 5.363-6.662 5.363-0.533 0-0.6-0.366-0.6-3.498 0-2.099-0.133-3.498-0.333-3.498s-0.333 1.399-0.333 3.498c0 3.198-0.067 3.498-0.633 3.498-0.866 0-4.63-2.931-6.462-5.063-0.866-0.966-1.566-1.532-1.566-1.266s1.233 1.699 2.732 3.131l2.698 2.632-1.566-0.2c-3.498-0.5-7.195-3.165-8.461-6.163-0.766-1.766-1.432-4.997-1.066-5.23 0.4-0.267 4.331 0.833 5.929 1.632 2.332 1.199 3.831 2.998 4.397 5.297 0.5 2.099 1.166 3.031 0.833 1.133-0.133-0.666-0.233-3.098-0.267-5.463-0.033-3.664 0.067-4.464 0.666-5.763 0.966-2.065 2.732-4.397 3.198-4.264 0.233 0.1 0.899 0.866 1.499 1.732zM9.327 10.766c1.599 0.899 1.865 1.566 1.699 3.997l-0.1 1.632-1.066-1.899c-1.166-2.032-2.032-2.931-1.366-1.366 0.233 0.5 0.633 1.299 0.899 1.732 0.533 0.866 0.533 0.866-1.366-0.1-1.133-0.566-1.233-0.799-1.566-2.698-0.2-1.133-0.366-2.165-0.366-2.299 0-0.433 1.699 0.1 3.231 0.999zM25.75 10.433c0 0.466-0.167 1.466-0.366 2.232-0.267 1.133-0.6 1.532-1.666 2.132-0.7 0.4-1.299 0.666-1.299 0.6s0.3-0.666 0.7-1.299c0.366-0.666 0.633-1.366 0.566-1.566s-0.633 0.566-1.266 1.699l-1.166 2.065-0.267-1.899c-0.267-1.732-0.2-1.999 0.5-2.765 0.766-0.799 3.031-2.032 3.864-2.065 0.2 0 0.4 0.4 0.4 0.866z"
     id="path4" />
  <path
     style="fill:#096c02;fill-rule:evenodd;stroke:#726c65;stroke-width:0"
     d="m 15.975135,6.6294321 c -0.559387,0.3338989 -0.93059,0.899565 -1.327618,1.4006357 -0.786863,1.1027928 -1.517825,2.2672172 -1.990591,3.5423482 -0.443771,1.347098 -0.37517,2.788279 -0.399921,4.187274 0.01905,2.092686 0.0479,4.19057 0.26155,6.273889 0.04284,0.334228 0.127265,0.735114 0.06175,1.043119 C 12.277843,22.668674 12.171652,22.148666 12.008024,21.67632 11.75107,20.731489 11.500298,19.769203 10.981146,18.927083 9.8893542,17.046275 7.9990431,15.742279 5.9631958,15.060155 4.6374425,14.601042 3.2873088,14.165769 1.8910898,13.987058 c -0.1968718,-0.0067 -0.5362171,-0.0757 -0.5812941,0.197287 -0.1016111,0.684576 0.080013,1.37512 0.1998948,2.046349 0.3854988,1.688485 0.8721092,3.419576 1.9523593,4.809261 1.4929232,1.917208 3.5854125,3.348259 5.8912406,4.101722 1.0041456,0.331001 2.0634716,0.439758 3.1089996,0.554161 0.153785,-0.0724 -0.09066,-0.205871 -0.133339,-0.282076 C 10.737882,23.772412 8.9990665,22.269394 7.5472508,20.497972 7.4187781,20.308337 7.2097746,20.117555 7.17195,19.896109 c 0.438135,0.222544 0.7501215,0.633642 1.1035073,0.966356 1.50884,1.570948 3.0703817,3.110395 4.8657687,4.355985 0.577124,0.378374 1.140471,0.81622 1.80311,1.032602 0.293075,0.102698 0.648797,-0.05142 0.715219,-0.369441 0.16662,-0.760971 0.111348,-1.550859 0.148696,-2.324712 0.03579,-1.178696 0.006,-2.367242 0.120761,-3.53887 0.04235,-0.236937 0.04895,-0.498305 0.165489,-0.711388 0.196708,0.540881 0.172193,1.129489 0.223176,1.696951 0.09506,1.465376 0.0012,2.936717 0.116898,4.400774 0.03732,0.31988 0.09205,0.777927 0.466717,0.869597 0.49267,0.0026 0.901006,-0.337524 1.307161,-0.575128 1.770896,-1.203812 3.401379,-2.610637 4.904167,-4.133896 0.660737,-0.673664 1.217055,-1.451095 1.906536,-2.092884 -0.189813,0.719162 -0.665426,1.321055 -1.124399,1.890024 -1.2651,1.503504 -2.798151,2.754286 -4.201548,4.125676 -0.10752,0.05792 -0.08898,0.219945 0.05356,0.166842 1.256315,-0.131753 2.522237,-0.323424 3.694224,-0.816994 2.492245,-1.002549 4.695165,-2.818043 5.997408,-5.183757 0.465034,-0.908156 0.677372,-1.919438 0.935772,-2.899564 0.183717,-0.845194 0.411338,-1.695612 0.432918,-2.563777 -0.03558,-0.270362 -0.381436,-0.19135 -0.568435,-0.185923 -1.41472,0.167299 -2.79467,0.558861 -4.14595,0.999724 -1.758581,0.603906 -3.503514,1.539575 -4.585158,3.102426 -0.774849,1.061331 -1.131953,2.340756 -1.534968,3.571904 -0.119376,0.337122 -0.225113,0.681218 -0.381385,1.003681 -5.73e-4,-1.764227 0.09109,-3.525869 0.145072,-5.289254 0.01893,-1.689242 0.09661,-3.399216 -0.259767,-5.062768 C 19.083087,10.2932 17.986505,8.4489452 16.60915,6.9224008 16.460034,6.7905027 16.302612,6.5633893 16.09715,6.5744056 c -0.04067,0.018342 -0.08134,0.036684 -0.122015,0.055026 z"
     id="path864" />
  <path
     style="fill:#00bc00;fill-rule:evenodd;stroke:#726c65;stroke-width:0;fill-opacity:1"
     d="m 6.32497,9.5699369 c -0.1683496,-0.0254 -0.3280626,0.1140965 -0.2806491,0.2885367 0.1812612,1.2055414 0.364764,2.4149394 0.6537507,3.5998634 0.1114847,0.482061 0.4419286,0.883639 0.8774726,1.11188 0.6345848,0.354316 1.2785621,0.70687 1.960814,0.959906 0.1263325,0.06936 0.27279,-0.06428 0.1754056,-0.186598 -0.4712921,-0.938144 -1.0576913,-1.829802 -1.3748497,-2.838041 -0.034312,-0.08742 -0.0036,-0.113422 0.057842,-0.04222 0.6105598,0.624931 1.0047744,1.418413 1.4595784,2.156059 0.3484865,0.565367 0.6269015,1.176667 1.0038385,1.722472 0.154723,0.08759 0.137255,-0.174901 0.149189,-0.26232 0.05852,-0.988765 0.145481,-1.982425 0.08748,-2.972798 C 11.061401,12.406134 10.761112,11.707259 10.188786,11.28174 9.2647849,10.579095 8.205144,10.05576 7.1028395,9.6977163 6.8502446,9.6236371 6.5898198,9.5642045 6.32497,9.5699369 Z"
     id="path903" />
  <path
     style="fill:#00bc00;fill-opacity:1;fill-rule:evenodd;stroke:#726c65;stroke-width:0"
     d="m 25.264423,9.529372 c -0.739403,0.1021157 -1.398968,0.496887 -2.055901,0.827074 -0.847985,0.484238 -1.754366,1.019438 -2.24796,1.895132 -0.245469,0.449693 -0.150653,0.988977 -0.119216,1.477388 0.107205,0.856862 0.22525,1.718336 0.355319,2.568585 0.143751,0.07493 0.198573,-0.178349 0.273362,-0.260517 0.635415,-1.11223 1.218055,-2.265734 1.980694,-3.295673 0.04835,-0.04589 0.130342,-0.177782 0.182993,-0.151442 -0.07309,0.575492 -0.382567,1.092768 -0.64557,1.601434 -0.208791,0.39907 -0.485159,0.779884 -0.609313,1.214146 0.08699,0.138012 0.281271,-0.03214 0.397837,-0.05844 0.698903,-0.349506 1.434807,-0.687248 1.994741,-1.246168 0.592681,-0.666637 0.701744,-1.597495 0.886869,-2.435472 0.06882,-0.536757 0.229521,-1.095145 0.09255,-1.632587 -0.07269,-0.2317615 -0.178194,-0.5565171 -0.486405,-0.50346 z"
     id="path1053" />
</svg>
