<svg xmlns="http://www.w3.org/2000/svg" width="100" height="100" viewBox="0 0 32 32"><path d="M14.457 6.435c-.733.833-1.666 2.199-2.065 2.998-.666 1.432-.733 1.466-1.432.966-1.133-.833-3.265-1.766-4.664-2.032l-1.299-.233.2 2.732.167 2.765-.866-.233c-.5-.133-1.699-.333-2.698-.5l-1.799-.233.2 2.199c.5 6.096 4.497 10.66 10.26 11.726 5.43.999 11.259.5 14.724-1.266 2.299-1.133 4.73-3.797 5.563-5.963.7-1.899 1.466-5.996 1.199-6.429-.167-.267-2.865 0-4.597.466-.866.233-.866.2-.666-1.233.133-.766.233-1.965.233-2.598 0-1.133-.033-1.166-1.166-1.066-1.499.1-2.898.633-4.264 1.666-.6.433-1.133.733-1.166.7-.033-.067-.433-.833-.866-1.699-.799-1.632-2.898-4.264-3.364-4.264-.167 0-.866.7-1.632 1.532zm3.231 1.932c1.799 2.698 2.199 4.664 1.965 9.927-.133 2.532-.167 4.597-.1 4.597s.466-1.033.833-2.299c.833-2.732 2.365-4.264 5.33-5.396 1.899-.7 4.764-1.332 4.997-1.099s-.7 4.264-1.199 5.297c-1.566 3.098-4.997 5.53-8.428 6.029l-1.499.2 2.265-2.065c1.965-1.799 3.231-3.431 3.231-4.164 0-.133-.633.533-1.399 1.466-1.732 2.032-5.863 5.363-6.662 5.363-.533 0-.6-.366-.6-3.498 0-2.099-.133-3.498-.333-3.498s-.333 1.399-.333 3.498c0 3.198-.067 3.498-.633 3.498-.866 0-4.63-2.931-6.462-5.063-.866-.966-1.566-1.532-1.566-1.266s1.233 1.699 2.732 3.131l2.698 2.632-1.566-.2c-3.498-.5-7.195-3.165-8.461-6.163-.766-1.766-1.432-4.997-1.066-5.23.4-.267 4.331.833 5.929 1.632 2.332 1.199 3.831 2.998 4.397 5.297.5 2.099 1.166 3.031.833 1.133-.133-.666-.233-3.098-.267-5.463-.033-3.664.067-4.464.666-5.763.966-2.065 2.732-4.397 3.198-4.264.233.1.899.866 1.499 1.732zm-8.361 2.399c1.599.899 1.865 1.566 1.699 3.997l-.1 1.632-1.066-1.899c-1.166-2.032-2.032-2.931-1.366-1.366.233.5.633 1.299.899 1.732.533.866.533.866-1.366-.1-1.133-.566-1.233-.799-1.566-2.698-.2-1.133-.366-2.165-.366-2.299 0-.433 1.699.1 3.231.999zm16.423-.333c0 .466-.167 1.466-.366 2.232-.267 1.133-.6 1.532-1.666 2.132-.7.4-1.299.666-1.299.6s.3-.666.7-1.299c.366-.666.633-1.366.566-1.566s-.633.566-1.266 1.699l-1.166 2.065-.267-1.899c-.267-1.732-.2-1.999.5-2.765.766-.799 3.031-2.032 3.864-2.065.2 0 .4.4.4.866z"/><path d="M15.975 6.63c-.56.333-.93.899-1.327 1.4-.787 1.103-1.518 2.267-1.991 3.542-.444 1.348-.375 2.789-.4 4.188.02 2.092.048 4.19.262 6.274.042.334.127.735.061 1.043-.302-.408-.408-.928-.572-1.4-.257-.946-.508-1.908-1.027-2.75C9.89 17.047 8 15.742 5.963 15.06c-1.326-.459-2.676-.894-4.072-1.073-.197-.007-.536-.076-.581.197-.102.685.08 1.375.2 2.047.385 1.688.872 3.42 1.952 4.809 1.493 1.917 3.585 3.348 5.891 4.102 1.004.33 2.064.44 3.11.554.153-.073-.091-.206-.134-.282-1.591-1.642-3.33-3.145-4.782-4.916-.128-.19-.337-.38-.375-.602.438.223.75.634 1.103.966 1.51 1.571 3.07 3.11 4.866 4.356.577.379 1.14.817 1.803 1.033.293.103.65-.051.716-.37.166-.76.11-1.55.148-2.324.036-1.179.006-2.367.121-3.539.042-.237.049-.498.166-.711.196.54.172 1.13.223 1.697.095 1.465 0 2.936.117 4.4.037.32.092.778.466.87.493.003.901-.338 1.307-.575 1.771-1.204 3.402-2.61 4.905-4.134.66-.674 1.217-1.451 1.906-2.093-.19.72-.665 1.321-1.124 1.89-1.265 1.504-2.798 2.754-4.202 4.126-.107.058-.089.22.054.167 1.256-.132 2.522-.324 3.694-.817 2.492-1.003 4.695-2.818 5.997-5.184.465-.908.678-1.92.936-2.9.184-.845.412-1.695.433-2.563-.035-.27-.381-.192-.568-.186-1.415.167-2.795.558-4.146 1-1.759.603-3.504 1.539-4.585 3.102-.775 1.061-1.132 2.34-1.535 3.572-.12.337-.226.68-.382 1.003 0-1.764.091-3.526.145-5.289.02-1.69.097-3.4-.26-5.063-.393-2.037-1.49-3.881-2.867-5.408-.149-.131-.306-.359-.512-.348l-.122.055z" style="fill:#096c02;fill-rule:evenodd;stroke:#726c65;stroke-width:0"/><path d="M6.325 9.57c-.168-.025-.328.114-.28.288.18 1.206.364 2.415.653 3.6.112.482.442.884.878 1.112.634.355 1.278.707 1.96.96.127.07.273-.064.176-.186-.472-.939-1.058-1.83-1.375-2.839-.034-.087-.004-.113.058-.042.61.625 1.005 1.419 1.46 2.156.348.566.626 1.177 1.003 1.723.155.087.137-.175.15-.263.058-.988.145-1.982.087-2.972-.034-.7-.334-1.4-.906-1.825-.924-.703-1.984-1.226-3.086-1.584a2.58 2.58 0 0 0-.778-.128Z" style="fill:#00bc00;fill-rule:evenodd;stroke:#726c65;stroke-width:0;fill-opacity:1"/><path d="M25.264 9.53c-.739.101-1.399.496-2.055.826-.848.485-1.755 1.02-2.248 1.896-.246.45-.151.989-.12 1.477.108.857.226 1.718.356 2.569.143.074.198-.179.273-.261.635-1.112 1.218-2.266 1.98-3.296.05-.046.131-.177.184-.151-.073.575-.383 1.093-.646 1.601-.209.4-.485.78-.61 1.214.088.139.282-.032.399-.058.699-.35 1.434-.687 1.994-1.246.593-.667.702-1.598.887-2.436.07-.536.23-1.095.093-1.632-.073-.232-.178-.557-.487-.504z" style="fill:#00bc00;fill-opacity:1;fill-rule:evenodd;stroke:#726c65;stroke-width:0"/></svg>