<svg xmlns="http://www.w3.org/2000/svg" width="100" height="100" viewBox="0 0 32 32"><path d="M6.64 1.943C2.514 2.86.469 5.716.045 11.041c-.212 2.962.317 5.607 1.693 8.287 1.552 3.033 8.146 8.816 11.743 10.333 2.715 1.128 5.149.564 8.816-2.081 6.348-4.584 9.345-9.063 9.663-14.424.423-7.194-2.539-11.285-8.146-11.25-3.033 0-5.008.6-6.559 2.01l-1.34 1.234-.67-.741C13.552 2.54 9.356 1.341 6.64 1.94zm5.677 1.975c1.587.811 2.715 1.869 3.385 3.139l.529 1.058.776-1.552c.388-.846 1.128-1.834 1.622-2.186 1.199-.882 4.549-1.481 6.524-1.199 5.113.776 7.335 8.534 4.232 14.882-1.834 3.738-8.005 9.345-11.602 10.58-1.34.458-1.834.494-2.927.141-2.186-.705-6.947-4.091-9.169-6.489-2.927-3.209-4.056-5.642-4.267-9.239-.282-5.008 1.27-8.358 4.338-9.522 1.728-.635 4.902-.458 6.559.388z"/><path d="M23.907 3.055c-1.584.049-3.19.29-4.657.908-.936.391-1.554 1.261-2.043 2.112-.333.636-.65 1.28-.977 1.92-.443-.94-.943-1.88-1.721-2.59-1.16-1.155-2.68-1.947-4.307-2.167-1.597-.24-3.3-.249-4.812.39-1.768.758-2.96 2.456-3.508 4.253-.597 1.96-.644 4.051-.443 6.078a12.183 12.183 0 0 0 2.08 5.694 21.747 21.747 0 0 0 4.289 4.681C9.7 25.891 11.7 27.35 13.9 28.444c.633.289 1.3.562 1.999.627 1.4-.012 2.697-.661 3.89-1.336 1.773-1.06 3.395-2.363 4.89-3.785 1.776-1.719 3.533-3.53 4.686-5.741.94-1.878 1.486-3.966 1.479-6.072.064-2.246-.459-4.561-1.743-6.429-1.013-1.487-2.685-2.583-4.513-2.64a9.555 9.555 0 0 0-.681-.013Z" style="fill:#ff2500;fill-opacity:1;fill-rule:evenodd;stroke:#726c65;stroke-width:0;stroke-miterlimit:4;stroke-dasharray:none"/></svg>