<svg xmlns="http://www.w3.org/2000/svg" width="100" height="100" viewBox="0 0 32 32"><path d="M11.428 3.39c-.983 1.865-2.102 4.001-2.509 4.713-1.424 2.78-.949 7.56.915 8.849 1.661 1.153 4.001.339 4.848-1.729.644-1.56.61-6.95-.068-9.29a93.892 93.892 0 0 1-.949-3.899L13.258 0l-1.831 3.39zm2.374 7.222c0 3.967-.034 4.204-.848 4.984-1.56 1.593-2.95.746-3.594-2.204-.441-1.899.102-3.967 1.831-6.984l1.424-2.509.576 1.254c.475.983.61 2.238.61 5.458zM18.718 1.424c-.102.712-.509 2.305-.915 3.56-.542 1.865-.644 3.017-.542 6.34.102 3.967.136 4.068 1.085 5.086.78.814 1.288 1.051 2.305 1.051 1.729 0 2.814-1.153 3.356-3.56.61-2.78.203-4.306-2.543-9.256L18.955.136l-.237 1.288zm4.17 9.968c.271 3.763-1.288 5.933-3.255 4.475-.915-.678-.915-.746-1.017-5.086-.068-3.424.034-4.679.475-5.696l.542-1.288 1.56 2.848c1.187 2.17 1.593 3.289 1.695 4.747zM3.664 12.409c-2.407 6.137-2.543 6.476-2.272 8.171.271 1.865 1.39 3.662 2.645 4.272 1.356.644 3.187-.203 3.831-1.763.441-1.051.441-1.627.034-4.374-.305-1.966-.848-4.035-1.492-5.357a73.16 73.16 0 0 1-1.288-2.983c-.305-.712-.441-.475-1.458 2.034zm1.797 1.831c.576.882 1.56 5.56 1.56 7.357 0 1.187-1.153 2.373-2.136 2.238-.407-.068-1.085-.61-1.492-1.254-1.017-1.492-1.017-3.831-.068-6.035.373-.881.848-1.966 1.017-2.407.373-.949.441-.949 1.119.102zM26.685 11.087c-.203.814-.78 2.068-1.187 2.814-1.254 2.136-1.966 8.205-1.153 9.73.203.373.881.881 1.492 1.153 2.441 1.017 4.509-.949 4.814-4.543.17-1.763.034-2.305-1.593-6.171-.983-2.339-1.797-4.272-1.865-4.34-.034-.034-.271.576-.509 1.356zm1.831 4.848c1.085 2.848 1.187 4.679.373 6.408-.881 1.831-2.678 2.034-3.526.441-.78-1.458.848-9.391 1.899-9.391.136 0 .712 1.153 1.254 2.543zM14.242 18.85c-.746.203-1.56.949-2.475 2.17-.746 1.017-1.661 2-2.034 2.204-1.695.915-2.305 4.95-1.017 7.018.949 1.56 2.339 1.865 8.239 1.729l5.052-.102.983-1.119c.881-.983.983-1.322.983-3.492v-2.407l-1.695-1.729c-.915-.983-2.17-2.339-2.78-3.051-.915-1.017-1.39-1.288-2.645-1.424-.848-.068-2.034 0-2.611.203zm4.543 2.238c.509.712 1.627 1.933 2.475 2.712 1.458 1.424 1.526 1.56 1.526 3.458 0 1.492-.17 2.17-.644 2.712-.61.678-.983.712-6.171.712-6.476 0-6.577-.068-6.577-3.458 0-1.831.068-2 1.627-3.594.881-.915 2-2.136 2.475-2.746.814-.915 1.119-1.051 2.611-1.051 1.593 0 1.797.102 2.678 1.254z"/><path d="M16.013 19.788c-.702.004-1.503 0-2.041.53-.772.768-1.43 1.642-2.192 2.419-.677.753-1.44 1.437-2.028 2.264-.283.403-.4.893-.388 1.382.003.877-.048 1.76.05 2.631.084.568.42 1.122.976 1.327.905.348 1.895.34 2.85.374 2.405.015 4.812.023 7.216-.043.653-.057 1.405-.174 1.803-.759.603-.782.56-1.827.588-2.762-.016-.762.025-1.62-.49-2.245-.842-1.023-1.868-1.877-2.73-2.883-.575-.603-.992-1.356-1.639-1.892-.562-.422-1.317-.32-1.975-.343z" style="fill:#3f373c;fill-rule:evenodd;stroke:#726c65;stroke-width:0;fill-opacity:1"/><path d="M27.227 13.335c-.381.139-.535.575-.705.908-.648 1.567-.978 3.245-1.231 4.915-.147 1.09-.27 2.205-.1 3.3.224.85 1.088 1.598 2 1.436.934-.172 1.552-1.026 1.889-1.855.635-1.535.41-3.264-.058-4.81-.384-1.232-.865-2.441-1.484-3.574-.083-.112-.157-.3-.311-.32zM19.623 3.786c-.203.272-.293.628-.441.936a6.316 6.316 0 0 0-.555 2.059c-.115 1.171-.06 2.352-.07 3.528.029 1.427.011 2.861.192 4.279.057.491.306.957.727 1.23.462.36 1.052.673 1.654.523.64-.141 1.081-.718 1.331-1.29.443-.95.513-2.01.496-3.042.03-1.106-.214-2.204-.647-3.22-.631-1.475-1.458-2.855-2.216-4.267-.141-.242-.264-.497-.423-.727-.015.023-.032-.016-.048-.01zM12.595 3.878c-.417.612-.751 1.287-1.126 1.928-.965 1.715-1.968 3.483-2.252 5.46-.186 1.352.116 2.744.713 3.959.294.538.728 1.151 1.395 1.2.74.064 1.359-.443 1.828-.956.474-.442.61-1.107.646-1.728.092-1.686.06-3.377.03-5.065-.046-1.288-.096-2.632-.703-3.8-.169-.327-.274-.703-.49-.999-.012-.005-.027 0-.04 0zM4.771 13.374c-.264.09-.327.427-.443.648-.48 1.196-1.051 2.36-1.44 3.59-.43 1.522-.501 3.249.263 4.68.382.654.905 1.299 1.632 1.577.83.134 1.59-.465 1.977-1.154.254-.416.347-.906.302-1.388-.095-1.68-.442-3.335-.828-4.968-.204-.728-.349-1.494-.735-2.153-.212-.289-.369-.67-.704-.832a.108.108 0 0 0-.024 0z" style="fill:#3f373c;fill-opacity:1;fill-rule:evenodd;stroke:#726c65;stroke-width:0"/></svg>