<?xml version="1.0" encoding="UTF-8" standalone="no"?>
<!-- Generated by IcoMoon.io -->

<svg
   version="1.1"
   width="100px"
   height="100px"
   viewBox="0 0 32 32"
   id="svg14"
   sodipodi:docname="hunter-osrs.svg"
   inkscape:version="1.1 (c68e22c387, 2021-05-23)"
   xmlns:inkscape="http://www.inkscape.org/namespaces/inkscape"
   xmlns:sodipodi="http://sodipodi.sourceforge.net/DTD/sodipodi-0.dtd"
   xmlns="http://www.w3.org/2000/svg"
   xmlns:svg="http://www.w3.org/2000/svg">
  <defs
     id="defs18" />
  <sodipodi:namedview
     id="namedview16"
     pagecolor="#ffffff"
     bordercolor="#666666"
     borderopacity="1.0"
     inkscape:pageshadow="2"
     inkscape:pageopacity="0.0"
     inkscape:pagecheckerboard="0"
     showgrid="false"
     inkscape:zoom="26"
     inkscape:cx="15.980769"
     inkscape:cy="16.019231"
     inkscape:window-width="1920"
     inkscape:window-height="1017"
     inkscape:window-x="1912"
     inkscape:window-y="-8"
     inkscape:window-maximized="1"
     inkscape:current-layer="svg14" />
  <title
     id="title2">hunter-osrs</title>
  <path
     d="M11.428 3.39c-0.983 1.865-2.102 4.001-2.509 4.713-1.424 2.78-0.949 7.56 0.915 8.849 1.661 1.153 4.001 0.339 4.848-1.729 0.644-1.56 0.61-6.95-0.068-9.29-0.271-1.017-0.712-2.78-0.949-3.899l-0.407-2.034-1.831 3.39zM13.802 10.612c0 3.967-0.034 4.204-0.848 4.984-1.56 1.593-2.95 0.746-3.594-2.204-0.441-1.899 0.102-3.967 1.831-6.984l1.424-2.509 0.576 1.254c0.475 0.983 0.61 2.238 0.61 5.458z"
     id="path4" />
  <path
     d="M18.718 1.424c-0.102 0.712-0.509 2.305-0.915 3.56-0.542 1.865-0.644 3.017-0.542 6.34 0.102 3.967 0.136 4.068 1.085 5.086 0.78 0.814 1.288 1.051 2.305 1.051 1.729 0 2.814-1.153 3.356-3.56 0.61-2.78 0.203-4.306-2.543-9.256l-2.509-4.509-0.237 1.288zM22.888 11.392c0.271 3.763-1.288 5.933-3.255 4.475-0.915-0.678-0.915-0.746-1.017-5.086-0.068-3.424 0.034-4.679 0.475-5.696l0.542-1.288 1.56 2.848c1.187 2.17 1.593 3.289 1.695 4.747z"
     id="path6" />
  <path
     d="M3.664 12.409c-2.407 6.137-2.543 6.476-2.272 8.171 0.271 1.865 1.39 3.662 2.645 4.272 1.356 0.644 3.187-0.203 3.831-1.763 0.441-1.051 0.441-1.627 0.034-4.374-0.305-1.966-0.848-4.035-1.492-5.357-0.542-1.187-1.119-2.543-1.288-2.983-0.305-0.712-0.441-0.475-1.458 2.034zM5.461 14.24c0.576 0.882 1.56 5.56 1.56 7.357 0 1.187-1.153 2.373-2.136 2.238-0.407-0.068-1.085-0.61-1.492-1.254-1.017-1.492-1.017-3.831-0.068-6.035 0.373-0.881 0.848-1.966 1.017-2.407 0.373-0.949 0.441-0.949 1.119 0.102z"
     id="path8" />
  <path
     d="M26.685 11.087c-0.203 0.814-0.78 2.068-1.187 2.814-1.254 2.136-1.966 8.205-1.153 9.73 0.203 0.373 0.881 0.881 1.492 1.153 2.441 1.017 4.509-0.949 4.814-4.543 0.17-1.763 0.034-2.305-1.593-6.171-0.983-2.339-1.797-4.272-1.865-4.34-0.034-0.034-0.271 0.576-0.509 1.356zM28.516 15.935c1.085 2.848 1.187 4.679 0.373 6.408-0.881 1.831-2.678 2.034-3.526 0.441-0.78-1.458 0.848-9.391 1.899-9.391 0.136 0 0.712 1.153 1.254 2.543z"
     id="path10" />
  <path
     d="M14.242 18.85c-0.746 0.203-1.56 0.949-2.475 2.17-0.746 1.017-1.661 2-2.034 2.204-1.695 0.915-2.305 4.95-1.017 7.018 0.949 1.56 2.339 1.865 8.239 1.729l5.052-0.102 0.983-1.119c0.881-0.983 0.983-1.322 0.983-3.492v-2.407l-1.695-1.729c-0.915-0.983-2.17-2.339-2.78-3.051-0.915-1.017-1.39-1.288-2.645-1.424-0.848-0.068-2.034 0-2.611 0.203zM18.785 21.088c0.509 0.712 1.627 1.933 2.475 2.712 1.458 1.424 1.526 1.56 1.526 3.458 0 1.492-0.17 2.17-0.644 2.712-0.61 0.678-0.983 0.712-6.171 0.712-6.476 0-6.577-0.068-6.577-3.458 0-1.831 0.068-2 1.627-3.594 0.881-0.915 2-2.136 2.475-2.746 0.814-0.915 1.119-1.051 2.611-1.051 1.593 0 1.797 0.102 2.678 1.254z"
     id="path12" />
  <path
     style="fill:#3f373c;fill-rule:evenodd;stroke:#726c65;stroke-width:0;fill-opacity:1"
     d="m 16.013372,19.788386 c -0.702437,0.0032 -1.503687,2.32e-4 -2.041842,0.529372 -0.771476,0.767796 -1.430209,1.642515 -2.192026,2.41924 -0.676728,0.752515 -1.438714,1.436853 -2.0275509,2.263828 -0.2832878,0.403556 -0.4007295,0.893613 -0.3878455,1.382437 0.00284,0.876269 -0.048155,1.758792 0.04988,2.63101 0.083607,0.567524 0.4192681,1.121539 0.9763374,1.327224 0.904304,0.34735 1.895166,0.33896 2.849597,0.373675 2.405272,0.01489 4.811741,0.02321 7.216208,-0.04367 0.652381,-0.05631 1.404705,-0.173676 1.803035,-0.758413 0.602836,-0.782092 0.559293,-1.827538 0.587456,-2.76247 -0.01533,-0.761795 0.02496,-1.619942 -0.490026,-2.244892 -0.841875,-1.023066 -1.867582,-1.877138 -2.730388,-2.882598 -0.574234,-0.603002 -0.990829,-1.356277 -1.637926,-1.891816 -0.561996,-0.42247 -1.317566,-0.319877 -1.974909,-0.342924 z"
     id="path872" />
  <path
     style="fill:#3f373c;fill-opacity:1;fill-rule:evenodd;stroke:#726c65;stroke-width:0"
     d="m 27.226863,13.334811 c -0.38085,0.138759 -0.534836,0.574842 -0.704503,0.908439 -0.648798,1.566448 -0.9784,3.244768 -1.231626,4.9147 -0.146766,1.089631 -0.270293,2.205337 -0.100004,3.299157 0.224392,0.85032 1.087817,1.599112 2.001052,1.437349 0.933469,-0.172862 1.551663,-1.026905 1.887921,-1.855694 0.635069,-1.534918 0.410457,-3.263275 -0.05794,-4.810123 -0.384136,-1.232038 -0.864974,-2.440599 -1.483943,-3.573964 -0.08299,-0.111517 -0.156376,-0.299504 -0.310957,-0.319864 z"
     id="path1022" />
  <path
     style="fill:#3f373c;fill-opacity:1;fill-rule:evenodd;stroke:#726c65;stroke-width:0"
     d="m 19.623047,3.7855319 c -0.202953,0.2725709 -0.292897,0.6283429 -0.441145,0.9365691 -0.298483,0.6509178 -0.490076,1.3452364 -0.555111,2.0588911 -0.114623,1.1714283 -0.05995,2.3523875 -0.06903,3.5278219 0.02782,1.42669 0.0103,2.861337 0.191637,4.279007 0.05708,0.491281 0.305328,0.957468 0.726787,1.23025 0.46192,0.359794 1.051422,0.673284 1.653777,0.523125 0.639643,-0.141537 1.081446,-0.717936 1.33143,-1.291091 0.442127,-0.94882 0.512194,-2.009863 0.495118,-3.041089 C 22.986554,10.902664 22.742875,9.8045831 22.309781,8.7896212 21.678852,7.3141452 20.85203,5.9335983 20.094317,4.5217755 19.953006,4.2801385 19.830433,4.0250443 19.671349,3.794997 c -0.01526,0.023339 -0.03251,-0.015949 -0.0483,-0.00947 z"
     id="path1061" />
  <path
     style="fill:#3f373c;fill-opacity:1;fill-rule:evenodd;stroke:#726c65;stroke-width:0"
     d="m 12.595102,3.8778546 c -0.417184,0.6122353 -0.751124,1.2867589 -1.126083,1.92839 -0.965347,1.7147854 -1.9680072,3.4830416 -2.2519968,5.4606574 -0.1861367,1.351038 0.1159926,2.742689 0.7126265,3.95789 0.2941393,0.537992 0.7280573,1.151645 1.3950963,1.199412 0.74067,0.06494 1.359068,-0.442128 1.828207,-0.954899 0.474478,-0.442221 0.610916,-1.106867 0.64584,-1.728123 0.09239,-1.686355 0.06069,-3.377512 0.03004,-5.0653805 -0.04562,-1.2876344 -0.09569,-2.631984 -0.702354,-3.8006503 -0.16912,-0.3265911 -0.274166,-0.7017321 -0.48968,-0.9978225 -0.01293,-0.00572 -0.02775,7.85e-5 -0.04169,5.259e-4 z"
     id="path1100" />
  <path
     style="fill:#3f373c;fill-opacity:1;fill-rule:evenodd;stroke:#726c65;stroke-width:0"
     d="m 4.771259,13.373648 c -0.2639743,0.09125 -0.3270134,0.426899 -0.443249,0.648765 -0.4798496,1.195698 -1.0512387,2.359795 -1.4404877,3.590222 -0.4298556,1.521857 -0.5005074,3.248403 0.2638449,4.678531 0.3817843,0.654758 0.904716,1.299393 1.631235,1.577674 0.8307131,0.1344 1.5897726,-0.464349 1.9772386,-1.154072 C 7.0136927,22.299137 7.1070427,21.809026 7.0624219,21.326564 6.9671288,19.647254 6.6199554,17.992143 6.2340651,16.358663 6.0300312,15.630782 5.8853431,14.864582 5.4986478,14.205904 5.2873462,13.917397 5.1302739,13.535984 4.7946965,13.373873 c -0.00777,-10e-4 -0.015648,-9.29e-4 -0.023437,-2.25e-4 z"
     id="path1139" />
</svg>
