<svg xmlns="http://www.w3.org/2000/svg" width="100" height="100" viewBox="0 0 32 32"><path d="M13.055 2.18c-1.756.878-4.356 3.41-5.166 5.031-.338.675-.709 2.229-.777 3.478-.135 1.621-.473 2.769-1.216 4.119-1.148 2.161-1.047 2.262 1.823 1.384.912-.27 1.722-.506 1.79-.506.304 0-.439 1.925-1.351 3.579l-1.047 1.823-1.047-.574C3.397 19.163.763 20.413.155 23.35c-1.148 5.301 3.984 7.53 16.173 7.091 8.407-.338 13.101-1.688 14.587-4.187.81-1.418 1.351-4.525.945-5.571-.574-1.553-1.519-1.452-5.031.608-1.081.642-1.114.642-1.486 0-.203-.371-.945-1.283-1.621-2.026-1.79-1.958-2.195-2.904-3.039-7.057-.675-3.41-2.127-7.496-3.241-9.184-.473-.743-1.823-1.519-2.6-1.519-.236 0-1.047.304-1.79.675zm4.322 3.41c.844 1.722 1.553 3.95 2.127 6.753.608 2.904 1.182 4.66 1.857 5.774.912 1.519.945 1.587.338 2.127-.371.338-1.317.574-2.532.608-1.418.068-1.992.236-2.229.675-.405.675-3.309.777-5.943.236-2.296-.506-2.735-.844-2.195-1.587 1.351-1.925 1.688-2.667 1.891-4.254.203-1.351.473-1.925 1.418-2.836.675-.608 1.047-1.114.878-1.114-.27 0-.81.371-3.275 2.161-.371.27-1.114.608-1.621.743l-.945.203.54-1.283c.473-1.114.777-3.073.844-5.234 0-.912 2.229-3.545 3.95-4.66 1.114-.743 1.925-1.047 2.634-.979.912.101 1.148.405 2.262 2.667zm13.438 16.613c0 2.229-1.216 4.288-3.073 5.2-2.532 1.249-6.787 1.79-13.911 1.79-7.53 0-9.691-.405-11.615-2.262-1.114-1.013-1.182-1.216-1.013-2.667.203-1.823 1.283-3.174 2.6-3.174.506 0 1.587.371 2.397.844 3.782 2.161 5.673 2.904 7.867 3.106 1.249.101 2.33.338 2.431.473.439.709 4.862-.27 4.862-1.047 0-.169.675-.743 1.486-1.283 1.486-1.013 1.519-1.013 1.958-.338s.506.675 1.553.135c.574-.304 1.621-.912 2.296-1.384 1.79-1.216 2.161-1.114 2.161.608z"/><path d="M14.826 2.874c-1.007.053-1.879.646-2.682 1.202a14.12 14.12 0 0 0-3.13 3.258c-.322.476-.598 1.02-.564 1.612-.072 1.408-.198 2.842-.609 4.2-.19.662-.524 1.276-.722 1.931.11.106.297-.022.432-.022a5.742 5.742 0 0 0 2.256-.937c1.002-.66 1.925-1.443 2.977-2.023.04-.023.226-.103.142.013-.619.843-1.58 1.443-1.963 2.453-.408 1.055-.328 2.24-.82 3.27-.394.933-1.043 1.72-1.538 2.596-.184.274.023.598.28.73.745.398 1.593.542 2.411.715 1.56.29 3.176.413 4.749.145a1.61 1.61 0 0 0 1.029-.56c.221-.263.55-.375.882-.415 1.135-.198 2.342-.077 3.422-.533.338-.188.72-.458.787-.864-.072-.5-.409-.915-.635-1.355-.88-1.441-1.295-3.095-1.69-4.724-.513-2.317-.99-4.66-1.91-6.86-.455-1.065-.943-2.128-1.576-3.101-.262-.41-.696-.722-1.196-.723a3.874 3.874 0 0 0-.332-.008z" style="fill:#1b0692;fill-opacity:1;fill-rule:evenodd;stroke:#726c65;stroke-width:0"/><path d="M30.262 20.739c-.565.058-1.025.445-1.5.72-1.007.643-2.011 1.317-3.118 1.78-.201.095-.464.072-.582-.138-.228-.243-.348-.637-.684-.756-.419-.052-.755.289-1.095.477-.65.453-1.344.872-1.88 1.464-.107.151-.136.354-.318.449-.786.515-1.73.708-2.643.865-.588.066-1.199.166-1.774-.015a1.362 1.362 0 0 0-.596-.295c-1.37-.332-2.811-.29-4.16-.728-2.181-.65-4.13-1.854-6.133-2.903-.812-.397-1.76-.808-2.67-.5-.972.395-1.58 1.38-1.824 2.365-.135.634-.253 1.29-.19 1.94.103.695.725 1.132 1.184 1.6.985.965 2.301 1.516 3.646 1.752 1.737.308 3.508.376 5.27.41 2.422-.003 4.847.004 7.269-.066 2.617-.16 5.27-.33 7.79-1.11 1.077-.334 2.155-.805 2.933-1.65a5.881 5.881 0 0 0 1.633-3.424c.011-.596.058-1.202-.038-1.793-.062-.23-.25-.49-.52-.444z" style="fill:#1b0692;fill-opacity:1;fill-rule:evenodd;stroke:#726c65;stroke-width:0"/></svg>