<?xml version="1.0" encoding="UTF-8" standalone="no"?>
<!-- Generated by IcoMoon.io -->

<svg
   version="1.1"
   width="100px"
   height="100px"
   viewBox="0 0 32 32"
   id="svg6"
   sodipodi:docname="magic-osrs.svg"
   inkscape:version="1.1 (c68e22c387, 2021-05-23)"
   xmlns:inkscape="http://www.inkscape.org/namespaces/inkscape"
   xmlns:sodipodi="http://sodipodi.sourceforge.net/DTD/sodipodi-0.dtd"
   xmlns="http://www.w3.org/2000/svg"
   xmlns:svg="http://www.w3.org/2000/svg">
  <defs
     id="defs10" />
  <sodipodi:namedview
     id="namedview8"
     pagecolor="#ffffff"
     bordercolor="#666666"
     borderopacity="1.0"
     inkscape:pageshadow="2"
     inkscape:pageopacity="0.0"
     inkscape:pagecheckerboard="0"
     showgrid="false"
     inkscape:zoom="26"
     inkscape:cx="15.980769"
     inkscape:cy="16.019231"
     inkscape:window-width="1920"
     inkscape:window-height="1017"
     inkscape:window-x="1912"
     inkscape:window-y="-8"
     inkscape:window-maximized="1"
     inkscape:current-layer="svg6" />
  <title
     id="title2">magic-osrs</title>
  <path
     d="M13.055 2.18c-1.756 0.878-4.356 3.41-5.166 5.031-0.338 0.675-0.709 2.229-0.777 3.478-0.135 1.621-0.473 2.769-1.216 4.119-1.148 2.161-1.047 2.262 1.823 1.384 0.912-0.27 1.722-0.506 1.79-0.506 0.304 0-0.439 1.925-1.351 3.579l-1.047 1.823-1.047-0.574c-2.667-1.351-5.301-0.101-5.909 2.836-1.148 5.301 3.984 7.53 16.173 7.091 8.407-0.338 13.101-1.688 14.587-4.187 0.81-1.418 1.351-4.525 0.945-5.571-0.574-1.553-1.519-1.452-5.031 0.608-1.081 0.642-1.114 0.642-1.486 0-0.203-0.371-0.945-1.283-1.621-2.026-1.79-1.958-2.195-2.904-3.039-7.057-0.675-3.41-2.127-7.496-3.241-9.184-0.473-0.743-1.823-1.519-2.6-1.519-0.236 0-1.047 0.304-1.79 0.675zM17.377 5.59c0.844 1.722 1.553 3.95 2.127 6.753 0.608 2.904 1.182 4.66 1.857 5.774 0.912 1.519 0.945 1.587 0.338 2.127-0.371 0.338-1.317 0.574-2.532 0.608-1.418 0.068-1.992 0.236-2.229 0.675-0.405 0.675-3.309 0.777-5.943 0.236-2.296-0.506-2.735-0.844-2.195-1.587 1.351-1.925 1.688-2.667 1.891-4.254 0.203-1.351 0.473-1.925 1.418-2.836 0.675-0.608 1.047-1.114 0.878-1.114-0.27 0-0.81 0.371-3.275 2.161-0.371 0.27-1.114 0.608-1.621 0.743l-0.945 0.203 0.54-1.283c0.473-1.114 0.777-3.073 0.844-5.234 0-0.912 2.229-3.545 3.95-4.66 1.114-0.743 1.925-1.047 2.634-0.979 0.912 0.101 1.148 0.405 2.262 2.667zM30.815 22.203c0 2.229-1.216 4.288-3.073 5.2-2.532 1.249-6.787 1.79-13.911 1.79-7.53 0-9.691-0.405-11.615-2.262-1.114-1.013-1.182-1.216-1.013-2.667 0.203-1.823 1.283-3.174 2.6-3.174 0.506 0 1.587 0.371 2.397 0.844 3.782 2.161 5.673 2.904 7.867 3.106 1.249 0.101 2.33 0.338 2.431 0.473 0.439 0.709 4.862-0.27 4.862-1.047 0-0.169 0.675-0.743 1.486-1.283 1.486-1.013 1.519-1.013 1.958-0.338s0.506 0.675 1.553 0.135c0.574-0.304 1.621-0.912 2.296-1.384 1.79-1.216 2.161-1.114 2.161 0.608z"
     id="path4" />
  <path
     style="fill:#1b0692;fill-opacity:1;fill-rule:evenodd;stroke:#726c65;stroke-width:0"
     d="m 14.826397,2.8738732 c -1.007535,0.053291 -1.8789,0.6462444 -2.682561,1.2020456 C 10.937018,4.9845307 9.8715798,6.0897833 9.0146484,7.3341346 8.6917527,7.8104804 8.4156188,8.3538938 8.44997,8.9463642 8.3776263,10.353862 8.2524984,11.788058 7.8414964,13.14671 c -0.1908721,0.661222 -0.5241461,1.275239 -0.7220553,1.930438 0.1089942,0.106261 0.2969308,-0.02189 0.4314098,-0.02257 0.8080581,-0.152085 1.5834598,-0.460712 2.256412,-0.936153 1.0017141,-0.659812 1.9244131,-1.443394 2.9769171,-2.023768 0.04022,-0.02218 0.226147,-0.102169 0.141526,0.01314 -0.618533,0.843158 -1.579856,1.443236 -1.962891,2.45275 -0.407827,1.05555 -0.327793,2.240006 -0.819202,3.27134 -0.3949498,0.932066 -1.0433243,1.71909 -1.5385198,2.594721 -0.1836535,0.274377 0.023048,0.598731 0.280649,0.729642 0.743767,0.399087 1.5926558,0.542583 2.4102088,0.715433 1.560526,0.289414 3.176194,0.41351 4.748577,0.145469 0.399097,-0.0569 0.772265,-0.245677 1.029165,-0.560421 0.221588,-0.262659 0.55034,-0.374638 0.882061,-0.414739 1.134954,-0.198199 2.34205,-0.0774 3.422626,-0.532527 0.337483,-0.188829 0.719441,-0.458098 0.786734,-0.864858 C 22.093153,19.144355 21.756347,18.72968 21.530123,18.290189 20.649455,16.848834 20.235068,15.19473 19.840268,13.565807 19.327471,11.24872 18.849957,8.9053742 17.930297,6.7066748 17.475065,5.6405296 16.987327,4.578222 16.353891,3.6047927 16.092485,3.1958521 15.657677,2.8829123 15.158203,2.8815355 c -0.110393,-0.00756 -0.221188,-0.00958 -0.331806,-0.00766 z"
     id="path1284" />
  <path
     style="fill:#1b0692;fill-opacity:1;fill-rule:evenodd;stroke:#726c65;stroke-width:0"
     d="m 30.261643,20.738507 c -0.5644,0.05894 -1.024516,0.44581 -1.50045,0.720703 -1.006588,0.642907 -2.010224,1.316475 -3.117561,1.77928 -0.200829,0.09546 -0.463544,0.07216 -0.581207,-0.137153 -0.228551,-0.243481 -0.348822,-0.637743 -0.684796,-0.756535 -0.418561,-0.05131 -0.754138,0.289128 -1.094451,0.477128 -0.650396,0.452771 -1.344379,0.872305 -1.880308,1.464203 -0.106809,0.151241 -0.135999,0.35435 -0.317533,0.448618 -0.785956,0.515367 -1.730942,0.708223 -2.643555,0.865009 -0.587479,0.06626 -1.198542,0.166607 -1.774039,-0.01472 C 16.494085,25.44553 16.297488,25.331986 16.072491,25.289513 14.701184,24.957573 13.260962,25.0002 11.912814,24.561695 9.7305969,23.912899 7.7822038,22.708366 5.7788354,21.659137 4.9667888,21.262257 4.0185164,20.850938 3.1090745,21.158654 c -0.972261,0.395556 -1.5799446,1.379815 -1.8241185,2.36526 -0.134784,0.633738 -0.2525543,1.289783 -0.1901543,1.939277 0.1027149,0.695941 0.7252428,1.132536 1.1845819,1.600606 0.9850134,0.965309 2.3009332,1.51653 3.6452033,1.751935 1.73766,0.308061 3.5084119,0.375979 5.2695231,0.410608 2.42326,-0.0036 4.847603,0.0038 7.269908,-0.06601 2.616799,-0.159703 5.270123,-0.331147 7.78917,-1.110939 1.077933,-0.333858 2.155461,-0.804509 2.933636,-1.649754 0.9064,-0.914632 1.482864,-2.147604 1.633263,-3.423452 0.01114,-0.596399 0.05788,-1.202237 -0.03854,-1.793344 -0.06152,-0.229273 -0.250456,-0.489135 -0.519907,-0.444336 z"
     id="path1323" />
</svg>
