<svg xmlns="http://www.w3.org/2000/svg" width="100" height="100" viewBox="0 0 32 32"><path d="m11.373.511-5.772.509-2.105 2.037-2.105 2.071-.102 2.682c-.068 1.46-.034 2.648.068 2.648s1.324-1.154 2.716-2.546l2.512-2.546h9.914l3.327 3.395-3.531 3.701c-1.969 2.037-4.753 5.127-6.247 6.824-1.46 1.698-2.988 3.225-3.395 3.395-.373.17-2.071 1.664-3.735 3.327C-.07 29.03-.07 29.03.168 30.388c.204 1.29.306 1.392 1.562 1.562 1.46.204 1.426.238 10.355-9.201 1.63-1.698 3.191-3.124 3.463-3.124s2.173-1.63 4.21-3.633l3.667-3.633 3.395 3.327v9.88l-5.432 5.432 5.67-.204 4.074-4.21.407-4.583c.645-7.775.611-8.114-1.154-10.932l-1.562-2.478.883-.102c.815-.102.849-.204.849-2.411 0-2.139-.068-2.343-1.12-3.361s-1.29-1.086-3.429-1.086c-2.275 0-2.309 0-2.173.849.102.475.102.849.034.849-.306 0-4.855-2.818-5.059-3.09-.204-.34.068-.373-7.435.272zm8.997 2.342c3.327 2.037 6.451 5.093 8.692 8.522l1.833 2.818-.34 4.142c-.611 7.741-.543 7.367-2.309 9.303-.951 1.019-1.969 1.799-2.512 1.901s-.951.068-.951-.034c0-.136.781-.985 1.698-1.901l1.698-1.664V15.381L16.805 4.007H6.246L4.582 5.705c-.917.917-1.765 1.698-1.901 1.698-.645 0 .34-2.037 1.732-3.463l1.596-1.664 5.229-.441c2.886-.238 5.534-.475 5.908-.509.407 0 1.833.679 3.225 1.528zm-1.256 11.781c-1.833 1.833-3.735 3.565-4.244 3.837-.917.475-1.969.34-1.969-.238 0-.17 1.765-2.139 3.972-4.38l3.938-4.074 1.63 1.494-3.327 3.361z"/><path d="M20.778 9.734c-2.14 2.228-4.319 4.419-6.425 6.679-.514.589-1.084 1.143-1.507 1.804-.03.245.21.467.436.523.556.174 1.173.015 1.668-.26.926-.643 1.732-1.442 2.557-2.206 1.672-1.645 3.358-3.277 4.97-4.98-.031-.188-.302-.295-.421-.452-.42-.368-.815-.782-1.25-1.122z" style="fill:#463c2f;fill-rule:evenodd;stroke:#726c65;stroke-width:0;fill-opacity:1"/><path d="M17.083 1.282c-2.837.229-5.672.484-8.509.717-.862.08-1.734.129-2.59.23-.884.94-1.849 1.817-2.598 2.873-.397.609-.83 1.242-.955 1.971-.058.191.105.47.32.35.563-.342.992-.86 1.473-1.302.696-.687 1.386-1.38 2.08-2.071h10.464l11.336 11.336v10.537c-1.088 1.105-2.232 2.158-3.243 3.336-.082.092-.236.288-.043.355.43.12.897.003 1.3-.161 1.046-.56 1.864-1.45 2.656-2.314.571-.6 1.008-1.339 1.162-2.16.316-1.65.393-3.333.548-5.003.143-1.9.326-3.799.448-5.7-.158-.46-.49-.843-.734-1.26-.946-1.476-1.904-2.949-3.037-4.29-2.465-2.958-5.51-5.479-9.005-7.125-.343-.139-.693-.33-1.073-.319Z" style="fill:#757b7c;fill-opacity:1;fill-rule:evenodd;stroke:#726c65;stroke-width:0"/></svg>