<?xml version="1.0" encoding="UTF-8" standalone="no"?>
<!-- Generated by IcoMoon.io -->

<svg
   version="1.1"
   width="100px"
   height="100px"
   viewBox="0 0 32 32"
   id="svg6"
   sodipodi:docname="mining-osrs.svg"
   inkscape:version="1.1 (c68e22c387, 2021-05-23)"
   xmlns:inkscape="http://www.inkscape.org/namespaces/inkscape"
   xmlns:sodipodi="http://sodipodi.sourceforge.net/DTD/sodipodi-0.dtd"
   xmlns="http://www.w3.org/2000/svg"
   xmlns:svg="http://www.w3.org/2000/svg">
  <defs
     id="defs10" />
  <sodipodi:namedview
     id="namedview8"
     pagecolor="#ffffff"
     bordercolor="#666666"
     borderopacity="1.0"
     inkscape:pageshadow="2"
     inkscape:pageopacity="0.0"
     inkscape:pagecheckerboard="0"
     showgrid="false"
     inkscape:zoom="26"
     inkscape:cx="15.980769"
     inkscape:cy="16.019231"
     inkscape:window-width="1920"
     inkscape:window-height="1017"
     inkscape:window-x="1912"
     inkscape:window-y="-8"
     inkscape:window-maximized="1"
     inkscape:current-layer="svg6" />
  <title
     id="title2">mining-osrs</title>
  <path
     d="M11.373 0.511l-5.772 0.509-2.105 2.037-2.105 2.071-0.102 2.682c-0.068 1.46-0.034 2.648 0.068 2.648s1.324-1.154 2.716-2.546l2.512-2.546h9.914l3.327 3.395-3.531 3.701c-1.969 2.037-4.753 5.127-6.247 6.824-1.46 1.698-2.988 3.225-3.395 3.395-0.373 0.17-2.071 1.664-3.735 3.327-2.988 3.022-2.988 3.022-2.75 4.38 0.204 1.29 0.306 1.392 1.562 1.562 1.46 0.204 1.426 0.238 10.355-9.201 1.63-1.698 3.191-3.124 3.463-3.124s2.173-1.63 4.21-3.633l3.667-3.633 3.395 3.327v9.88l-5.432 5.432 5.67-0.204 4.074-4.21 0.407-4.583c0.645-7.775 0.611-8.114-1.154-10.932l-1.562-2.478 0.883-0.102c0.815-0.102 0.849-0.204 0.849-2.411 0-2.139-0.068-2.343-1.12-3.361s-1.29-1.086-3.429-1.086c-2.275 0-2.309 0-2.173 0.849 0.102 0.475 0.102 0.849 0.034 0.849-0.306 0-4.855-2.818-5.059-3.090-0.204-0.34 0.068-0.373-7.435 0.272zM20.37 2.853c3.327 2.037 6.451 5.093 8.692 8.522l1.833 2.818-0.34 4.142c-0.611 7.741-0.543 7.367-2.309 9.303-0.951 1.019-1.969 1.799-2.512 1.901s-0.951 0.068-0.951-0.034c0-0.136 0.781-0.985 1.698-1.901l1.698-1.664v-10.559l-11.374-11.374h-10.559l-1.664 1.698c-0.917 0.917-1.765 1.698-1.901 1.698-0.645 0 0.34-2.037 1.732-3.463l1.596-1.664 5.229-0.441c2.886-0.238 5.534-0.475 5.908-0.509 0.407 0 1.833 0.679 3.225 1.528zM19.114 14.634c-1.833 1.833-3.735 3.565-4.244 3.837-0.917 0.475-1.969 0.34-1.969-0.238 0-0.17 1.765-2.139 3.972-4.38l3.938-4.074 1.63 1.494-3.327 3.361z"
     id="path4" />
  <path
     style="fill:#463c2f;fill-rule:evenodd;stroke:#726c65;stroke-width:0;fill-opacity:1"
     d="m 20.77787,9.7341496 c -2.13929,2.2282574 -4.318634,4.4185394 -6.424435,6.6786544 -0.514771,0.58901 -1.084814,1.143318 -1.507206,1.804368 -0.03002,0.24497 0.209511,0.467245 0.435998,0.523138 0.555281,0.173593 1.172499,0.01516 1.668043,-0.260067 0.925796,-0.643591 1.732188,-1.441752 2.557109,-2.206241 1.671987,-1.644531 3.357361,-3.277138 4.97001,-4.980357 -0.0318,-0.187533 -0.302055,-0.29472 -0.42179,-0.452056 -0.420141,-0.367251 -0.814259,-0.781579 -1.24986,-1.1220127 z"
     id="path864" />
  <path
     style="fill:#757b7c;fill-opacity:1;fill-rule:evenodd;stroke:#726c65;stroke-width:0"
     d="M 17.083008,1.2823017 C 14.246193,1.5110418 11.41087,1.7663394 8.5740635,1.9985853 7.7115946,2.0791934 6.8404769,2.1276317 5.9833984,2.2282903 5.0999364,3.1681474 4.1349738,4.0455045 3.386268,5.1019381 2.9885821,5.7105619 2.5561723,6.3435338 2.4307392,7.0733173 2.3727905,7.2642738 2.5362074,7.5429012 2.7516526,7.4223258 3.3135303,7.0807165 3.7431937,6.5625758 4.2240735,6.1209096 4.9201459,5.433715 5.6099808,4.7402316 6.30311,4.05003 c 3.4881812,0 6.976362,0 10.464543,0 3.778721,3.7786708 7.557442,7.557342 11.336163,11.336013 0,3.512194 0,7.024389 0,10.536583 -1.087361,1.105076 -2.231998,2.158697 -3.242713,3.336163 -0.08172,0.09263 -0.23588,0.288459 -0.04289,0.355018 0.429146,0.120593 0.89656,0.0034 1.300105,-0.160832 1.045691,-0.559142 1.863904,-1.449105 2.655724,-2.313627 0.571017,-0.600558 1.007838,-1.339069 1.162047,-2.159889 0.31547,-1.650052 0.392824,-3.333857 0.547463,-5.003898 0.143225,-1.900259 0.326914,-3.798543 0.448919,-5.699719 -0.158658,-0.460597 -0.490517,-0.8424 -0.73407,-1.260661 C 29.252466,11.540127 28.294168,10.067153 27.161391,8.7261785 24.695738,5.7675542 21.650804,3.2472174 18.155996,1.6008078 17.813143,1.462248 17.463132,1.2701273 17.083008,1.2823017 Z"
     id="path1014" />
</svg>
