<?xml version="1.0" encoding="UTF-8" standalone="no"?>
<!-- Generated by IcoMoon.io -->

<svg
   version="1.1"
   width="100px"
   height="100px"
   viewBox="0 0 32 32"
   id="svg6"
   sodipodi:docname="prayer-osrs.svg"
   inkscape:version="1.1 (c68e22c387, 2021-05-23)"
   xmlns:inkscape="http://www.inkscape.org/namespaces/inkscape"
   xmlns:sodipodi="http://sodipodi.sourceforge.net/DTD/sodipodi-0.dtd"
   xmlns="http://www.w3.org/2000/svg"
   xmlns:svg="http://www.w3.org/2000/svg">
  <defs
     id="defs10" />
  <sodipodi:namedview
     id="namedview8"
     pagecolor="#ffffff"
     bordercolor="#666666"
     borderopacity="1.0"
     inkscape:pageshadow="2"
     inkscape:pageopacity="0.0"
     inkscape:pagecheckerboard="0"
     showgrid="false"
     inkscape:zoom="26"
     inkscape:cx="15.980769"
     inkscape:cy="16.019231"
     inkscape:window-width="1920"
     inkscape:window-height="1017"
     inkscape:window-x="1912"
     inkscape:window-y="-8"
     inkscape:window-maximized="1"
     inkscape:current-layer="svg6" />
  <title
     id="title2">prayer-osrs</title>
  <path
     d="M13.565 4.278c-1.252 2.33-2.748 4.8-3.374 5.461-0.626 0.696-3.026 2.261-5.635 3.652-2.504 1.322-4.522 2.504-4.557 2.609 0 0.104 2.052 1.252 4.557 2.609 2.678 1.426 4.974 2.922 5.635 3.652 0.626 0.696 2.122 3.165 3.374 5.496s2.33 4.244 2.435 4.244c0.104 0 1.322-2.087 2.678-4.626 1.357-2.504 2.922-5.009 3.478-5.496 0.522-0.522 2.956-1.983 5.426-3.304 2.435-1.322 4.417-2.47 4.417-2.574s-2.087-1.287-4.626-2.678c-2.539-1.391-5.009-2.957-5.496-3.478-0.522-0.522-1.983-2.957-3.304-5.426-1.322-2.435-2.47-4.417-2.574-4.417s-1.183 1.913-2.435 4.278zM18.539 6.957c2.017 3.722 3.061 4.696 7.27 6.957 3.165 1.67 4.244 2.435 3.478 2.435-0.696 0-6.922 3.617-8 4.661-0.974 0.904-2.574 3.548-4.8 7.791-0.383 0.8-0.522 0.626-2.539-2.991-1.183-2.087-2.539-4.244-3.061-4.73-0.522-0.522-2.539-1.809-4.522-2.887s-3.583-2.052-3.583-2.191c0-0.104 1.843-1.217 4.104-2.47 4.452-2.47 4.348-2.365 8.174-9.391 0.974-1.774 1.009-1.774 1.426-0.974 0.243 0.452 1.148 2.157 2.052 3.791z"
     id="path4" />
  <path
     style="fill:#e1efd7;fill-rule:evenodd;stroke:#726c65;stroke-width:0;fill-opacity:1"
     d="m 16.077223,2.6008864 c -0.289321,0.078205 -0.400977,0.4183778 -0.566305,0.637662 -1.256047,2.1443321 -2.329154,4.4016212 -3.723865,6.4611516 -0.749931,1.089762 -1.762414,1.987895 -2.9158842,2.629927 -1.9973461,1.191681 -4.083128,2.237489 -6.0215594,3.526142 -0.1085753,0.04619 -0.1822337,0.182309 -0.057617,0.257888 0.8148381,0.626615 1.7391923,1.094296 2.6228429,1.61478 1.7320491,0.98249 3.5062868,1.914909 5.0975477,3.119116 0.716699,0.548313 1.144388,1.365544 1.645895,2.095882 1.139557,1.752118 2.100684,3.610438 3.179244,5.398861 0.223656,0.312472 0.401637,0.715958 0.763515,0.890351 0.27414,0.04783 0.348163,-0.313139 0.47221,-0.480146 1.243604,-2.291243 2.432589,-4.627282 3.957243,-6.749294 0.512395,-0.74235 1.205408,-1.320769 1.949972,-1.815619 1.696011,-1.131242 3.466035,-2.15902 5.26601,-3.112488 0.57791,-0.296584 1.165817,-0.593283 1.801755,-0.736758 0.124448,-0.139821 -0.106245,-0.292235 -0.19366,-0.387395 C 28.465011,15.249787 27.438974,14.748019 26.45525,14.19498 24.611693,13.157773 22.641592,12.233157 21.149639,10.692533 19.727998,9.2300938 18.852254,7.3597204 17.863919,5.6005001 17.333948,4.6401856 16.839809,3.6587181 16.276142,2.7177734 16.225603,2.6593837 16.160414,2.5975899 16.077223,2.6008864 Z"
     id="path864" />
</svg>
