<svg xmlns="http://www.w3.org/2000/svg" width="100" height="100" viewBox="0 0 32 32"><path d="M13.565 4.278c-1.252 2.33-2.748 4.8-3.374 5.461-.626.696-3.026 2.261-5.635 3.652C2.052 14.713.034 15.895-.001 16c0 .104 2.052 1.252 4.557 2.609 2.678 1.426 4.974 2.922 5.635 3.652.626.696 2.122 3.165 3.374 5.496s2.33 4.244 2.435 4.244c.104 0 1.322-2.087 2.678-4.626 1.357-2.504 2.922-5.009 3.478-5.496.522-.522 2.956-1.983 5.426-3.304 2.435-1.322 4.417-2.47 4.417-2.574s-2.087-1.287-4.626-2.678-5.009-2.957-5.496-3.478c-.522-.522-1.983-2.957-3.304-5.426-1.322-2.435-2.47-4.417-2.574-4.417s-1.183 1.913-2.435 4.278zm4.974 2.679c2.017 3.722 3.061 4.696 7.27 6.957 3.165 1.67 4.244 2.435 3.478 2.435-.696 0-6.922 3.617-8 4.661-.974.904-2.574 3.548-4.8 7.791-.383.8-.522.626-2.539-2.991-1.183-2.087-2.539-4.244-3.061-4.73-.522-.522-2.539-1.809-4.522-2.887s-3.583-2.052-3.583-2.191c0-.104 1.843-1.217 4.104-2.47 4.452-2.47 4.348-2.365 8.174-9.391.974-1.774 1.009-1.774 1.426-.974.243.452 1.148 2.157 2.052 3.791z"/><path d="M16.077 2.6c-.29.08-.4.42-.566.639-1.256 2.144-2.33 4.401-3.724 6.46a8.64 8.64 0 0 1-2.916 2.63c-1.997 1.192-4.083 2.238-6.021 3.527-.109.046-.183.182-.058.258.815.626 1.74 1.094 2.623 1.614 1.732.983 3.506 1.915 5.097 3.12.717.548 1.145 1.365 1.646 2.095 1.14 1.753 2.101 3.61 3.18 5.4.223.312.401.715.763.89.274.047.348-.313.472-.48 1.244-2.292 2.433-4.628 3.957-6.75.513-.742 1.206-1.32 1.95-1.815a60.604 60.604 0 0 1 5.266-3.113c.578-.296 1.166-.593 1.802-.737.125-.14-.106-.292-.193-.387-.89-.701-1.916-1.203-2.9-1.756-1.843-1.037-3.813-1.962-5.305-3.502C19.728 9.23 18.852 7.36 17.864 5.6c-.53-.96-1.024-1.942-1.588-2.883-.05-.059-.116-.12-.199-.117Z" style="fill:#e1efd7;fill-rule:evenodd;stroke:#726c65;stroke-width:0;fill-opacity:1"/></svg>