<svg xmlns="http://www.w3.org/2000/svg" width="100" height="100" viewBox="0 0 1024 1024"><path d="M317.44 44.927c-35.413 17.834-92.587 46.592-126.976 63.829-34.474 17.237-63.317 32.085-64.085 32.938-1.707 1.792-29.013 54.443-37.803 72.874-2.987 6.315-11.349 22.87-18.602 36.693s-19.712 38.4-27.819 54.613c-8.106 16.213-20.906 41.301-28.416 55.894L0 388.221v125.44l.085 125.44 4.949 9.387c2.73 5.12 9.899 18.773 16.043 30.294 6.059 11.52 17.066 32.683 24.32 47.019 7.338 14.336 14.507 27.989 15.872 30.379 3.158 5.376 20.138 37.803 34.304 65.536 5.717 11.264 14.592 28.16 19.627 37.547s10.325 19.199 11.606 21.76l2.475 4.694 64.426 32.085c35.413 17.664 92.245 45.995 126.293 62.976l61.867 30.891 260.095-.085 42.752-21.589c23.467-11.861 80.213-40.107 126.037-62.89l83.37-41.301 3.158-6.485c1.707-3.498 6.741-12.971 11.093-20.906 4.352-8.021 15.958-30.294 25.856-49.493 9.813-19.285 19.883-38.656 22.357-43.094 7.253-13.142 19.712-36.949 27.051-51.626 6.059-12.032 11.349-22.102 34.902-66.56L1024 637.4V390.36l-6.059-12.203c-3.328-6.656-7.766-15.019-9.813-18.688-2.048-3.584-11.093-21.248-20.138-39.253-8.96-17.92-19.627-38.826-23.552-46.336-4.011-7.509-18.176-35.157-31.573-61.44s-27.051-53.077-30.379-59.563l-6.059-11.776-55.04-27.562c-30.294-15.104-87.978-44.117-128.256-64.341l-73.216-36.864-258.048.171-64.426 32.427zm319.402 30.634c7.595 3.84 20.566 10.155 28.758 13.994 8.192 3.926 32.17 15.53 53.162 25.942 21.077 10.41 38.4 18.859 38.571 18.859s12.715 6.059 27.904 13.483 37.206 18.262 48.981 23.979l21.504 10.496 38.571 77.824c21.248 42.752 46.251 93.098 55.637 111.872l16.981 34.134-.085 107.434v107.434l-5.888 11.606c-3.243 6.4-28.501 56.747-56.234 111.872l-50.347 100.267-58.709 28.33c-32.341 15.616-71.851 34.645-87.808 42.411s-41.472 20.053-56.662 27.307l-27.733 13.312H399.786l-25.174-12.032c-13.824-6.656-32.853-15.787-42.24-20.395-9.387-4.523-50.006-24.149-90.368-43.52l-73.216-35.328-24.149-48.213c-13.312-26.539-38.656-77.056-56.234-112.128L56.32 620.586V405.461l9.472-18.432c5.205-10.155 11.861-23.638 14.848-29.952s16.213-33.451 29.44-60.16c13.226-26.794 31.317-63.488 40.277-81.663l16.298-33.024 76.885-37.29c42.326-20.48 81.152-39.424 86.272-42.155 5.205-2.73 12.117-6.144 15.53-7.595 3.328-1.451 17.152-8.021 30.72-14.592l24.49-11.947H622.93l13.91 6.912z"/><path d="M480.427 128.98c0 11.179-.256 41.898-.597 68.266l-.512 48.042h-47.104l-39.936 39.936c-21.931 21.931-39.851 40.277-39.851 40.704 0 .512 28.587 29.44 63.573 64.426l63.573 63.573v32.853h-24.832l-134.23-129.877-36.096 36.181-36.096 36.096v56.491l-53.93.512c-29.611.342-63.829.597-75.946.597H96.427v54.613h22.016c12.117 0 46.336.256 75.946.597l53.93.512v47.957l75.946 75.946 125.013-125.013h31.147v31.402L419.241 632.1c-33.706 32.598-62.208 60.331-63.403 61.525l-2.048 2.304 77.568 77.568h49.067l.171 71.509.256 71.424h63.147l.256-71.424.171-71.509h47.019l39.68-37.974 39.68-38.058 28.33 27.648c15.616 15.189 31.402 30.379 35.157 33.621 3.755 3.328 12.203 11.52 18.773 18.091 6.57 6.656 12.203 12.032 12.629 12.032s29.184-19.798 32.853-22.613c.085-.085-21.674-22.272-48.384-49.152l-48.64-48.981 8.106-7.68c4.523-4.266 22.87-21.674 40.875-38.826l32.683-31.147.085-24.149.085-24.064h29.696c16.384 0 48.81-.256 72.106-.597l42.411-.512v-54.101l-42.411-.512c-23.296-.342-55.723-.597-72.106-.597h-29.696v-54.613l-12.117-12.032c-6.741-6.656-24.406-23.893-39.339-38.229L704.68 354.94l28.245-27.733c15.616-15.275 34.987-34.474 43.264-42.666l14.933-14.848-15.189-15.189c-8.363-8.363-15.616-15.104-16.213-15.019-.597.171-20.395 19.285-43.947 42.581l-42.923 42.326-41.13-39.509-41.13-39.594h-45.909l-.512-48.042c-.342-26.368-.597-57.088-.597-68.266v-20.224h-63.147v20.224z"/><path d="m369.744 307.904 149.752 150.974-55.01 54.565-149.752-150.974 55.01-54.565z"/><path d="M316.078 658.362 466.27 507.825l54.85 54.725-150.192 150.537-54.85-54.725z"/><path d="m327.372 667.284 30.666 31.197-87.737 86.244-30.666-31.197 87.737-86.244zM350.161 328.94l-31.348 30.513-85.811-88.16 31.348-30.513 85.811 88.16z"/><path fill="#c6bebe" d="M400.167 68.749c-77.748 37.133-155.033 75.235-232.651 112.633-38.005 74.163-74.022 149.339-111.099 223.972.003 71.971-.006 143.943.005 215.913 37.274 74.537 74.535 149.084 111.82 223.613 77.041 37.124 154.067 74.276 231.101 111.414 74.787.022 149.576.056 224.361.068 76.949-37.045 153.88-74.135 230.771-111.297 37.444-74.406 74.893-148.81 112.336-223.217.028-72.066.069-144.133.089-216.198-37.03-74.578-74.046-149.166-111.086-223.738-77.637-37.578-154.876-75.985-232.703-113.168-74.314.003-148.63-.006-222.942.005zm111.278 40.896h31.001c1.399 45.221 1.7 90.499 1.619 135.716l46.228.023c27.496 26.416 54.96 52.914 82.476 79.28 28.968-27.877 57.057-57.073 86.891-83.804 11.387 8.27 20.823 18.959 31.168 28.468-28.608 28.543-57.672 56.699-85.852 85.631 25.644 25.683 52.03 50.63 78.05 75.939.025 18.612-.038 37.26.042 55.85l143.489.62c.217 17.665.431 35.329.645 52.993-48.039 1.354-96.133 1.719-144.167 1.621l-.105 48.63c-27.31 25.863-54.496 51.91-81.991 77.545 31.982 32.754 65.516 64.174 95.96 98.322-9.772 7.981-20.57 14.673-30.856 21.982-32.547-29.555-63.504-60.942-95.369-91.229l-79.798 76.514c-15.61.022-31.257-.044-46.845.032v142.889h-62.002c-1.595-47.62-1.639-95.304-1.619-142.922h-48.613c-24.94-24.9-49.845-49.888-74.808-74.733-28.863 28.021-56.985 57.291-86.58 84.269-10.638-9.159-20.15-19.573-30.187-29.385 28.805-28.421 57.256-57.262 86.58-85.118l-78.155-78.184c-.022-16.211.044-32.458-.033-48.646-50.438.209-100.87-.649-151.296-1.591v-53.591c50.431-.497 100.976 1.178 151.329-1.595v-55.348c23.322-23.478 46.729-46.919 69.999-70.417-27.527-29.78-57.118-57.779-83.947-88.111 8.749-11.03 19.735-20.111 29.619-30.112 28.492 29.052 56.812 58.324 85.221 87.424 27.814-27.743 55.629-55.486 83.445-83.227 15.292-.026 30.617.028 45.889-.05 2.52-45.176 1.198-90.462 1.569-135.686h31.001z"/><path fill="#6083e7" d="M480.377 109.612c.206 45.234-.651 90.462-1.591 135.683-15.676.007-31.357-.013-47.03.01l-82.299 82.247c-28.546-28.956-56.93-58.123-85.357-87.163-9.859 10.305-21.438 19.599-29.873 30.949 26.94 30.07 55.837 58.351 83.786 87.487-23.142 23.227-46.306 46.438-69.434 69.673v56.612c-50.429 1.23-100.908 1.744-151.329 1.623.02 17.897-.041 35.825.03 53.701 50.402 2.191 100.866 1.396 151.299 1.579.028 16.211.031 32.425.075 48.633 25.772 25.949 51.543 51.9 77.313 77.851-28.763 28.212-57.609 56.388-86.319 84.623 10.052 9.996 18.362 22.826 31.098 29.573 5.672-2.24 9.462-8.931 14.459-12.616 24.063-22.812 47.442-47.144 71.794-69.139 25.8 23.47 50.071 48.577 75.085 72.873h48.292c.438 47.629-1.099 95.367 1.599 142.922 20.702-.021 41.441.044 62.12-.032V773.812c15.808-.013 31.623 0 47.428-.025 26.556-25.215 52.475-51.125 79.664-75.66 31.333 30.507 62.766 60.949 94.541 90.978 10.705-7.471 21.673-14.653 32.129-22.428-30.826-33.796-63.861-65.547-95.219-98.843 26.488-25.958 53.651-51.239 80.459-76.868v-48.951c48.031-.379 96.159.996 144.123-1.602-.022-17.899.044-35.835-.032-53.711h-144.09c-.007-18.643.013-37.291-.01-55.932a8393.685 8393.685 0 0 0-77.982-76.014c28.819-28.282 57.728-56.525 86.493-84.829-10.637-9.698-20.13-21.326-31.96-29.385-30.233 25.931-56.811 55.975-86.797 82.137-17.988-14.979-34.692-32.47-51.958-48.635-9.956-9.58-19.9-19.177-29.864-28.746h-46.925c-.418-45.228 1.063-90.562-1.599-135.716-20.702.021-41.441-.044-62.12.033z"/></svg>