<?xml version="1.0" encoding="UTF-8" standalone="no"?>
<!-- Generated by IcoMoon.io -->

<svg
   version="1.1"
   width="100px"
   height="100px"
   viewBox="0 0 32 32"
   id="svg6"
   sodipodi:docname="ranged-osrs.svg"
   inkscape:version="1.1 (c68e22c387, 2021-05-23)"
   xmlns:inkscape="http://www.inkscape.org/namespaces/inkscape"
   xmlns:sodipodi="http://sodipodi.sourceforge.net/DTD/sodipodi-0.dtd"
   xmlns="http://www.w3.org/2000/svg"
   xmlns:svg="http://www.w3.org/2000/svg">
  <defs
     id="defs10" />
  <sodipodi:namedview
     id="namedview8"
     pagecolor="#ffffff"
     bordercolor="#666666"
     borderopacity="1.0"
     inkscape:pageshadow="2"
     inkscape:pageopacity="0.0"
     inkscape:pagecheckerboard="0"
     showgrid="false"
     inkscape:zoom="26"
     inkscape:cx="15.980769"
     inkscape:cy="16.019231"
     inkscape:window-width="1920"
     inkscape:window-height="1017"
     inkscape:window-x="1912"
     inkscape:window-y="-8"
     inkscape:window-maximized="1"
     inkscape:current-layer="svg6" />
  <title
     id="title2">ranged-osrs</title>
  <path
     d="M0.476 0.546c-0.917 0.917-0.459 2.893 0.953 4.057 0.635 0.564 1.305 0.988 1.517 0.988s2.787 2.434 5.75 5.398l5.398 5.398-0.847 0.776c-0.67 0.635-1.27 0.776-3.387 0.811-2.47 0.035-2.611 0.106-4.445 1.623-1.905 1.552-1.94 1.588-1.94 3.493v1.905h1.164c1.446 0 2.364 1.023 2.364 2.646v1.235h2.046c2.011-0.035 2.011-0.035 3.493-1.905 1.446-1.799 1.517-1.976 1.517-4.339 0-2.223 0.106-2.54 0.988-3.387l0.988-0.953 5.151 5.221c2.822 2.858 5.398 5.715 5.715 6.315 0.776 1.588 1.976 2.293 3.634 2.152 1.164-0.106 1.341-0.247 1.446-1.058 0.141-1.305-0.459-2.328-1.552-2.611-0.811-0.212-0.847-0.317-0.635-1.87 0.106-0.882 0.459-2.752 0.741-4.092 0.847-4.092 1.023-8.643 0.353-9.949-0.811-1.588-2.575-2.893-4.163-3.14-0.741-0.141-1.376-0.282-1.376-0.353 0-0.212 1.799-1.905 2.011-1.905 0.141 0 0.67 0.423 1.235 0.953 0.741 0.706 1.023 0.811 1.129 0.423 0.317-0.882 1.588-7.162 1.482-7.267s-7.726 1.341-7.902 1.517c-0.071 0.035 0.388 0.564 1.058 1.164l1.164 1.058-1.129 1.164c-1.023 1.023-1.164 1.058-1.164 0.423 0-1.305-1.693-4.198-2.893-4.904-1.517-0.917-4.622-0.882-10.231 0.141-5.362 0.953-6.28 0.953-6.28 0 0-0.459-0.388-0.882-1.235-1.235-1.482-0.6-1.411-0.6-2.117 0.106zM2.24 1.64c0.212 0.141 0.353 0.564 0.353 0.917 0 1.411 0.917 1.482 7.126 0.459 3.246-0.529 6.527-0.953 7.267-0.953 2.999 0 4.833 1.94 4.833 5.045 0 1.235-0.212 1.729-1.023 2.505l-1.058 1.023-0.106-2.081c-0.106-1.764-0.212-2.152-0.882-2.434-0.459-0.176-0.811-0.459-0.811-0.6 0-0.106-0.247-0.494-0.564-0.776-0.706-0.741-3.246-0.741-7.056 0-4.727 0.882-8.643-0.212-8.89-2.434-0.106-0.953 0.141-1.164 0.811-0.67zM16.034 5.52c0.247 0.141 0.459 0.564 0.529 0.953 0.106 0.459 0.494 0.741 1.129 0.811 1.094 0.141 1.129 0.423 0.564 3.352-0.317 1.446-0.706 2.258-1.588 3.105l-1.199 1.164-4.339-4.304-4.304-4.304 1.411-0.035c0.776 0 2.364-0.212 3.528-0.494 2.47-0.529 3.704-0.635 4.269-0.247zM26.794 10.53c0.67 0.176 1.693 0.847 2.293 1.446 0.953 0.988 1.023 1.235 0.953 3.598 0 1.411-0.388 4.41-0.811 6.703-0.388 2.293-0.706 4.833-0.635 5.645 0.106 1.305 0.212 1.482 1.058 1.588 1.023 0.106 1.623 1.058 0.847 1.341s-1.905-0.459-2.575-1.729c-0.776-1.446-0.811-5.398-0.141-9.137 0.635-3.387 0.282-5.327-0.953-5.503-0.564-0.071-0.776-0.282-0.635-0.635 0.317-0.847-1.376-1.658-2.963-1.446-0.776 0.106-1.411 0.106-1.411 0 0-0.071 0.529-0.6 1.129-1.199 1.235-1.094 1.87-1.199 3.845-0.67zM24.994 14.552c0 0.6 0.247 0.917 0.882 1.058 0.776 0.212 0.882 0.423 0.882 1.729 0 0.811-0.247 2.716-0.529 4.233-0.282 1.552-0.459 2.928-0.317 3.105 0.106 0.176 0.035 0.317-0.106 0.317-0.176 0-2.117-1.834-4.339-4.057l-4.022-4.057 1.199-1.235c1.341-1.376 2.575-1.87 4.869-1.905 1.341-0.035 1.482 0.035 1.482 0.811zM9.966 21.572c-1.27 1.411-2.47 2.54-2.646 2.505s-0.953-0.071-1.729-0.106c-1.376-0.035-1.411-0.071-1.27-1.023 0.071-0.529 0.176-1.058 0.176-1.164 0.035-0.141 0.741-0.776 1.658-1.482 1.446-1.129 1.799-1.235 3.881-1.27h2.293l-2.364 2.54zM11.765 26.264c-1.058 1.27-1.482 1.552-2.505 1.552-1.164 0-1.199-0.035-1.199-1.482 0-1.376 0.212-1.693 2.399-3.916l2.364-2.399 0.106 2.364c0.106 2.223 0.035 2.399-1.164 3.881z"
     id="path4" />
  <path
     style="fill:#096c02;fill-rule:evenodd;stroke:#726c65;stroke-width:0;fill-opacity:1"
     d="m 10.480318,18.9997 c -0.8163395,0.03235 -1.6496142,-0.04131 -2.4519226,0.142052 -0.9657992,0.287126 -1.7309677,0.987399 -2.5092397,1.594276 -0.3449462,0.304474 -0.732552,0.576747 -1.0169772,0.940655 -0.1562565,0.591811 -0.2513998,1.2055 -0.2819261,1.817007 -0.02616,0.281132 0.2339722,0.498397 0.5053117,0.474156 0.8640688,0.06614 1.7311781,0.115309 2.5960254,0.147163 0.358355,-0.07779 0.5837873,-0.418099 0.8619967,-0.632189 1.221273,-1.141873 2.3051558,-2.419281 3.4562818,-3.629805 0.240224,-0.279348 0.529821,-0.530447 0.736259,-0.830103 -0.182202,-0.09832 -0.451032,-0.0076 -0.66501,-0.03523 -0.410266,0.004 -0.820532,0.008 -1.230799,0.01202 z"
     id="path864" />
  <path
     style="fill:#096c02;fill-opacity:1;fill-rule:evenodd;stroke:#726c65;stroke-width:0"
     d="m 12.803711,19.990084 c -0.482689,0.404781 -0.897327,0.895649 -1.351374,1.335352 -0.986131,1.034052 -2.044014,2.008734 -2.9218382,3.140009 -0.3677805,0.467771 -0.5408645,1.061811 -0.515031,1.653951 0.015151,0.458435 -0.057778,0.94093 0.087672,1.383083 0.088684,0.265693 0.3724003,0.366333 0.6299916,0.340653 0.6724946,0.02604 1.4379446,0.06912 1.9788886,-0.410726 0.753378,-0.665901 1.415582,-1.444323 1.944455,-2.299819 0.403778,-0.625397 0.350103,-1.394043 0.339823,-2.104235 -0.03349,-1.002585 -0.03687,-2.010383 -0.129711,-3.00852 -0.01046,-0.0236 -0.03857,-0.03572 -0.06288,-0.02975 z"
     id="path1014" />
  <path
     style="fill:#7a3d09;fill-opacity:1;fill-rule:evenodd;stroke:#726c65;stroke-width:0"
     d="m 1.7022987,1.3432242 c -0.2872716,0.00623 -0.3794003,0.3429576 -0.3453452,0.5797023 -0.038284,0.6790748 0.2660592,1.3436668 0.7800657,1.7832784 0.9718604,0.8744724 2.3094569,1.1636239 3.5698623,1.3212352 1.8184858,0.2122814 3.6504904,-0.031502 5.4368895,-0.3690293 1.589509,-0.2469306 3.205363,-0.5152051 4.813,-0.3606729 0.550927,0.066368 1.150061,0.1923796 1.522031,0.6427827 0.192144,0.1925116 0.366808,0.414179 0.433458,0.6783194 0.32248,0.4367546 0.9292,0.5002796 1.282226,0.8948319 0.316454,0.507575 0.285402,1.1422035 0.353291,1.7152193 0.07098,0.7950526 0.04772,1.6008003 0.162409,2.3910758 0.09703,0.127011 0.211764,-0.114291 0.296287,-0.159168 C 20.560647,9.880925 21.201847,9.3594454 21.614934,8.66241 21.905971,8.0617527 21.867682,7.36622 21.864132,6.7160188 21.810108,5.2300058 21.179637,3.6906285 19.917015,2.8359096 18.794764,2.0500702 17.358465,1.9039347 16.030925,2.0774633 12.746364,2.4198438 9.4985438,3.0300666 6.2294212,3.4822186 5.3218631,3.5837122 4.3998489,3.7045253 3.4920373,3.5940505 3.1411829,3.5415962 2.7488398,3.3453182 2.703726,2.9528245 2.6199052,2.4969802 2.6728189,1.9472207 2.279372,1.6104267 2.1180934,1.4764985 1.91836,1.3491457 1.7022987,1.3432242 Z"
     id="path1053" />
  <path
     style="fill:#7a3d09;fill-opacity:1;fill-rule:evenodd;stroke:#726c65;stroke-width:0"
     d="m 24.978516,10.181265 c -0.90333,-0.02174 -1.657738,0.570129 -2.264597,1.175382 -0.320709,0.336455 -0.694881,0.643352 -0.937176,1.042767 0.03738,0.173679 0.298891,0.113039 0.432614,0.136336 0.945777,-0.03173 1.917845,-0.241947 2.83004,0.105678 0.445269,0.163383 0.990943,0.401763 1.118806,0.902367 0.04639,0.260769 -0.175367,0.576766 0.07617,0.785006 0.365577,0.26105 0.895192,0.169756 1.205754,0.536133 0.55185,0.637771 0.578271,1.540033 0.580446,2.343522 -0.0026,1.693354 -0.464611,3.345566 -0.612997,5.030746 -0.178636,1.757356 -0.21437,3.539094 0.0028,5.294497 0.112948,0.956609 0.485659,1.896533 1.16609,2.591954 0.457968,0.470681 1.084765,0.936881 1.780113,0.820561 0.312432,-0.03603 0.632919,-0.323382 0.521335,-0.659556 -0.159216,-0.552999 -0.794264,-0.761438 -1.303336,-0.848332 -0.332066,-0.04369 -0.723339,-0.184065 -0.780799,-0.562424 -0.259351,-1.109488 -0.0884,-2.266695 0.02513,-3.385818 0.421088,-3.430062 1.237078,-6.820403 1.290958,-10.290313 -0.0031,-0.792388 0.0776,-1.63916 -0.277024,-2.374425 -0.48213,-0.811994 -1.254198,-1.411593 -2.04312,-1.907452 -0.816347,-0.495571 -1.78436,-0.687729 -2.727386,-0.736899 -0.02794,-6.6e-4 -0.05589,1.51e-4 -0.08384,2.7e-4 z"
     id="path1203" />
</svg>
