<svg xmlns="http://www.w3.org/2000/svg" width="100" height="100" viewBox="0 0 32 32"><path d="M.476.546c-.917.917-.459 2.893.953 4.057.635.564 1.305.988 1.517.988s2.787 2.434 5.75 5.398l5.398 5.398-.847.776c-.67.635-1.27.776-3.387.811-2.47.035-2.611.106-4.445 1.623-1.905 1.552-1.94 1.588-1.94 3.493v1.905h1.164c1.446 0 2.364 1.023 2.364 2.646v1.235h2.046c2.011-.035 2.011-.035 3.493-1.905 1.446-1.799 1.517-1.976 1.517-4.339 0-2.223.106-2.54.988-3.387l.988-.953 5.151 5.221c2.822 2.858 5.398 5.715 5.715 6.315.776 1.588 1.976 2.293 3.634 2.152 1.164-.106 1.341-.247 1.446-1.058.141-1.305-.459-2.328-1.552-2.611-.811-.212-.847-.317-.635-1.87.106-.882.459-2.752.741-4.092.847-4.092 1.023-8.643.353-9.949-.811-1.588-2.575-2.893-4.163-3.14-.741-.141-1.376-.282-1.376-.353 0-.212 1.799-1.905 2.011-1.905.141 0 .67.423 1.235.953.741.706 1.023.811 1.129.423.317-.882 1.588-7.162 1.482-7.267s-7.726 1.341-7.902 1.517c-.071.035.388.564 1.058 1.164l1.164 1.058-1.129 1.164c-1.023 1.023-1.164 1.058-1.164.423 0-1.305-1.693-4.198-2.893-4.904-1.517-.917-4.622-.882-10.231.141-5.362.953-6.28.953-6.28 0 0-.459-.388-.882-1.235-1.235-1.482-.6-1.411-.6-2.117.106zM2.24 1.64c.212.141.353.564.353.917 0 1.411.917 1.482 7.126.459 3.246-.529 6.527-.953 7.267-.953 2.999 0 4.833 1.94 4.833 5.045 0 1.235-.212 1.729-1.023 2.505l-1.058 1.023-.106-2.081c-.106-1.764-.212-2.152-.882-2.434-.459-.176-.811-.459-.811-.6 0-.106-.247-.494-.564-.776-.706-.741-3.246-.741-7.056 0-4.727.882-8.643-.212-8.89-2.434-.106-.953.141-1.164.811-.67zm13.794 3.88c.247.141.459.564.529.953.106.459.494.741 1.129.811 1.094.141 1.129.423.564 3.352-.317 1.446-.706 2.258-1.588 3.105l-1.199 1.164-4.339-4.304-4.304-4.304 1.411-.035c.776 0 2.364-.212 3.528-.494 2.47-.529 3.704-.635 4.269-.247zm10.76 5.01c.67.176 1.693.847 2.293 1.446.953.988 1.023 1.235.953 3.598 0 1.411-.388 4.41-.811 6.703-.388 2.293-.706 4.833-.635 5.645.106 1.305.212 1.482 1.058 1.588 1.023.106 1.623 1.058.847 1.341s-1.905-.459-2.575-1.729c-.776-1.446-.811-5.398-.141-9.137.635-3.387.282-5.327-.953-5.503-.564-.071-.776-.282-.635-.635.317-.847-1.376-1.658-2.963-1.446-.776.106-1.411.106-1.411 0 0-.071.529-.6 1.129-1.199 1.235-1.094 1.87-1.199 3.845-.67zm-1.8 4.022c0 .6.247.917.882 1.058.776.212.882.423.882 1.729 0 .811-.247 2.716-.529 4.233-.282 1.552-.459 2.928-.317 3.105.106.176.035.317-.106.317-.176 0-2.117-1.834-4.339-4.057l-4.022-4.057 1.199-1.235c1.341-1.376 2.575-1.87 4.869-1.905 1.341-.035 1.482.035 1.482.811zm-15.028 7.02c-1.27 1.411-2.47 2.54-2.646 2.505s-.953-.071-1.729-.106c-1.376-.035-1.411-.071-1.27-1.023.071-.529.176-1.058.176-1.164.035-.141.741-.776 1.658-1.482 1.446-1.129 1.799-1.235 3.881-1.27h2.293l-2.364 2.54zm1.799 4.692c-1.058 1.27-1.482 1.552-2.505 1.552-1.164 0-1.199-.035-1.199-1.482 0-1.376.212-1.693 2.399-3.916l2.364-2.399.106 2.364c.106 2.223.035 2.399-1.164 3.881z"/><path d="M10.48 19c-.816.032-1.65-.042-2.452.142-.965.287-1.73.987-2.509 1.594-.345.305-.732.577-1.017.94a8.88 8.88 0 0 0-.282 1.818c-.026.28.234.498.506.474.864.066 1.73.115 2.596.147.358-.078.583-.418.862-.632 1.22-1.142 2.305-2.42 3.456-3.63.24-.28.53-.53.736-.83-.182-.098-.45-.008-.665-.035l-1.23.012z" style="fill:#096c02;fill-rule:evenodd;stroke:#726c65;stroke-width:0;fill-opacity:1"/><path d="M12.804 19.99c-.483.405-.898.896-1.352 1.335-.986 1.034-2.044 2.01-2.922 3.14a2.5 2.5 0 0 0-.515 1.654c.016.459-.057.941.088 1.383.089.266.373.367.63.341.673.026 1.438.07 1.979-.41a10.344 10.344 0 0 0 1.944-2.3c.404-.626.35-1.394.34-2.105-.033-1.002-.037-2.01-.13-3.008a.056.056 0 0 0-.062-.03z" style="fill:#096c02;fill-opacity:1;fill-rule:evenodd;stroke:#726c65;stroke-width:0"/><path d="M1.702 1.343c-.287.006-.38.343-.345.58a2.21 2.21 0 0 0 .78 1.783c.972.875 2.31 1.164 3.57 1.321 1.818.213 3.65-.031 5.437-.369 1.59-.247 3.205-.515 4.813-.36.55.066 1.15.192 1.522.643.192.192.367.414.433.678.323.437.93.5 1.282.895.317.507.286 1.142.354 1.715.07.795.047 1.6.162 2.391.097.127.212-.114.296-.16.555-.58 1.196-1.1 1.609-1.798.291-.6.253-1.296.25-1.946-.055-1.486-.685-3.025-1.948-3.88-1.122-.786-2.559-.932-3.886-.759-3.285.343-6.532.953-9.802 1.405-.907.102-1.83.223-2.737.112-.35-.052-.743-.249-.788-.641-.084-.456-.031-1.006-.425-1.343-.16-.134-.36-.26-.577-.267ZM24.979 10.181c-.904-.021-1.658.57-2.265 1.176-.32.336-.695.643-.937 1.042.037.174.299.113.432.137.946-.032 1.918-.242 2.83.105.446.164.991.402 1.12.903.046.26-.176.577.075.785.366.26.896.17 1.206.536.552.638.578 1.54.58 2.343-.002 1.694-.464 3.346-.612 5.031-.18 1.758-.215 3.54.002 5.295.113.956.486 1.896 1.166 2.592.458.47 1.085.937 1.78.82.313-.036.633-.323.522-.66-.16-.552-.794-.76-1.303-.848-.332-.043-.724-.184-.781-.562-.26-1.11-.089-2.267.025-3.386.421-3.43 1.237-6.82 1.29-10.29-.002-.793.078-1.64-.276-2.375-.482-.812-1.254-1.411-2.043-1.907-.817-.496-1.785-.688-2.728-.737h-.084z" style="fill:#7a3d09;fill-opacity:1;fill-rule:evenodd;stroke:#726c65;stroke-width:0"/></svg>