<?xml version="1.0" encoding="UTF-8" standalone="no"?>
<!-- Generated by IcoMoon.io -->

<svg
   version="1.1"
   width="100px"
   height="100px"
   viewBox="0 0 32 32"
   id="svg6"
   sodipodi:docname="runecraft-osrs.svg"
   inkscape:version="1.1 (c68e22c387, 2021-05-23)"
   xmlns:inkscape="http://www.inkscape.org/namespaces/inkscape"
   xmlns:sodipodi="http://sodipodi.sourceforge.net/DTD/sodipodi-0.dtd"
   xmlns="http://www.w3.org/2000/svg"
   xmlns:svg="http://www.w3.org/2000/svg">
  <defs
     id="defs10" />
  <sodipodi:namedview
     id="namedview8"
     pagecolor="#ffffff"
     bordercolor="#666666"
     borderopacity="1.0"
     inkscape:pageshadow="2"
     inkscape:pageopacity="0.0"
     inkscape:pagecheckerboard="0"
     showgrid="false"
     inkscape:zoom="26"
     inkscape:cx="15.980769"
     inkscape:cy="16.019231"
     inkscape:window-width="1920"
     inkscape:window-height="1017"
     inkscape:window-x="1912"
     inkscape:window-y="-8"
     inkscape:window-maximized="1"
     inkscape:current-layer="svg6" />
  <title
     id="title2">runecraft-osrs</title>
  <path
     d="M12.987 2.961c-1.884 1.884-2.793 3.028-2.524 3.129s-0.404 0.437-1.447 0.74c-4.105 1.312-6.864 4.105-7.706 7.773-1.11 4.913 1.952 9.085 7.907 10.768 1.077 0.337 1.817 0.673 1.615 0.808-0.236 0.135 0.707 1.312 2.423 3.028l2.793 2.793 3.062-2.793c2.961-2.726 3.028-2.826 2.154-3.028-0.841-0.168-0.808-0.202 0.437-0.437 1.851-0.337 4.677-1.649 6.225-2.894 3.701-2.927 4.004-8.749 0.673-12.551-1.346-1.514-4.879-3.6-6.124-3.6-0.37 0-0.606-0.202-0.538-0.471 0.067-0.236-1.279-1.75-2.961-3.331l-3.062-2.894-2.927 2.961zM19.818 5.081c0 0.168-0.505 0.269-1.144 0.269-1.11 0-1.178 0.067-1.178 1.144 0 0.841-0.202 1.279-0.841 1.682-0.471 0.303-0.841 0.707-0.841 0.875 0 0.202 0.37 0.538 0.841 0.74 1.413 0.639 1.11 1.783-0.673 2.591-0.841 0.37-1.615 0.909-1.716 1.211-0.303 0.74 0.74 1.783 2.961 2.894 1.043 0.538 1.985 1.11 2.086 1.279 0.37 0.606-0.202 1.312-2.019 2.524-1.009 0.673-1.817 1.413-1.817 1.615 0 0.236 0.404 0.808 0.875 1.312 0.606 0.639 0.942 1.413 1.043 2.456 0.168 1.481 0.236 1.548 1.245 1.548h1.043l-1.783 1.75-1.75 1.783-1.75-1.783-1.783-1.75h1.11c0.976 0 1.077-0.101 1.077-1.009 0-1.245-0.707-3.028-1.447-3.668-0.808-0.639-0.74-0.774 0.875-1.649 3.23-1.75 3.331-3.533 0.303-5.081-1.043-0.538-2.221-1.211-2.591-1.481-0.639-0.505-0.606-0.538 0.505-1.009 0.639-0.303 1.413-0.606 1.716-0.707 0.841-0.236 0.673-3.365-0.168-3.499-0.538-0.135-0.538-0.168 0.067-0.606 0.505-0.337 0.639-0.808 0.606-1.884-0.034-1.413-0.067-1.447-1.144-1.447-0.572 0-1.077-0.067-1.077-0.168 0-0.067 0.774-0.942 1.75-1.918l1.75-1.783 1.918 1.783c1.043 0.942 1.918 1.851 1.952 1.985zM13.795 7.302c0 0.135-0.303 0.437-0.673 0.673-0.875 0.538-0.875 1.649 0.034 1.918 1.11 0.37 0.74 1.918-0.572 2.254-0.572 0.135-1.279 0.538-1.615 0.909-0.875 0.976-0.269 1.75 2.49 3.197 1.649 0.875 2.355 1.447 2.288 1.817-0.067 0.303-0.976 1.211-2.053 2.019-1.043 0.808-1.918 1.615-1.918 1.817s0.471 0.875 1.009 1.514c1.346 1.514 1.312 1.918-0.202 1.615-6.629-1.245-10.229-4.172-10.229-8.345 0-3.399 1.38-5.821 4.307-7.537 2.187-1.279 7.134-2.557 7.134-1.851zM21.299 7.571c5.518 1.413 8.345 4.408 8.412 8.883 0.034 4.105-3.129 7.066-8.782 8.244-2.288 0.505-2.759 0.437-2.759-0.337 0-0.236-0.37-0.909-0.841-1.447l-0.841-1.009 1.75-1.11c2.254-1.447 2.759-2.625 1.615-3.836-0.437-0.471-0.976-0.841-1.178-0.841-0.673 0-3.567-2.019-3.365-2.322 0.101-0.168 0.74-0.505 1.447-0.74 1.514-0.471 1.75-0.808 1.75-2.355 0-0.942-0.168-1.279-0.74-1.548l-0.774-0.336 0.774-0.236c0.437-0.135 0.74-0.505 0.74-0.909 0-0.774 0.202-0.774 2.793-0.101z"
     id="path4" />
  <path
     style="fill:#787776;fill-rule:evenodd;stroke:#726c65;stroke-width:0;fill-opacity:1"
     d="M 13.255859,7.0455228 C 12.034108,7.1061825 10.852526,7.4730754 9.6872112,7.8197424 7.6271677,8.4676378 5.5849085,9.4559688 4.1632738,11.129629 2.914507,12.564814 2.3307845,14.481516 2.3063294,16.363847 c -0.075305,1.509645 0.3652206,3.045784 1.2912804,4.247591 1.3373342,1.759665 3.3710498,2.82597 5.4167264,3.547541 1.3268758,0.455643 2.6954768,0.800173 4.0818928,1.013647 0.229692,-0.0054 0.586033,0.06867 0.698618,-0.195012 0.07063,-0.36033 -0.238026,-0.653597 -0.419697,-0.930213 -0.499052,-0.66593 -1.11123,-1.254283 -1.48768,-2.003756 -0.131184,-0.2323 0.154952,-0.394759 0.275466,-0.55266 1.117187,-1.123246 2.529096,-1.935675 3.521147,-3.184608 0.174381,-0.188372 0.12989,-0.469024 -0.03632,-0.64607 -0.523234,-0.592569 -1.261646,-0.932024 -1.930858,-1.329365 -0.943512,-0.53965 -1.966674,-1.000612 -2.730426,-1.795635 -0.291183,-0.290279 -0.435057,-0.7649 -0.19719,-1.131837 0.434264,-0.71612 1.267162,-1.017484 2.01893,-1.280348 0.589622,-0.21019 1.086467,-0.769578 1.04512,-1.423152 0.0312,-0.475485 -0.420148,-0.7827448 -0.817881,-0.9223258 -0.50167,-0.1909299 -0.623853,-0.8576343 -0.350361,-1.28125 0.278167,-0.4953989 0.948373,-0.6316964 1.159931,-1.1733774 0.02757,-0.2194265 -0.276785,-0.2633715 -0.438251,-0.2732121 -0.05023,-0.00322 -0.100588,-0.00461 -0.150917,-0.00428 z"
     id="path864" />
  <path
     style="fill:#787776;fill-opacity:1;fill-rule:evenodd;stroke:#726c65;stroke-width:0"
     d="m 18.962215,7.0284706 c -0.26413,-0.030759 -0.518005,0.1682547 -0.506461,0.4430589 0.03312,0.4265238 -0.197545,0.8778607 -0.623996,1.0094356 -0.271711,0.1296184 -0.585466,0.1575744 -0.847158,0.3016371 -4.19e-4,0.1511955 0.235457,0.1654767 0.335863,0.2424128 0.392699,0.1818125 0.898485,0.3375229 1.018776,0.8128508 0.162663,0.6114242 0.135798,1.2568762 0.02703,1.8754412 -0.08485,0.51079 -0.508534,0.883289 -0.979634,1.048072 -0.67974,0.277922 -1.417848,0.463303 -2.018618,0.900505 -0.137436,0.09519 -0.131315,0.272996 -0.01029,0.378155 0.588151,0.66602 1.359492,1.140261 2.109108,1.603425 0.420951,0.252535 0.865623,0.472095 1.343942,0.587005 0.559005,0.272425 1.022416,0.731794 1.357497,1.248347 0.334898,0.522288 0.230768,1.200433 -0.132587,1.679913 -0.627342,0.869508 -1.595839,1.406509 -2.473182,1.994741 -0.358988,0.240862 -0.743572,0.453327 -1.085787,0.714318 0.05075,0.229951 0.275039,0.398819 0.401367,0.594952 0.444446,0.578731 1.00806,1.118524 1.208308,1.838868 0.034,0.278919 0.09604,0.639096 0.41857,0.717848 0.59102,0.152818 1.203492,-0.04215 1.790075,-0.130633 2.409125,-0.479233 4.860874,-1.23065 6.785721,-2.81836 1.407109,-1.146275 2.422148,-2.807518 2.629502,-4.625861 C 29.980207,15.111051 29.279685,12.63221 27.658532,10.903333 26.026214,9.1424974 23.74116,8.1624911 21.459777,7.5541379 20.6352,7.3590532 19.8128,7.0751982 18.962215,7.0284706 Z"
     id="path1014" />
  <path
     style="fill:#b03904;fill-opacity:1;fill-rule:evenodd;stroke:#726c65;stroke-width:0"
     d="m 15.909255,1.2619441 c -1.132847,1.1796831 -2.318356,2.3126349 -3.38439,3.5542368 -0.09161,0.083222 -0.184093,0.2739068 -0.0094,0.3246695 0.570037,0.1561511 1.169877,0.035908 1.740685,0.1627104 0.379691,0.1297607 0.293972,0.6092157 0.328244,0.9188446 -0.0045,0.5997161 0.0968,1.2475815 -0.158322,1.8071169 -0.19034,0.3854377 -0.663694,0.5221631 -0.871394,0.8859673 0.0074,0.2152085 0.314676,0.1916996 0.45643,0.271785 0.347179,0.1357654 0.43524,0.5546885 0.539663,0.8722204 0.103878,0.559411 0.08131,1.139942 0.04695,1.708459 -0.05368,0.325158 -0.181618,0.689806 -0.523287,0.80972 -0.841117,0.353523 -1.708875,0.665549 -2.500075,1.123198 -0.107282,0.07484 -0.176162,0.22701 -0.05025,0.320237 0.59365,0.61194 1.397477,0.95099 2.120673,1.379703 0.955439,0.55067 2.057164,0.983201 2.720297,1.905678 0.365996,0.484133 0.391381,1.18087 0.06806,1.688177 -0.650008,1.061672 -1.831704,1.604695 -2.869553,2.212715 -0.277596,0.19522 -0.683635,0.349643 -0.76048,0.716746 0.0042,0.259154 0.280625,0.40713 0.419316,0.597515 0.525035,0.474737 0.879876,1.085328 1.112046,1.747466 0.310038,0.813306 0.488843,1.700305 0.353028,2.561946 -0.05888,0.306284 -0.419356,0.297272 -0.66226,0.295523 -0.4614,0.0178 -0.928599,-0.0035 -1.388446,0.04905 -0.08118,0.135645 0.169141,0.229171 0.225812,0.340521 1.078088,1.093871 2.159878,2.184806 3.260967,3.255332 0.180355,-0.02547 0.277649,-0.254494 0.426093,-0.353433 1.054034,-1.051085 2.116578,-2.095056 3.146022,-3.169929 -0.0024,-0.156309 -0.24267,-0.06807 -0.346118,-0.09963 -0.480785,-0.03094 -0.974896,0.03998 -1.445273,-0.06894 -0.332338,-0.202591 -0.322059,-0.653624 -0.395658,-0.990234 -0.08921,-0.799838 -0.210689,-1.624905 -0.656701,-2.315355 -0.393124,-0.629146 -1.036121,-1.103636 -1.291391,-1.815805 -0.0091,-0.241255 0.259901,-0.378222 0.396068,-0.548615 1.00596,-0.959591 2.329639,-1.540355 3.228932,-2.616725 0.25067,-0.28569 0.421863,-0.758786 0.135216,-1.080453 -0.38652,-0.395824 -0.913754,-0.617094 -1.379321,-0.904427 -1.156053,-0.651782 -2.431457,-1.187136 -3.325081,-2.204873 -0.25497,-0.29386 -0.490235,-0.775085 -0.19997,-1.126878 0.647003,-0.722749 1.64652,-0.967639 2.42319,-1.527641 0.443476,-0.292044 0.883036,-0.820344 0.717811,-1.385445 C 17.353136,9.9753188 16.69188,9.8070238 16.232422,9.4760365 16.064277,9.3504377 15.767874,9.1132215 15.953125,8.890625 16.380962,8.3162519 17.176202,8.0711204 17.435397,7.36253 17.607558,6.8087369 17.475267,6.2035977 17.653997,5.6574519 17.829065,5.3774312 18.223301,5.4501619 18.502554,5.40933 18.932448,5.354929 19.425472,5.45115 19.80281,5.1932842 19.96385,5.0287883 19.694144,4.8578654 19.608729,4.7315444 18.454136,3.5182691 17.197273,2.408289 15.979042,1.2603666 c -0.02295,0.00409 -0.04963,-0.033951 -0.06979,0.00158 z"
     id="path1053" />
</svg>
