<svg xmlns="http://www.w3.org/2000/svg" width="100" height="100" viewBox="0 0 32 32"><path d="M12.987 2.961c-1.884 1.884-2.793 3.028-2.524 3.129s-.404.437-1.447.74c-4.105 1.312-6.864 4.105-7.706 7.773-1.11 4.913 1.952 9.085 7.907 10.768 1.077.337 1.817.673 1.615.808-.236.135.707 1.312 2.423 3.028L16.048 32l3.062-2.793c2.961-2.726 3.028-2.826 2.154-3.028-.841-.168-.808-.202.437-.437 1.851-.337 4.677-1.649 6.225-2.894 3.701-2.927 4.004-8.749.673-12.551-1.346-1.514-4.879-3.6-6.124-3.6-.37 0-.606-.202-.538-.471.067-.236-1.279-1.75-2.961-3.331L15.914.001l-2.927 2.961zm6.831 2.12c0 .168-.505.269-1.144.269-1.11 0-1.178.067-1.178 1.144 0 .841-.202 1.279-.841 1.682-.471.303-.841.707-.841.875 0 .202.37.538.841.74 1.413.639 1.11 1.783-.673 2.591-.841.37-1.615.909-1.716 1.211-.303.74.74 1.783 2.961 2.894 1.043.538 1.985 1.11 2.086 1.279.37.606-.202 1.312-2.019 2.524-1.009.673-1.817 1.413-1.817 1.615 0 .236.404.808.875 1.312.606.639.942 1.413 1.043 2.456.168 1.481.236 1.548 1.245 1.548h1.043l-1.783 1.75-1.75 1.783-1.75-1.783-1.783-1.75h1.11c.976 0 1.077-.101 1.077-1.009 0-1.245-.707-3.028-1.447-3.668-.808-.639-.74-.774.875-1.649 3.23-1.75 3.331-3.533.303-5.081-1.043-.538-2.221-1.211-2.591-1.481-.639-.505-.606-.538.505-1.009a19.068 19.068 0 0 1 1.716-.707c.841-.236.673-3.365-.168-3.499-.538-.135-.538-.168.067-.606.505-.337.639-.808.606-1.884-.034-1.413-.067-1.447-1.144-1.447-.572 0-1.077-.067-1.077-.168 0-.067.774-.942 1.75-1.918l1.75-1.783 1.918 1.783c1.043.942 1.918 1.851 1.952 1.985zm-6.023 2.221c0 .135-.303.437-.673.673-.875.538-.875 1.649.034 1.918 1.11.37.74 1.918-.572 2.254-.572.135-1.279.538-1.615.909-.875.976-.269 1.75 2.49 3.197 1.649.875 2.355 1.447 2.288 1.817-.067.303-.976 1.211-2.053 2.019-1.043.808-1.918 1.615-1.918 1.817s.471.875 1.009 1.514c1.346 1.514 1.312 1.918-.202 1.615C5.954 23.79 2.354 20.863 2.354 16.69c0-3.399 1.38-5.821 4.307-7.537 2.187-1.279 7.134-2.557 7.134-1.851zm7.504.269c5.518 1.413 8.345 4.408 8.412 8.883.034 4.105-3.129 7.066-8.782 8.244-2.288.505-2.759.437-2.759-.337 0-.236-.37-.909-.841-1.447l-.841-1.009 1.75-1.11c2.254-1.447 2.759-2.625 1.615-3.836-.437-.471-.976-.841-1.178-.841-.673 0-3.567-2.019-3.365-2.322.101-.168.74-.505 1.447-.74 1.514-.471 1.75-.808 1.75-2.355 0-.942-.168-1.279-.74-1.548l-.774-.336.774-.236c.437-.135.74-.505.74-.909 0-.774.202-.774 2.793-.101z"/><path d="M13.256 7.046c-1.222.06-2.403.427-3.569.774-2.06.648-4.102 1.636-5.524 3.31-1.248 1.435-1.832 3.352-1.857 5.234-.075 1.51.366 3.046 1.292 4.247 1.337 1.76 3.37 2.826 5.416 3.548 1.327.456 2.696.8 4.082 1.014.23-.006.586.068.699-.195.07-.36-.238-.654-.42-.93-.499-.667-1.111-1.255-1.488-2.004-.13-.233.155-.395.276-.553 1.117-1.123 2.529-1.936 3.521-3.185.174-.188.13-.469-.036-.646-.523-.592-1.262-.932-1.931-1.33-.944-.539-1.967-1-2.73-1.795-.292-.29-.436-.765-.198-1.132.435-.716 1.267-1.017 2.02-1.28.589-.21 1.086-.77 1.044-1.423.032-.476-.42-.783-.818-.922-.501-.191-.623-.858-.35-1.282.278-.495.948-.631 1.16-1.173.028-.22-.277-.263-.438-.273a2.14 2.14 0 0 0-.151-.004z" style="fill:#787776;fill-rule:evenodd;stroke:#726c65;stroke-width:0;fill-opacity:1"/><path d="M18.962 7.028c-.264-.03-.518.169-.506.444.033.426-.198.877-.624 1.009-.272.13-.586.158-.847.302 0 .15.235.165.335.242.393.182.899.338 1.02.813.162.611.135 1.257.026 1.875-.085.511-.508.884-.98 1.048-.68.278-1.417.464-2.018.9-.137.096-.131.274-.01.379.588.666 1.36 1.14 2.109 1.603.42.253.865.473 1.344.587.559.273 1.022.732 1.357 1.249.335.522.231 1.2-.132 1.68-.628.87-1.596 1.406-2.473 1.994-.36.241-.744.454-1.086.715.05.23.275.399.401.595.445.578 1.008 1.118 1.208 1.839.034.279.096.639.419.717.591.153 1.203-.042 1.79-.13 2.41-.48 4.86-1.23 6.786-2.819 1.407-1.146 2.422-2.807 2.63-4.625.27-2.334-.431-4.813-2.052-6.542-1.633-1.76-3.918-2.74-6.2-3.349-.824-.195-1.646-.479-2.497-.526Z" style="fill:#787776;fill-opacity:1;fill-rule:evenodd;stroke:#726c65;stroke-width:0"/><path d="M15.91 1.262c-1.134 1.18-2.32 2.313-3.385 3.554-.092.083-.184.274-.01.325.57.156 1.17.036 1.741.163.38.13.294.609.328.918-.004.6.097 1.248-.158 1.808-.19.385-.664.522-.871.885.007.216.314.192.456.272.347.136.435.555.54.872.104.56.081 1.14.047 1.709-.054.325-.182.69-.524.81-.84.353-1.708.665-2.5 1.123-.107.075-.176.227-.05.32.594.612 1.398.951 2.12 1.38.956.55 2.058.983 2.721 1.905.366.485.391 1.181.068 1.689-.65 1.061-1.832 1.604-2.87 2.212-.277.196-.683.35-.76.717.004.26.28.407.42.598.524.474.88 1.085 1.111 1.747.31.813.49 1.7.353 2.562-.058.306-.419.297-.662.296-.461.017-.928-.004-1.388.049-.081.135.169.229.226.34a215.955 215.955 0 0 0 3.26 3.255c.18-.025.278-.254.427-.353 1.054-1.051 2.116-2.095 3.146-3.17-.003-.156-.243-.068-.346-.1-.481-.03-.975.04-1.446-.068-.332-.203-.322-.654-.395-.99-.09-.8-.211-1.626-.657-2.316-.393-.63-1.036-1.104-1.291-1.816-.01-.241.26-.378.396-.548 1.006-.96 2.33-1.54 3.229-2.617.25-.286.421-.759.135-1.08-.387-.396-.914-.618-1.38-.905-1.156-.652-2.431-1.187-3.325-2.205-.255-.294-.49-.775-.2-1.127.647-.723 1.647-.967 2.424-1.527.443-.293.883-.82.717-1.386-.204-.588-.865-.756-1.325-1.087-.168-.126-.464-.363-.279-.585.428-.575 1.223-.82 1.482-1.528.173-.554.04-1.16.219-1.706.175-.28.57-.207.849-.248.43-.054.922.042 1.3-.216.16-.164-.109-.335-.194-.461-1.155-1.214-2.412-2.324-3.63-3.472-.023.004-.05-.034-.07.002z" style="fill:#b03904;fill-opacity:1;fill-rule:evenodd;stroke:#726c65;stroke-width:0"/></svg>