<svg xmlns="http://www.w3.org/2000/svg" width="100" height="100" viewBox="0 0 32 32"><path d="M23.537.355 21.33.898v1.358c0 1.29-.713 3.192-1.222 3.192-.136 0-.34-.645-.475-1.46-.136-.781-.306-1.528-.373-1.664-.136-.204-3.973.577-4.55.917-.136.068.102 1.698.577 3.565l.781 3.429-.713 1.019c-.645.917-.815.985-3.158.985-3.463 0-5.636.713-7.096 2.377-1.833 1.969-2.614 3.803-2.954 6.757-.611 5.331.407 8.013 3.735 9.745.951.475 2.241.645 6.553.747l5.365.136.985-.917.985-.951.407.917c.407.849.543.883 3.09.883h2.648v-1.019c0-.849.136-1.019.849-1.019.611 0 .849-.17.849-.645 0-.509.272-.713 1.12-.781 1.053-.102 1.087-.136 1.188-1.833l.102-1.766-4.074-3.192-.204-4.482-2.614-1.732c-1.426-.917-2.547-1.833-2.513-2.037.068-.17 1.562-.679 3.395-1.053 1.833-.407 3.361-.815 3.463-.917.136-.136-.713-4.278-.951-4.482-.068-.068-.781.034-1.596.204s-1.528.272-1.596.238c-.034-.068.204-.611.577-1.188.407-.679 1.087-1.154 1.732-1.29l1.019-.238-.238-1.901c-.407-3.158-.34-3.09-2.886-2.445zm-4.72 5.093c.34 1.766.543 2.105 1.63 2.75 1.12.679 1.392.713 3.226.34 1.087-.238 2.003-.373 2.071-.306s.204.645.34 1.324l.238 1.222-2.886.577-2.886.611-1.664-1.12a44.459 44.459 0 0 0-1.732-1.154c-.272-.204-1.358-5.467-1.154-5.67.136-.102.611-.272 1.087-.373.475-.068.951-.17 1.087-.204.136 0 .407.883.645 2.003zm-5.297 8.726c-1.494 2.309-1.426 2.241-1.732 1.392-.34-1.053-.611 2.716-.306 4.72.238 1.698.204 1.698 4.176.917 2.648-.543 3.905-1.188 1.766-.951-.543.068-1.019-.034-1.019-.204s.713-1.426 1.63-2.818l1.596-2.547 1.358.679c.747.407 1.935 1.154 2.648 1.698 1.222.985 1.256 1.087 1.256 3.09v2.105l2.071 1.63c1.12.917 1.969 1.732 1.867 1.867-.102.102-.577-.17-1.053-.611-1.222-1.154-1.053-.407.238.917l1.087 1.12h-.951c-.509 0-1.426-.34-2.003-.747l-1.087-.781.781 1.087c1.426 2.037.645 2.818-1.392 1.392l-1.087-.781.781.985c.713.917 1.019 2.58.475 2.58-.136 0-.849-.407-1.596-.917-1.019-.645-1.188-.713-.747-.204.781.883.747 1.12-.204 1.12-.611 0-.951-.34-1.426-1.358-.34-.747-.713-1.358-.815-1.358s-.645.645-1.222 1.392l-1.019 1.392-4.923-.136c-5.976-.17-7.707-.781-8.862-3.09-1.019-1.935-.815-7.843.306-9.982 1.732-3.293 3.701-4.414 8.013-4.482l1.969-.034-.577.917z"/><path d="M18.172 3.398c-.721.122-1.46.24-2.134.531-.226.13-.083.435-.091.64.216 1.55.534 3.087.943 4.598.09.268.145.592.44.708 1.073.71 2.126 1.452 3.218 2.132 1.742-.326 3.474-.723 5.215-1.06.187-.07.464-.03.59-.205-.073-.674-.255-1.338-.395-2.002-.061-.192-.076-.43-.21-.578-1.283.037-2.517.523-3.795.548-.713-.021-1.315-.47-1.892-.84-.483-.298-.799-.799-.93-1.344-.287-.999-.39-2.066-.828-3.021-.03-.047-.068-.11-.131-.107Z" style="fill:#b8b504;fill-rule:evenodd;stroke:#726c65;stroke-width:0;fill-opacity:1"/><path d="M13.761 13.199c-2.029.072-4.149-.04-6.055.786-1.48.617-2.587 1.87-3.357 3.243-.788 1.304-1.03 2.842-1.176 4.334a36.15 36.15 0 0 0-.007 3.763c.11 1.348.494 2.751 1.473 3.735.967 1.016 2.399 1.347 3.737 1.537 2.482.33 4.991.304 7.488.4.587.004 1.185.062 1.765.033.698-.918 1.328-1.905 2.153-2.72.104-.107.162.14.226.183.456.685.703 1.5 1.238 2.131.359.387.958.412 1.432.264a.294.294 0 0 0 .132-.474c-.171-.301-.452-.591-.626-.851.819.434 1.543 1.05 2.406 1.4.3.012.372-.367.359-.599-.039-.92-.476-1.778-1.073-2.462-.093-.12-.31-.361-.056-.154.644.425 1.259.984 2.041 1.125.233.035.516.064.664-.164.22-.36.027-.813-.134-1.159-.294-.583-.69-1.105-1.067-1.635.781.564 1.609 1.145 2.582 1.296.396.019.8.052 1.193.009.075-.132-.159-.229-.214-.338-.625-.711-1.388-1.326-1.847-2.166-.099-.159.088-.031.143.009.51.345.905.88 1.5 1.087.128.057.28-.073.178-.196-.464-.657-1.131-1.135-1.73-1.66-.715-.59-1.448-1.157-2.175-1.732-.03-1.217.005-2.438-.07-3.653-.11-.714-.73-1.168-1.26-1.582-1.233-.916-2.56-1.72-3.975-2.318-.161.01-.192.259-.3.36-.93 1.5-1.922 2.964-2.783 4.506-.07.194-.302.43-.166.64.26.175.608.094.904.122.349.01.77-.017 1.08.03-.627.344-1.345.472-2.03.654-1.13.245-2.268.505-3.414.625-.34-.008-.741.091-1.04-.122-.29-.348-.286-.836-.364-1.26-.148-1.424-.192-2.877.011-4.298.03-.156.056-.314.126-.46.14.216.141.569.398.689.274-.03.392-.348.552-.534.515-.769 1.055-1.528 1.502-2.338-.017-.146-.27-.062-.364-.086z" style="fill:#dcdcdc;fill-opacity:1;fill-rule:evenodd;stroke:#726c65;stroke-width:0"/></svg>