<?xml version="1.0" encoding="UTF-8" standalone="no"?>
<!-- Generated by IcoMoon.io -->

<svg
   version="1.1"
   width="100px"
   height="100px"
   viewBox="0 0 32 32"
   id="svg6"
   sodipodi:docname="slayer-osrs.svg"
   inkscape:version="1.1 (c68e22c387, 2021-05-23)"
   xmlns:inkscape="http://www.inkscape.org/namespaces/inkscape"
   xmlns:sodipodi="http://sodipodi.sourceforge.net/DTD/sodipodi-0.dtd"
   xmlns="http://www.w3.org/2000/svg"
   xmlns:svg="http://www.w3.org/2000/svg">
  <defs
     id="defs10" />
  <sodipodi:namedview
     id="namedview8"
     pagecolor="#ffffff"
     bordercolor="#666666"
     borderopacity="1.0"
     inkscape:pageshadow="2"
     inkscape:pageopacity="0.0"
     inkscape:pagecheckerboard="0"
     showgrid="false"
     inkscape:zoom="26"
     inkscape:cx="15.980769"
     inkscape:cy="16.019231"
     inkscape:window-width="1920"
     inkscape:window-height="1017"
     inkscape:window-x="1912"
     inkscape:window-y="-8"
     inkscape:window-maximized="1"
     inkscape:current-layer="svg6" />
  <title
     id="title2">slayer-osrs</title>
  <path
     d="M23.537 0.355l-2.207 0.543v1.358c0 1.29-0.713 3.192-1.222 3.192-0.136 0-0.34-0.645-0.475-1.46-0.136-0.781-0.306-1.528-0.373-1.664-0.136-0.204-3.973 0.577-4.55 0.917-0.136 0.068 0.102 1.698 0.577 3.565l0.781 3.429-0.713 1.019c-0.645 0.917-0.815 0.985-3.158 0.985-3.463 0-5.636 0.713-7.096 2.377-1.833 1.969-2.614 3.803-2.954 6.757-0.611 5.331 0.407 8.013 3.735 9.745 0.951 0.475 2.241 0.645 6.553 0.747l5.365 0.136 0.985-0.917 0.985-0.951 0.407 0.917c0.407 0.849 0.543 0.883 3.090 0.883h2.648v-1.019c0-0.849 0.136-1.019 0.849-1.019 0.611 0 0.849-0.17 0.849-0.645 0-0.509 0.272-0.713 1.12-0.781 1.053-0.102 1.087-0.136 1.188-1.833l0.102-1.766-4.074-3.192-0.204-4.482-2.614-1.732c-1.426-0.917-2.547-1.833-2.513-2.037 0.068-0.17 1.562-0.679 3.395-1.053 1.833-0.407 3.361-0.815 3.463-0.917 0.136-0.136-0.713-4.278-0.951-4.482-0.068-0.068-0.781 0.034-1.596 0.204s-1.528 0.272-1.596 0.238c-0.034-0.068 0.204-0.611 0.577-1.188 0.407-0.679 1.087-1.154 1.732-1.29l1.019-0.238-0.238-1.901c-0.407-3.158-0.34-3.090-2.886-2.445zM18.817 5.448c0.34 1.766 0.543 2.105 1.63 2.75 1.12 0.679 1.392 0.713 3.226 0.34 1.087-0.238 2.003-0.373 2.071-0.306s0.204 0.645 0.34 1.324l0.238 1.222-2.886 0.577-2.886 0.611-1.664-1.12c-0.883-0.611-1.664-1.12-1.732-1.154-0.272-0.204-1.358-5.467-1.154-5.67 0.136-0.102 0.611-0.272 1.087-0.373 0.475-0.068 0.951-0.17 1.087-0.204 0.136 0 0.407 0.883 0.645 2.003zM13.52 14.174c-1.494 2.309-1.426 2.241-1.732 1.392-0.34-1.053-0.611 2.716-0.306 4.72 0.238 1.698 0.204 1.698 4.176 0.917 2.648-0.543 3.905-1.188 1.766-0.951-0.543 0.068-1.019-0.034-1.019-0.204s0.713-1.426 1.63-2.818l1.596-2.547 1.358 0.679c0.747 0.407 1.935 1.154 2.648 1.698 1.222 0.985 1.256 1.087 1.256 3.090v2.105l2.071 1.63c1.12 0.917 1.969 1.732 1.867 1.867-0.102 0.102-0.577-0.17-1.053-0.611-1.222-1.154-1.053-0.407 0.238 0.917l1.087 1.12h-0.951c-0.509 0-1.426-0.34-2.003-0.747l-1.087-0.781 0.781 1.087c1.426 2.037 0.645 2.818-1.392 1.392l-1.087-0.781 0.781 0.985c0.713 0.917 1.019 2.58 0.475 2.58-0.136 0-0.849-0.407-1.596-0.917-1.019-0.645-1.188-0.713-0.747-0.204 0.781 0.883 0.747 1.12-0.204 1.12-0.611 0-0.951-0.34-1.426-1.358-0.34-0.747-0.713-1.358-0.815-1.358s-0.645 0.645-1.222 1.392l-1.019 1.392-4.923-0.136c-5.976-0.17-7.707-0.781-8.862-3.090-1.019-1.935-0.815-7.843 0.306-9.982 1.732-3.293 3.701-4.414 8.013-4.482l1.969-0.034-0.577 0.917z"
     id="path4" />
  <path
     style="fill:#b8b504;fill-rule:evenodd;stroke:#726c65;stroke-width:0;fill-opacity:1"
     d="m 18.171875,3.3978365 c -0.721107,0.1225081 -1.459015,0.2405937 -2.134165,0.5313252 -0.22591,0.1295785 -0.08256,0.4345856 -0.09088,0.639628 0.216322,1.5499778 0.534085,3.0876149 0.942763,4.5982311 0.09067,0.2676084 0.145447,0.5924584 0.440622,0.7078996 1.072405,0.7107016 2.126025,1.4520696 3.218016,2.1318406 1.741659,-0.325331 3.473783,-0.723151 5.215175,-1.059469 0.18656,-0.06998 0.463684,-0.03005 0.589663,-0.205705 -0.07284,-0.673724 -0.255048,-1.3375212 -0.395057,-2.0018032 -0.06101,-0.1918419 -0.07554,-0.4306215 -0.210186,-0.5782003 -1.282519,0.037032 -2.51677,0.5234519 -3.794547,0.548828 C 21.239897,8.6886969 20.63774,8.2401754 20.061223,7.8692158 19.578197,7.5722565 19.262405,7.0709772 19.131773,6.526038 18.844434,5.5271127 18.741207,4.4599274 18.30281,3.5046575 18.273593,3.4580618 18.235219,3.3954773 18.171875,3.3978365 Z"
     id="path864" />
  <path
     style="fill:#dcdcdc;fill-opacity:1;fill-rule:evenodd;stroke:#726c65;stroke-width:0"
     d="m 13.761493,13.198918 c -2.029521,0.07217 -4.149448,-0.04066 -6.055138,0.786509 -1.4805541,0.616096 -2.5875492,1.869523 -3.3577493,3.24304 -0.7877585,1.303737 -1.0291927,2.841927 -1.175679,4.333507 -0.069537,1.25246 -0.068506,2.510448 -0.00737,3.763186 0.110556,1.347673 0.4943159,2.751279 1.4738127,3.734769 0.9663855,1.016243 2.3986372,1.347266 3.7367564,1.53757 2.4813802,0.330334 4.9908652,0.303075 7.4877252,0.400423 0.58685,0.0029 1.185383,0.0608 1.765516,0.03185 0.697594,-0.917964 1.327651,-1.904824 2.152487,-2.719076 0.104615,-0.1077 0.162491,0.138722 0.225941,0.1823 0.456298,0.684863 0.703211,1.499349 1.238377,2.131402 0.358872,0.386659 0.957697,0.412012 1.432166,0.263446 0.20257,-0.06186 0.268921,-0.314036 0.131761,-0.473858 -0.17108,-0.30133 -0.451612,-0.591377 -0.626202,-0.851187 0.818649,0.434417 1.54297,1.050377 2.406551,1.399415 0.300403,0.0129 0.3711,-0.366022 0.358398,-0.597957 -0.03854,-0.919376 -0.475962,-1.778242 -1.073092,-2.462365 -0.09299,-0.120021 -0.30961,-0.361333 -0.05561,-0.154138 0.643725,0.424943 1.258647,0.984185 2.040965,1.125292 0.232699,0.03519 0.516384,0.06393 0.664288,-0.163837 0.218691,-0.360362 0.02694,-0.813387 -0.134541,-1.159105 -0.293868,-0.582698 -0.689714,-1.104742 -1.066406,-1.634916 0.780606,0.563378 1.608341,1.145203 2.58183,1.295844 0.396014,0.0187 0.798894,0.05202 1.192734,0.0088 0.07526,-0.132277 -0.158991,-0.228607 -0.213749,-0.338053 -0.625198,-0.710872 -1.388474,-1.326138 -1.847023,-2.165327 -0.09902,-0.159125 0.0878,-0.03149 0.142804,0.0082 0.509538,0.345455 0.905214,0.880622 1.499474,1.087815 0.128267,0.05659 0.280236,-0.07297 0.178035,-0.19659 -0.463756,-0.656587 -1.130566,-1.134979 -1.730224,-1.659075 -0.714826,-0.590019 -1.44729,-1.158129 -2.174749,-1.732376 -0.02868,-1.217587 0.0052,-2.438184 -0.06956,-3.653846 -0.110465,-0.713376 -0.730236,-1.167239 -1.259958,-1.581945 -1.232835,-0.915457 -2.559121,-1.718932 -3.974568,-2.317469 -0.161949,0.0099 -0.192841,0.258533 -0.300001,0.359222 -0.929848,1.500826 -1.922675,2.964565 -2.783683,4.506839 -0.06901,0.193335 -0.302218,0.430558 -0.165715,0.639423 0.259616,0.174925 0.607725,0.09421 0.90354,0.122698 0.348879,0.0098 0.770207,-0.01712 1.079708,0.03002 -0.626827,0.343991 -1.34423,0.471358 -2.029792,0.65335 -1.130146,0.24514 -2.267462,0.505168 -3.413727,0.625618 -0.34064,-0.0086 -0.741081,0.09097 -1.038977,-0.122267 -0.291692,-0.348099 -0.286514,-0.836104 -0.365099,-1.260307 -0.147821,-1.423944 -0.19181,-2.876552 0.01163,-4.297494 0.0303,-0.155891 0.05592,-0.314287 0.125852,-0.459928 0.139772,0.216082 0.140907,0.568583 0.398137,0.688176 0.273559,-0.02888 0.391494,-0.347969 0.551588,-0.533785 0.515526,-0.768695 1.055513,-1.527574 1.502048,-2.33821 -0.017,-0.145294 -0.269995,-0.0613 -0.363507,-0.08564 z"
     id="path1014" />
</svg>
