<?xml version="1.0" encoding="UTF-8" standalone="no"?>
<!-- Generated by IcoMoon.io -->

<svg
   version="1.1"
   width="100px"
   height="100px"
   viewBox="0 0 32 32"
   id="svg6"
   sodipodi:docname="smithing-osrs.svg"
   inkscape:version="1.1 (c68e22c387, 2021-05-23)"
   xmlns:inkscape="http://www.inkscape.org/namespaces/inkscape"
   xmlns:sodipodi="http://sodipodi.sourceforge.net/DTD/sodipodi-0.dtd"
   xmlns="http://www.w3.org/2000/svg"
   xmlns:svg="http://www.w3.org/2000/svg">
  <defs
     id="defs10">
    <inkscape:path-effect
       effect="spiro"
       id="path-effect1396"
       is_visible="true"
       lpeversion="1" />
    <inkscape:path-effect
       effect="spiro"
       id="path-effect1166"
       is_visible="true"
       lpeversion="1" />
  </defs>
  <sodipodi:namedview
     id="namedview8"
     pagecolor="#ffffff"
     bordercolor="#666666"
     borderopacity="1.0"
     inkscape:pageshadow="2"
     inkscape:pageopacity="0.0"
     inkscape:pagecheckerboard="0"
     showgrid="false"
     inkscape:zoom="26"
     inkscape:cx="15.980769"
     inkscape:cy="16.019231"
     inkscape:window-width="1920"
     inkscape:window-height="1017"
     inkscape:window-x="1912"
     inkscape:window-y="-8"
     inkscape:window-maximized="1"
     inkscape:current-layer="svg6" />
  <title
     id="title2">smithing-osrs</title>
  <path
     d="M0.603 10.577v10.544h2.477c3.146 0 3.916-0.536 4.552-3.18l0.435-1.841 0.703 0.636c0.402 0.368 1.339 0.904 2.142 1.205 1.339 0.536 1.406 0.636 1.406 1.941 0 1.272-0.201 1.573-3.146 4.586-3.28 3.314-3.682 4.017-3.481 6.226l0.1 1.305h22.427v-4.184l-3.113-3.113c-3.013-3.013-3.079-3.113-3.079-4.653 0-1.506 0.067-1.64 1.305-2.243 0.77-0.402 1.439-1.071 1.707-1.674 0.402-1.038 0.435-1.038 2.879-1.038 2.142 0 2.51-0.1 2.946-0.736 0.301-0.402 0.536-1.305 0.536-1.975 0-1.105-0.335-1.573-2.678-4.050-1.473-1.506-3.146-3.481-3.749-4.351l-1.105-1.573-6.695-0.033h-6.695l-0.937 1.339c-0.536 0.736-1.038 1.339-1.172 1.339s-0.536-1.105-0.904-2.443l-0.669-2.41-6.192-0.201v10.577zM5.289 10.577v8.87h-3.013l-0.033-8.201c-0.033-4.519-0.067-8.402-0.1-8.636-0.134-0.736 0.167-0.904 1.674-0.904h1.473v8.87zM6.962 6.059l0.736 2.51 2.276-2.678v4.753c0 2.644-0.067 4.787-0.201 4.787-0.1 0-0.569-0.87-1.038-1.941l-0.87-1.908-0.603 2.008c-0.368 1.105-0.736 2.577-0.837 3.28-0.536 3.18-0.803 1.004-0.77-6.527 0-4.854 0.134-7.866 0.301-7.464 0.167 0.368 0.603 1.808 1.004 3.18zM23.297 10.477l-0.1 5.791-6.259 0.1-6.293 0.067v-11.716h12.72l-0.067 5.757zM20.753 17.506c-0.234 0.234-0.402 1.305-0.402 2.41v2.042l3.146 3.18c2.879 2.879 3.381 3.649 3.247 4.921-0.033 0.335-2.209 0.435-9.741 0.435h-9.707v-1.038c0-0.904 0.536-1.607 3.213-4.318l3.213-3.28-0.134-2.377-0.1-2.377h3.849c2.979 0 3.715 0.1 3.414 0.402z"
     id="path4" />
  <path
     style="fill:#757b7c;fill-rule:evenodd;stroke:#726c65;stroke-width:0;fill-opacity:1"
     d="m 10.614558,4.6614333 c -0.02503,2.456061 -0.0036,4.9199659 -0.01074,7.3790567 0,1.47501 0,2.95002 0,4.42503 0.112801,0.110557 0.332103,0.0033 0.49076,0.02494 4.024423,-0.06561 8.051851,-0.06018 12.075571,-0.184045 0.13873,-0.06941 0.0424,-0.291981 0.07959,-0.421465 0.08246,-3.6938 0.147227,-7.3884013 0.163875,-11.0831171 C 23.445221,4.5835128 23.154515,4.6899118 23.02975,4.6620914 18.904545,4.6292671 14.77914,4.6469823 10.653846,4.6422776 l -0.03457,0.016856 z"
     id="path864" />
  <path
     style="fill:#757b7c;fill-opacity:1;fill-rule:evenodd;stroke:#726c65;stroke-width:0"
     d="m 13.954477,17.025391 c -0.149649,0.03642 -0.375075,-0.06681 -0.484375,0.06205 -0.05686,0.599917 0.02611,1.208812 0.03503,1.81147 0.03469,0.985866 0.124557,1.974355 0.137141,2.957836 -1.746189,1.806117 -3.546367,3.561466 -5.2370164,5.420307 C 7.847209,27.91535 7.2271352,28.63244 7.2282903,29.5311 c -0.00256,0.336997 -0.031152,0.68535 0.00999,1.015099 2.468293,0.01963 4.9443987,-0.0076 7.4156957,-0.006 3.410983,-0.02047 6.823233,0.01407 10.233117,-0.08684 0.601923,-0.04304 1.234679,-0.02978 1.801908,-0.257437 0.211663,-0.178967 0.112008,-0.504028 0.113122,-0.745861 -0.126375,-1.00423 -0.857527,-1.781247 -1.497341,-2.509012 -1.600402,-1.717723 -3.276552,-3.362717 -4.919266,-5.039598 0.04465,-1.228446 -0.02754,-2.468482 0.167743,-3.685622 0.03292,-0.300167 0.220323,-0.552242 0.287335,-0.838266 -0.05643,-0.214941 -0.357744,-0.187668 -0.530065,-0.234432 -1.045099,-0.109039 -2.099908,-0.0634 -3.149097,-0.0961 -1.068939,-0.01188 -2.137935,-0.02363 -3.206956,-0.02163 z"
     id="path1014" />
  <path
     style="fill:#757b7c;fill-opacity:1;fill-rule:evenodd;stroke:#726c65;stroke-width:0"
     d="M 5.9033954,2.7961238 C 5.7560757,2.9152253 5.8097709,3.1611603 5.7666877,3.329459 5.5547164,6.3804056 5.6225153,9.4416358 5.6188849,12.497663 c 0.032948,1.702397 -0.03508,3.411858 0.1505496,5.107437 0.055477,0.235293 0.016915,0.549098 0.2097572,0.724452 0.1847728,0.02923 0.2118455,-0.239478 0.2669706,-0.364028 0.2329595,-0.828698 0.3086254,-1.693358 0.5491125,-2.520198 0.3215293,-1.236346 0.7014212,-2.456456 1.0755936,-3.677598 0.5896537,1.184449 1.0612046,2.434501 1.7397835,3.57482 0.045011,0.121858 0.2427219,0.175949 0.2634466,0.0087 0.1508715,-1.013564 0.1109284,-2.046093 0.1401585,-3.068345 0.01566,-2.120094 0.05612,-4.2414551 0.01151,-6.361042 C 9.9224873,5.7834755 9.8114981,6.0666267 9.72506,6.1139573 9.0475758,6.8760854 8.4021268,7.6659119 7.7267878,8.4299127 7.1548698,6.5883082 6.6781702,4.7151176 6.0217097,2.9009916 5.9997437,2.8549589 5.9679445,2.7819653 5.9033954,2.7961238 Z"
     id="path1053" />
  <path
     style="fill:#757b7c;fill-opacity:1;fill-rule:evenodd;stroke:#726c65;stroke-width:0"
     d="M 4.3173077,1.6429537 C 3.6815006,1.6664869 3.0193959,1.6010736 2.4063251,1.8038612 2.1562978,1.8789331 2.0468127,2.1362844 2.0855619,2.3794321 2.1477348,8.0734369 2.2016192,13.767543 2.2285907,19.461839 c 0.1677796,0.116555 0.4535866,0.01625 0.6654147,0.04973 0.8147606,-0.01136 1.6399932,0.02265 2.4482581,-0.01685 0.036065,-1.142558 0.00516,-2.305756 0.015459,-3.456251 0,-4.782052 0,-9.5641032 0,-14.3461543 C 5.19043,1.5751944 4.9040669,1.6761813 4.6923078,1.6426977 c -0.125,8.54e-5 -0.2500001,1.707e-4 -0.3750001,2.56e-4 z"
     id="path1092" />
  <path
     style="fill:#ffffff;stroke:#000000;stroke-width:0;stroke-linecap:butt;stroke-linejoin:miter;stroke-miterlimit:4;stroke-dasharray:none;stroke-opacity:1"
     d="m 24.710229,5.8392548 c 1.589375,1.703056 3.142045,3.4403678 4.656566,5.2103222 0.19444,0.227234 0.389677,0.457051 0.533426,0.719308 0.198451,0.362055 0.292065,0.792526 0.199351,1.194858 -0.04636,0.201166 -0.138933,0.392519 -0.27423,0.54844 -0.135297,0.155921 -0.313743,0.275482 -0.511851,0.333533 -0.298828,0.08756 -0.6184,0.03336 -0.925589,-0.01764 -1.084426,-0.18003 -2.194281,-0.312533 -3.280135,-0.141324 -0.04213,0.0066 -0.08435,0.01375 -0.126985,0.01503 -0.04264,0.0013 -0.08604,-0.0035 -0.125448,-0.01983 -0.06065,-0.02514 -0.107804,-0.07622 -0.139491,-0.133725 -0.03169,-0.0575 -0.0494,-0.121535 -0.06486,-0.185343 -0.167855,-0.692513 -0.10013,-1.416629 -0.08567,-2.129047 0.03576,-1.7616548 -0.260413,-3.5333235 -0.02562,-5.2796276 0.01412,-0.1050317 0.03015,-0.2098067 0.04808,-0.314256"
     id="path1394"
     inkscape:path-effect="#path-effect1396"
     inkscape:original-d="m 24.710229,5.8392548 c 0,0 3.105452,3.474593 4.656566,5.2103222 1.551114,1.735729 0.356691,0.480583 0.533426,0.719308 0.176734,0.238723 -0.390078,1.385598 -0.58673,2.076831 -0.196651,0.691234 -0.615984,-0.01074 -0.925589,-0.01764 -0.309605,-0.0069 -2.185682,-0.09317 -3.280135,-0.141324 -1.094452,-0.04815 -0.167213,-0.0022 -0.252433,-0.0048 -0.08521,-0.0026 -0.135162,-0.211667 -0.204355,-0.319068 -0.0692,-0.107401 -0.05604,-1.418319 -0.08567,-2.129047 -0.02963,-0.710728 -0.016,-3.5187068 -0.02562,-5.2796276 -0.0096,-1.7609206 0.03313,-0.2084592 0.04808,-0.314256" />
  <rect
     style="fill:#ffffff;fill-opacity:1;fill-rule:evenodd;stroke:#726c65;stroke-width:0;stroke-miterlimit:4;stroke-dasharray:none"
     id="rect1533"
     width="4.4615378"
     height="2.346154"
     x="24.576923"
     y="11.5"
     ry="0.033339247" />
  <path
     style="fill:#757b7c;fill-opacity:1;fill-rule:evenodd;stroke:#726c65;stroke-width:0;stroke-miterlimit:4;stroke-dasharray:none"
     d="m 24.598783,5.6107272 c -0.148495,0.119273 -0.105339,0.3683306 -0.144481,0.5410148 -0.146292,1.7790531 0.0713,3.5594892 0.03587,5.339617 0.01417,0.796864 -0.0017,1.606182 0.06857,2.394383 1.541947,0.02707 3.092458,0.02317 4.635667,0.03703 0.712674,-0.117328 1.135677,-0.922464 0.962891,-1.59668 -0.212279,-0.897399 -0.960145,-1.513824 -1.51318,-2.20394 C 27.36715,8.6443915 26.035221,7.2145535 24.736806,5.7573479 24.683856,5.7172209 24.679126,5.6101843 24.598781,5.6107222 Z"
     id="path3366" />
</svg>
