<svg xmlns="http://www.w3.org/2000/svg" width="100" height="100" viewBox="0 0 32 32"><path d="M.603 10.577v10.544H3.08c3.146 0 3.916-.536 4.552-3.18l.435-1.841.703.636c.402.368 1.339.904 2.142 1.205 1.339.536 1.406.636 1.406 1.941 0 1.272-.201 1.573-3.146 4.586-3.28 3.314-3.682 4.017-3.481 6.226l.1 1.305h22.427v-4.184l-3.113-3.113c-3.013-3.013-3.079-3.113-3.079-4.653 0-1.506.067-1.64 1.305-2.243.77-.402 1.439-1.071 1.707-1.674.402-1.038.435-1.038 2.879-1.038 2.142 0 2.51-.1 2.946-.736.301-.402.536-1.305.536-1.975 0-1.105-.335-1.573-2.678-4.05-1.473-1.506-3.146-3.481-3.749-4.351l-1.105-1.573-6.695-.033h-6.695L9.54 3.715c-.536.736-1.038 1.339-1.172 1.339s-.536-1.105-.904-2.443L6.795.201.603 0v10.577zm4.686 0v8.87H2.276l-.033-8.201c-.033-4.519-.067-8.402-.1-8.636-.134-.736.167-.904 1.674-.904H5.29v8.87zm1.673-4.518.736 2.51 2.276-2.678v4.753c0 2.644-.067 4.787-.201 4.787-.1 0-.569-.87-1.038-1.941l-.87-1.908-.603 2.008c-.368 1.105-.736 2.577-.837 3.28-.536 3.18-.803 1.004-.77-6.527 0-4.854.134-7.866.301-7.464.167.368.603 1.808 1.004 3.18zm16.335 4.418-.1 5.791-6.259.1-6.293.067V4.719h12.72l-.067 5.757zm-2.544 7.029c-.234.234-.402 1.305-.402 2.41v2.042l3.146 3.18c2.879 2.879 3.381 3.649 3.247 4.921-.033.335-2.209.435-9.741.435H7.296v-1.038c0-.904.536-1.607 3.213-4.318l3.213-3.28-.134-2.377-.1-2.377h3.849c2.979 0 3.715.1 3.414.402z"/><path d="M10.615 4.661c-.025 2.456-.004 4.92-.011 7.38v4.425c.113.11.332.003.49.024 4.025-.065 8.052-.06 12.076-.184.139-.069.043-.292.08-.421.082-3.694.147-7.388.164-11.083.031-.218-.26-.112-.384-.14-4.125-.033-8.25-.015-12.376-.02l-.035.017z" style="fill:#757b7c;fill-rule:evenodd;stroke:#726c65;stroke-width:0;fill-opacity:1"/><path d="M13.954 17.025c-.15.037-.375-.066-.484.062-.057.6.026 1.21.035 1.812.035.986.125 1.974.137 2.958-1.746 1.806-3.546 3.561-5.237 5.42-.558.638-1.178 1.355-1.177 2.254-.002.337-.03.685.01 1.015 2.469.02 4.945-.007 7.416-.006 3.411-.02 6.823.014 10.233-.087.602-.043 1.235-.03 1.802-.257.212-.179.112-.504.113-.746-.126-1.004-.857-1.781-1.497-2.509-1.6-1.718-3.277-3.363-4.92-5.04.045-1.228-.027-2.468.168-3.685.033-.3.22-.552.288-.838-.057-.215-.358-.188-.53-.235-1.046-.109-2.1-.063-3.15-.096a246.997 246.997 0 0 0-3.207-.022zM5.903 2.796c-.147.12-.093.365-.136.533-.212 3.051-.144 6.113-.148 9.169.033 1.702-.035 3.412.15 5.107.056.235.017.55.21.725.185.029.212-.24.267-.364.233-.83.309-1.694.55-2.52.32-1.237.7-2.457 1.075-3.678.59 1.184 1.061 2.434 1.74 3.575.045.121.242.175.263.008.151-1.013.111-2.046.14-3.068.016-2.12.056-4.242.012-6.361-.104-.139-.215.145-.3.192-.678.762-1.324 1.552-2 2.316C7.156 6.588 6.679 4.715 6.023 2.9c-.022-.046-.054-.119-.119-.105ZM4.317 1.643c-.635.023-1.298-.042-1.91.16-.25.076-.36.333-.321.576.062 5.694.116 11.389.143 17.083.167.116.453.016.665.05.815-.012 1.64.022 2.448-.017.036-1.143.005-2.306.016-3.457V1.692c-.168-.117-.454-.016-.666-.05l-.375.001z" style="fill:#757b7c;fill-opacity:1;fill-rule:evenodd;stroke:#726c65;stroke-width:0"/><path d="M24.71 5.84c1.59 1.702 3.142 3.44 4.657 5.21.194.227.39.457.533.719.199.362.292.792.2 1.195a1.275 1.275 0 0 1-.275.548 1.092 1.092 0 0 1-.512.334c-.298.087-.618.033-.925-.018-1.085-.18-2.194-.312-3.28-.141-.042.006-.085.014-.127.015a.303.303 0 0 1-.126-.02.295.295 0 0 1-.14-.134.742.742 0 0 1-.064-.185c-.168-.693-.1-1.417-.086-2.13.036-1.76-.26-3.532-.025-5.279.014-.105.03-.21.048-.314" style="fill:#fff;stroke:#000;stroke-width:0;stroke-linecap:butt;stroke-linejoin:miter;stroke-miterlimit:4;stroke-dasharray:none;stroke-opacity:1"/><rect width="4.462" height="2.346" x="24.577" y="11.5" ry=".033" style="fill:#fff;fill-opacity:1;fill-rule:evenodd;stroke:#726c65;stroke-width:0;stroke-miterlimit:4;stroke-dasharray:none"/><path d="M24.599 5.61c-.149.12-.106.37-.145.542-.146 1.779.072 3.56.036 5.34.014.796-.002 1.606.069 2.394 1.542.027 3.092.023 4.635.037.713-.118 1.136-.923.963-1.597-.212-.897-.96-1.514-1.513-2.204-1.277-1.478-2.609-2.907-3.907-4.365-.053-.04-.058-.147-.138-.146Z" style="fill:#757b7c;fill-opacity:1;fill-rule:evenodd;stroke:#726c65;stroke-width:0;stroke-miterlimit:4;stroke-dasharray:none"/></svg>