<?xml version="1.0" encoding="UTF-8" standalone="no"?>
<!-- Generated by IcoMoon.io -->

<svg
   version="1.1"
   width="100px"
   height="100px"
   viewBox="0 0 32 32"
   id="svg6"
   sodipodi:docname="strength-osrs.svg"
   inkscape:version="1.1 (c68e22c387, 2021-05-23)"
   xmlns:inkscape="http://www.inkscape.org/namespaces/inkscape"
   xmlns:sodipodi="http://sodipodi.sourceforge.net/DTD/sodipodi-0.dtd"
   xmlns="http://www.w3.org/2000/svg"
   xmlns:svg="http://www.w3.org/2000/svg">
  <defs
     id="defs10" />
  <sodipodi:namedview
     id="namedview8"
     pagecolor="#ffffff"
     bordercolor="#666666"
     borderopacity="1.0"
     inkscape:pageshadow="2"
     inkscape:pageopacity="0.0"
     inkscape:pagecheckerboard="0"
     showgrid="false"
     inkscape:zoom="26"
     inkscape:cx="15.980769"
     inkscape:cy="16.019231"
     inkscape:window-width="1920"
     inkscape:window-height="1017"
     inkscape:window-x="1912"
     inkscape:window-y="-8"
     inkscape:window-maximized="1"
     inkscape:current-layer="svg6" />
  <title
     id="title2">strength-osrs</title>
  <path
     d="M10.553 1.872c-0.374 1.736-0.443 1.872-1.362 1.872-0.817 0-1.328 0.443-3.2 2.86-2.247 2.826-2.247 2.86-2.247 5.004v2.179l5.447 6.945 0.068 5.549 0.102 5.549 6.911 0.102 6.877 0.068v-8.885l1.532-2.281c1.362-2.043 1.532-2.485 1.532-4.221 0-1.77 0.102-2.009 1.021-2.655 0.885-0.647 1.021-0.919 1.021-2.417 0-1.838-1.021-3.711-2.043-3.711-0.306 0-0.851-0.647-1.294-1.532-0.613-1.26-0.885-1.532-1.702-1.532s-1.021-0.204-1.464-1.464l-0.545-1.43-2.043-0.102c-1.77-0.068-2.111-0.204-2.485-0.919-0.409-0.783-0.647-0.851-3.098-0.851h-2.655l-0.374 1.872zM15.694 1.906c0.34 0.443 0.306 0.851-0.204 2.383-1.055 3.132-1.26 3.268-2.826 1.736-1.43-1.396-1.43-1.6-0.579-4.255 0.204-0.613 3.064-0.545 3.608 0.136zM20.63 4.255c0.272 0.681 0.374 1.396 0.238 1.634-0.681 1.123-3.268 4.323-3.472 4.323-0.136 0-0.749-0.511-1.328-1.123l-1.123-1.157 0.749-1.668c0.374-0.919 0.851-2.009 1.021-2.451 0.238-0.613 0.545-0.749 1.838-0.749 1.464 0 1.6 0.068 2.077 1.192zM13.719 8.17c2.247 2.621 2.621 3.166 2.247 3.608-0.987 1.191-1.6 1.191-2.791 0.136-1.464-1.26-1.702-1.26-2.451-0.102l-0.613 0.953 0.749-0.647c0.749-0.681 0.749-0.681 1.702 0.409 0.545 0.579 1.362 1.157 1.838 1.26 0.851 0.238 1.26 0.987 1.26 2.451 0 0.443-0.545 1.192-1.43 1.94-1.6 1.396-1.6 1.43 0.409 0.715 2.417-0.851 3.643-0.681 4.426 0.579 0.647 1.089 0.681 1.089 0.681 0.272-0.034-1.123-0.749-2.043-1.872-2.315-0.715-0.204-1.089-0.647-1.566-1.94-0.681-1.804-0.443-2.689 0.545-1.872 0.306 0.272 1.157 0.443 1.906 0.409 1.157-0.102 1.328 0 1.328 0.647 0 1.838 2.247 2.655 3.677 1.328 0.987-0.953 1.089-0.885 1.089 0.681 0 1.055-0.34 1.906-1.532 3.677l-1.532 2.281v8h-10.894v-9.906l-2.894-3.779c-2.689-3.506-2.894-3.847-2.894-5.379 0-1.43 0.204-1.838 1.94-4.051 2.723-3.438 3.166-3.404 6.672 0.647zM23.932 7.421l0.681 1.157-2.349 2.349c-1.872 1.906-2.519 2.349-3.37 2.349-2.077 0-1.974-0.545 0.579-3.983 2.689-3.574 3.336-3.813 4.46-1.872zM26.689 10.077c0.443 1.191 0.136 1.872-1.702 3.608-2.281 2.145-3.643 2.451-3.813 0.817-0.102-0.817 0.204-1.328 1.838-2.962 2.009-2.043 3.268-2.519 3.677-1.464z"
     id="path4" />
  <path
     style="fill:#c1a476;fill-rule:evenodd;stroke:#726c65;stroke-width:0;fill-opacity:1"
     d="M 9.846905,5.0082632 C 9.3251,5.0044012 8.9140188,5.4011573 8.5444712,5.7224309 7.5764569,6.6799986 6.765318,7.7820743 5.9580323,8.87454 c -0.4304378,0.6335823 -0.889807,1.331581 -0.8673622,2.129892 0.018203,0.736006 -0.1126608,1.52916 0.2425371,2.209501 0.5104161,1.090155 1.314866,2.004159 2.0144898,2.97327 1.157047,1.52553 2.3244234,3.043197 3.486888,4.5646 0,3.300681 0,6.601362 0,9.902043 0.167293,0.117153 0.453656,0.01642 0.665415,0.05003 3.435897,0 6.871795,0 10.307692,0 0.117153,-0.167292 0.01642,-0.453655 0.05003,-0.665414 0,-2.461864 0,-4.923729 0,-7.385592 0.845834,-1.312679 1.772039,-2.577549 2.527082,-3.946375 0.306327,-0.598657 0.539882,-1.258242 0.491623,-1.940645 -0.0264,-0.435848 0.06092,-0.898199 -0.08383,-1.317307 -0.160688,-0.22253 -0.459344,-0.05015 -0.606202,0.09708 -0.459323,0.408922 -0.948268,0.866436 -1.563044,0.993211 -0.904955,0.217586 -1.996831,-0.235562 -2.331505,-1.144306 -0.175586,-0.377089 -0.09362,-0.819748 -0.237154,-1.205904 -0.182727,-0.290721 -0.592106,-0.210466 -0.882809,-0.237264 -0.789214,-0.01745 -1.676734,0.0776 -2.345221,-0.428393 -0.225051,-0.149085 -0.577498,-0.407546 -0.822676,-0.156008 -0.206115,0.259845 -0.111862,0.633201 -0.09631,0.937275 0.183142,0.883552 0.502306,1.751666 0.98708,2.515099 0.314946,0.469813 0.880515,0.630388 1.378455,0.814679 0.869925,0.366103 1.433658,1.27164 1.404973,2.211838 -0.007,0.119225 0.01878,0.298491 -0.03546,0.38717 -0.453162,-0.541162 -0.712362,-1.283333 -1.368239,-1.632362 -0.419247,-0.2446 -0.90857,-0.314758 -1.386925,-0.275 -1.308086,0.0462 -2.491301,0.685982 -3.749418,0.965204 0.540366,-0.615917 1.217866,-1.097467 1.775578,-1.699626 0.329781,-0.367407 0.723416,-0.762204 0.786546,-1.274382 -0.0023,-0.771452 -0.03805,-1.668451 -0.642803,-2.233399 -0.396335,-0.365782 -0.974254,-0.387334 -1.394306,-0.71567 -0.725122,-0.472393 -1.254104,-1.186143 -1.921349,-1.727313 -0.332319,-0.156282 -0.612561,0.19744 -0.851807,0.372279 -0.16295,0.137107 -0.360411,0.321533 -0.499455,0.427601 0.330271,-0.464345 0.57016,-1.03439 1.057166,-1.363357 0.380541,-0.198255 0.740219,0.178442 1.044623,0.3612 0.606832,0.428816 1.121069,1.045727 1.853289,1.26703 0.408739,0.07913 0.838247,-0.04899 1.12853,-0.349835 0.242179,-0.259461 0.59752,-0.482435 0.671951,-0.851637 -0.01089,-0.487881 -0.387402,-0.86595 -0.640129,-1.252113 C 14.475696,8.913925 13.36038,7.6417493 12.202302,6.413681 11.641619,5.865598 11.064808,5.2466879 10.288912,5.0228365 10.142708,5.001711 9.9940904,5.0093095 9.846905,5.0082632 Z"
     id="path864" />
  <path
     style="fill:#c1a476;fill-opacity:1;fill-rule:evenodd;stroke:#726c65;stroke-width:0"
     d="m 25.914588,9.4888071 c -0.736725,0.061133 -1.323591,0.5833059 -1.874173,1.0274939 -0.868835,0.777746 -1.718515,1.58912 -2.446139,2.50278 -0.326025,0.413711 -0.567912,0.93437 -0.470854,1.472355 0.02971,0.442389 0.212331,1.00388 0.714243,1.084586 0.663741,0.07195 1.259569,-0.335309 1.78763,-0.681697 0.899089,-0.653546 1.707655,-1.42884 2.4555,-2.248951 0.472604,-0.538673 0.956042,-1.21452 0.82245,-1.974476 -0.08163,-0.430458 -0.197463,-0.9796451 -0.665264,-1.1416762 -0.104245,-0.032956 -0.214504,-0.042792 -0.323393,-0.040415 z"
     id="path1014" />
  <path
     style="fill:#c1a476;fill-opacity:1;fill-rule:evenodd;stroke:#726c65;stroke-width:0"
     d="m 22.631911,6.1564754 c -0.622849,0.061133 -1.077866,0.5680652 -1.492517,0.9884181 -1.139563,1.2974987 -2.17214,2.688662 -3.13053,4.1244125 -0.266282,0.455683 -0.621151,0.924682 -0.621695,1.47491 0.03551,0.420918 0.528081,0.539719 0.87692,0.556827 0.583755,0.03391 1.216614,0.05625 1.724418,-0.284742 0.942935,-0.615511 1.703871,-1.462298 2.514291,-2.234678 0.722777,-0.718226 1.440122,-1.4418447 2.160213,-2.1627828 -0.0639,-0.279035 -0.294309,-0.5236013 -0.422758,-0.789274 -0.345185,-0.53144 -0.617109,-1.1554714 -1.14485,-1.5354706 -0.138909,-0.083299 -0.299497,-0.1429198 -0.463492,-0.1376202 z"
     id="path1053" />
  <path
     style="fill:#c1a476;fill-opacity:1;fill-rule:evenodd;stroke:#726c65;stroke-width:0"
     d="m 18.507587,3.0064603 c -0.474802,0.035268 -0.998849,-0.018752 -1.426382,0.2281401 -0.429805,0.2858377 -0.493532,0.8513533 -0.720403,1.2774939 -0.445746,1.1085029 -0.95498,2.1906527 -1.399714,3.2990534 -0.122458,0.2144611 0.158936,0.3451515 0.261975,0.4932804 0.635158,0.6313131 1.250917,1.2907265 1.946258,1.8558789 0.105629,0.07569 0.255478,0.190091 0.35622,0.03824 0.93424,-0.9659161 1.748847,-2.040903 2.56896,-3.1035161 C 20.392158,6.693618 20.694166,6.2902035 20.953876,5.8649339 20.992218,5.2372687 20.873459,4.608464 20.599685,4.0416917 20.422669,3.5891811 20.101249,3.1003403 19.56881,3.0584435 19.216895,3.0168428 18.861836,3.0016204 18.507587,3.0064603 Z"
     id="path1092" />
  <path
     style="fill:#c1a476;fill-opacity:1;fill-rule:evenodd;stroke:#726c65;stroke-width:0"
     d="m 13.45335,1.3188852 c -0.460619,0.021003 -1.023012,-0.023632 -1.367638,0.344351 -0.230712,0.5179925 -0.359174,1.0793376 -0.515762,1.6238747 -0.103608,0.4461524 -0.143893,0.923096 -0.04937,1.37282 0.29532,0.7193649 0.9405,1.2086776 1.473605,1.7460387 0.325866,0.2677231 0.677408,0.6749677 1.143432,0.6115335 0.439548,-0.1502323 0.605754,-0.6459512 0.791827,-1.0270739 0.391233,-0.9909297 0.75871,-1.9984708 0.998438,-3.03783 0.100861,-0.4450135 0.03227,-0.9974517 -0.39851,-1.2472206 C 14.910408,1.3326821 14.155586,1.3046707 13.45335,1.3188852 Z"
     id="path1131" />
</svg>
