<svg xmlns="http://www.w3.org/2000/svg" width="100" height="100" viewBox="0 0 32 32"><path d="M10.553 1.872c-.374 1.736-.443 1.872-1.362 1.872-.817 0-1.328.443-3.2 2.86-2.247 2.826-2.247 2.86-2.247 5.004v2.179l5.447 6.945.068 5.549.102 5.549 6.911.102 6.877.068v-8.885l1.532-2.281c1.362-2.043 1.532-2.485 1.532-4.221 0-1.77.102-2.009 1.021-2.655.885-.647 1.021-.919 1.021-2.417 0-1.838-1.021-3.711-2.043-3.711-.306 0-.851-.647-1.294-1.532-.613-1.26-.885-1.532-1.702-1.532s-1.021-.204-1.464-1.464l-.545-1.43-2.043-.102c-1.77-.068-2.111-.204-2.485-.919C16.27.068 16.032 0 13.581 0h-2.655l-.374 1.872zm5.141.034c.34.443.306.851-.204 2.383-1.055 3.132-1.26 3.268-2.826 1.736-1.43-1.396-1.43-1.6-.579-4.255.204-.613 3.064-.545 3.608.136zm4.936 2.349c.272.681.374 1.396.238 1.634-.681 1.123-3.268 4.323-3.472 4.323-.136 0-.749-.511-1.328-1.123l-1.123-1.157.749-1.668c.374-.919.851-2.009 1.021-2.451.238-.613.545-.749 1.838-.749 1.464 0 1.6.068 2.077 1.192zM13.719 8.17c2.247 2.621 2.621 3.166 2.247 3.608-.987 1.191-1.6 1.191-2.791.136-1.464-1.26-1.702-1.26-2.451-.102l-.613.953.749-.647c.749-.681.749-.681 1.702.409.545.579 1.362 1.157 1.838 1.26.851.238 1.26.987 1.26 2.451 0 .443-.545 1.192-1.43 1.94-1.6 1.396-1.6 1.43.409.715 2.417-.851 3.643-.681 4.426.579.647 1.089.681 1.089.681.272-.034-1.123-.749-2.043-1.872-2.315-.715-.204-1.089-.647-1.566-1.94-.681-1.804-.443-2.689.545-1.872.306.272 1.157.443 1.906.409 1.157-.102 1.328 0 1.328.647 0 1.838 2.247 2.655 3.677 1.328.987-.953 1.089-.885 1.089.681 0 1.055-.34 1.906-1.532 3.677l-1.532 2.281v8H10.895v-9.906l-2.894-3.779c-2.689-3.506-2.894-3.847-2.894-5.379 0-1.43.204-1.838 1.94-4.051 2.723-3.438 3.166-3.404 6.672.647zm10.213-.749.681 1.157-2.349 2.349c-1.872 1.906-2.519 2.349-3.37 2.349-2.077 0-1.974-.545.579-3.983 2.689-3.574 3.336-3.813 4.46-1.872zm2.757 2.656c.443 1.191.136 1.872-1.702 3.608-2.281 2.145-3.643 2.451-3.813.817-.102-.817.204-1.328 1.838-2.962 2.009-2.043 3.268-2.519 3.677-1.464z"/><path d="M9.847 5.008c-.522-.004-.933.393-1.303.714-.968.958-1.779 2.06-2.586 3.153-.43.633-.89 1.331-.867 2.13.018.735-.113 1.529.242 2.209.51 1.09 1.315 2.004 2.015 2.973 1.157 1.526 2.324 3.043 3.487 4.565v9.902c.167.117.453.016.665.05h10.308c.117-.167.016-.454.05-.666v-7.385c.846-1.313 1.772-2.578 2.527-3.947.306-.598.54-1.258.491-1.94-.026-.436.061-.898-.083-1.317-.161-.223-.46-.05-.607.097-.459.409-.948.866-1.563.993-.905.217-1.996-.236-2.331-1.144-.176-.378-.094-.82-.237-1.206-.183-.291-.592-.21-.883-.238-.79-.017-1.677.078-2.345-.428-.225-.15-.578-.408-.823-.156-.206.26-.112.633-.096.937.183.884.502 1.752.987 2.515.315.47.88.63 1.378.815.87.366 1.434 1.272 1.405 2.212-.007.12.019.298-.035.387-.453-.541-.713-1.283-1.369-1.632-.419-.245-.908-.315-1.386-.275-1.309.046-2.492.686-3.75.965.54-.616 1.218-1.098 1.776-1.7.33-.367.723-.762.786-1.274-.002-.772-.038-1.669-.643-2.234-.396-.365-.974-.387-1.394-.715-.725-.473-1.254-1.186-1.921-1.728-.333-.156-.613.198-.852.373-.163.137-.36.321-.5.427.33-.464.57-1.034 1.058-1.363.38-.198.74.178 1.044.361.607.429 1.121 1.046 1.854 1.267.408.08.838-.049 1.128-.35.242-.26.598-.482.672-.851-.01-.488-.387-.866-.64-1.252a50.796 50.796 0 0 0-3.304-3.838c-.56-.548-1.137-1.167-1.913-1.391-.146-.021-.295-.014-.442-.015Z" style="fill:#c1a476;fill-rule:evenodd;stroke:#726c65;stroke-width:0;fill-opacity:1"/><path d="M25.915 9.489c-.737.06-1.324.583-1.875 1.027-.868.778-1.718 1.59-2.446 2.503-.326.414-.568.934-.47 1.472.03.443.212 1.004.714 1.085.663.072 1.26-.335 1.787-.682.9-.653 1.708-1.429 2.456-2.249.472-.538.956-1.214.822-1.974-.081-.43-.197-.98-.665-1.142a1 1 0 0 0-.323-.04zM22.632 6.156c-.623.062-1.078.569-1.493.989-1.14 1.297-2.172 2.689-3.13 4.124-.266.456-.621.925-.622 1.475.036.421.528.54.877.557.584.034 1.217.056 1.725-.285.942-.615 1.703-1.462 2.514-2.234.723-.719 1.44-1.442 2.16-2.163-.064-.28-.294-.524-.423-.79-.345-.53-.617-1.155-1.145-1.535a.864.864 0 0 0-.463-.138zM18.508 3.006c-.475.036-1-.018-1.427.229-.43.285-.493.851-.72 1.277-.446 1.109-.955 2.19-1.4 3.3-.122.214.159.344.262.492.635.632 1.251 1.291 1.946 1.856.106.076.256.19.357.039.934-.966 1.748-2.041 2.569-3.104.297-.401.6-.805.859-1.23a3.676 3.676 0 0 0-.354-1.823c-.177-.453-.499-.942-1.031-.984a8.101 8.101 0 0 0-1.061-.052ZM13.453 1.319c-.46.02-1.023-.024-1.367.344-.231.518-.36 1.08-.516 1.624-.104.446-.144.923-.05 1.373.296.72.941 1.209 1.474 1.746.326.268.678.675 1.144.612.44-.15.605-.646.791-1.028.392-.99.76-1.998.999-3.037.1-.445.032-.998-.399-1.248-.619-.372-1.373-.4-2.076-.386Z" style="fill:#c1a476;fill-opacity:1;fill-rule:evenodd;stroke:#726c65;stroke-width:0"/></svg>