<svg xmlns="http://www.w3.org/2000/svg" width="100" height="100" viewBox="0 0 32 32"><path d="M6.096 8.557c-2.44.869-4.345 2.273-5.348 3.978-.702 1.237-.836 1.772-.702 3.476.167 2.306.869 3.443 2.808 4.546 1.103.635 1.805.769 4.579.769h3.276l1.671 1.337C13.884 23.833 14.285 24 15.823 24c1.437 0 2.039-.201 3.142-.969.735-.535 1.437-1.136 1.571-1.337.134-.234 1.571-.368 3.61-.368 5.081-.033 7.12-1.237 7.755-4.713.535-2.841-1.103-5.448-4.579-7.354l-2.106-1.136-8.691-.1c-7.721-.067-8.891 0-10.429.535zm6.786 3.911c.401 1.003-.267 2.975-1.37 4.078-1.036 1.036-1.27 1.103-3.242 1.103-2.273-.033-4.379-.802-4.546-1.705-.067-.301.401-1.203 1.003-2.006 1.237-1.604 1.905-1.805 6.05-1.905 1.437-.067 1.972.067 2.106.435zm13.604.768c.535.501 1.17 1.304 1.437 1.772.401.769.368.936-.134 1.404-.902.802-2.306 1.237-4.111 1.237-2.039 0-3.476-.702-4.145-2.006-.535-1.036-.669-3.042-.234-3.476.134-.167 1.571-.201 3.209-.067 2.674.167 3.109.301 3.978 1.136z"/></svg>