<!-- Generated by IcoMoon.io -->
<svg version="1.1" xmlns="http://www.w3.org/2000/svg" width="100px" height="100px" viewBox="0 0 32 32">
<title>thieving-osrs</title>
<path d="M6.096 8.557c-2.44 0.869-4.345 2.273-5.348 3.978-0.702 1.237-0.836 1.772-0.702 3.476 0.167 2.306 0.869 3.443 2.808 4.546 1.103 0.635 1.805 0.769 4.579 0.769h3.276l1.671 1.337c1.504 1.17 1.905 1.337 3.443 1.337 1.437 0 2.039-0.201 3.142-0.969 0.735-0.535 1.437-1.136 1.571-1.337 0.134-0.234 1.571-0.368 3.61-0.368 5.081-0.033 7.12-1.237 7.755-4.713 0.535-2.841-1.103-5.448-4.579-7.354l-2.106-1.136-8.691-0.1c-7.721-0.067-8.891 0-10.429 0.535zM12.882 12.468c0.401 1.003-0.267 2.975-1.37 4.078-1.036 1.036-1.27 1.103-3.242 1.103-2.273-0.033-4.379-0.802-4.546-1.705-0.067-0.301 0.401-1.203 1.003-2.006 1.237-1.604 1.905-1.805 6.050-1.905 1.437-0.067 1.972 0.067 2.106 0.435zM26.486 13.236c0.535 0.501 1.17 1.304 1.437 1.772 0.401 0.769 0.368 0.936-0.134 1.404-0.902 0.802-2.306 1.237-4.111 1.237-2.039 0-3.476-0.702-4.145-2.006-0.535-1.036-0.669-3.042-0.234-3.476 0.134-0.167 1.571-0.201 3.209-0.067 2.674 0.167 3.109 0.301 3.978 1.136z"></path>
</svg>
