<?xml version="1.0" encoding="UTF-8" standalone="no"?>
<!-- Generated by IcoMoon.io -->

<svg
   version="1.1"
   width="100px"
   height="100px"
   viewBox="0 0 32 32"
   id="svg6"
   sodipodi:docname="woodcutting-osrs.svg"
   inkscape:version="1.1 (c68e22c387, 2021-05-23)"
   xmlns:inkscape="http://www.inkscape.org/namespaces/inkscape"
   xmlns:sodipodi="http://sodipodi.sourceforge.net/DTD/sodipodi-0.dtd"
   xmlns="http://www.w3.org/2000/svg"
   xmlns:svg="http://www.w3.org/2000/svg">
  <defs
     id="defs10" />
  <sodipodi:namedview
     id="namedview8"
     pagecolor="#ffffff"
     bordercolor="#666666"
     borderopacity="1.0"
     inkscape:pageshadow="2"
     inkscape:pageopacity="0.0"
     inkscape:pagecheckerboard="0"
     showgrid="false"
     inkscape:zoom="26"
     inkscape:cx="15.980769"
     inkscape:cy="16.019231"
     inkscape:window-width="1920"
     inkscape:window-height="1017"
     inkscape:window-x="1912"
     inkscape:window-y="-8"
     inkscape:window-maximized="1"
     inkscape:current-layer="svg6" />
  <title
     id="title2">woodcutting-osrs</title>
  <path
     d="M12.689 0.185c-1.347 0.449-2.971 1.658-3.213 2.453-0.138 0.38-0.415 0.691-0.656 0.691-0.656 0-2.28 1.347-2.28 1.865 0 0.242-0.518 1.002-1.14 1.693-1.451 1.52-2.314 3.282-2.314 4.732s0.933 3.385 1.762 3.627c0.345 0.138 0.656 0.345 0.656 0.518 0 0.691 1.554 1.727 2.591 1.727 0.794 0 1.416 0.345 2.349 1.313l1.278 1.313v3.213c0 3.109-0.035 3.213-1.209 4.767-0.829 1.071-1.209 1.934-1.209 2.729v1.174h13.472v-1.14c0-0.76-0.415-1.727-1.209-2.867-1.036-1.416-1.209-1.969-1.209-3.558 0-1.727 0.104-1.934 1.313-3.005 0.725-0.622 1.589-1.727 1.934-2.487 0.484-1.071 0.794-1.382 1.52-1.382 0.553 0 1.14-0.311 1.485-0.794 0.345-0.449 0.967-1.244 1.382-1.796 1.002-1.313 1.209-3.316 0.518-4.663-0.311-0.622-0.725-1.105-0.933-1.105-0.242 0-0.311-0.38-0.207-0.933 0.138-0.76-0.069-1.174-1.244-2.245-0.794-0.691-1.865-1.382-2.384-1.485-0.518-0.138-0.967-0.415-0.967-0.656 0-0.518-2.28-2.729-3.385-3.316-1.036-0.518-5.492-0.76-6.701-0.38zM17.87 1.464c0.587 0.138 1.693 0.794 2.487 1.52 1.278 1.174 1.382 1.382 1.036 2.245-0.207 0.518-0.311 1.002-0.242 1.071s0.691-0.035 1.382-0.242c1.382-0.38 1.969-0.207 1.969 0.553 0 0.276 0.38 0.587 0.864 0.725 1.036 0.276 1.071 0.484 0.138 1.658-0.656 0.829-0.656 0.898-0.069 0.898 2.142 0 2.902 2.625 1.313 4.352-0.484 0.518-0.864 1.14-0.864 1.347 0 0.553-0.864 0.898-1.52 0.656-0.553-0.207-0.933-1.796-0.518-2.073 0.38-0.207 0.415-2.902 0.035-2.902-0.138 0-0.449 0.311-0.691 0.691-0.449 0.76-1.485 0.898-2.522 0.345-0.553-0.311-0.656-0.242-0.656 0.415 0 0.449 0.242 1.174 0.553 1.589 0.484 0.725 0.484 0.76-0.345 0.76-0.518 0-0.898 0.207-0.898 0.449s-0.207 0.76-0.484 1.105c-0.449 0.622-0.518 0.622-1.036 0.069-0.345-0.311-0.829-0.587-1.105-0.587-0.656 0-0.622-0.449 0.242-1.485 0.553-0.725 0.656-1.313 0.587-2.902l-0.104-2.003-0.518 1.036c-0.449 0.864-1.347 1.589-2.591 2.004-0.173 0.069-0.415 1.036-0.518 2.176-0.207 2.003-0.207 2.038-0.656 1.002-0.242-0.553-0.587-1.14-0.794-1.244-0.242-0.173-0.035-0.829 0.587-1.9l1.002-1.693-1.174 0.967c-0.864 0.725-1.416 0.967-2.176 0.829-0.794-0.104-1.071 0-1.209 0.518-0.069 0.345-0.311 0.622-0.484 0.622-0.207 0-0.173 0.207 0.069 0.518 0.587 0.725 0.173 1.554-0.794 1.554s-1.624-0.587-1.624-1.451c0-0.38-0.242-0.622-0.691-0.622-0.829 0-1.382-0.967-1.382-2.418 0-1.347 0.553-2.418 1.244-2.418 0.38 0 0.449-0.207 0.311-0.691-0.173-0.518 0-0.76 0.691-1.036 0.518-0.207 1.071-0.276 1.244-0.138 0.415 0.242 0.38-0.587-0.035-1.244-0.415-0.691 0.207-1.382 1.244-1.382 0.553 0 0.933-0.276 1.14-0.795 0.829-2.176 3.938-3.178 7.565-2.453zM16.903 12.967c0 0.138-0.311 0.691-0.691 1.174-0.518 0.656-0.691 1.382-0.691 2.971 0 2.211 0.276 2.556 1.071 1.451 0.656-0.933 2.384-0.622 2.211 0.345-0.173 0.794 0.276 0.829 1.347 0.138 1.347-0.898 2.384-4.525 1.416-4.871-0.829-0.345-0.587-0.725 0.449-0.76 0.933-0.035 0.933 0 0.898 2.211-0.035 2.522-1.002 4.318-2.902 5.423-1.002 0.622-1.036 0.725-1.036 3.109 0 2.28 0.104 2.625 1.209 4.18 0.656 0.933 1.209 1.831 1.209 2.003 0 0.138-2.418 0.276-5.354 0.276s-5.354-0.138-5.354-0.311c0-0.138 0.553-1.002 1.209-1.865 1.209-1.589 1.209-1.589 1.209-5.147v-3.593l-1.485-1.451c-1.278-1.244-1.52-1.693-1.451-2.764 0-0.898 0.207-1.313 0.622-1.382 0.38-0.069 0.587 0.104 0.587 0.518 0 0.864 2.245 3.316 2.833 3.109 0.276-0.104 0.415-0.622 0.345-1.485-0.138-1.9 0.138-2.729 1.036-3.178 1.002-0.449 1.313-0.484 1.313-0.104z"
     id="path4" />
  <path
     style="fill:#773d09;fill-rule:evenodd;stroke:#726c65;stroke-width:0;fill-opacity:1"
     d="m 16.670147,12.648362 c -0.504425,0.07429 -0.991843,0.288944 -1.414212,0.572266 -0.651888,0.466584 -0.781353,1.330147 -0.780097,2.076464 -0.03799,0.674943 0.08192,1.36089 -0.03766,2.022695 -0.03797,0.229266 -0.268591,0.456229 -0.505333,0.311223 -0.670185,-0.35374 -1.20088,-0.938836 -1.681416,-1.51863 -0.39713,-0.516242 -0.796838,-1.083951 -0.857121,-1.741962 -0.08613,-0.398767 -0.636351,-0.420617 -0.902795,-0.187876 -0.39876,0.364831 -0.369929,0.967896 -0.383037,1.464243 -0.0145,0.525822 0.07507,1.078625 0.428711,1.489708 0.758776,0.926691 1.659201,1.724824 2.489708,2.585262 -0.01497,2.060176 0.03564,4.125658 -0.04229,6.182091 -0.0072,0.631675 -0.238078,1.23979 -0.598332,1.754507 -0.572882,0.847484 -1.255805,1.629037 -1.726412,2.541542 -0.08531,0.203299 0.20999,0.242343 0.344276,0.265625 1.600733,0.199298 3.218617,0.195097 4.829248,0.182263 1.516846,-0.02635 3.037241,0.01393 4.551173,-0.09611 0.333991,-0.05101 0.699466,-0.01722 1.013434,-0.146471 0.09606,-0.203291 -0.11649,-0.411777 -0.190965,-0.591745 -0.525249,-0.918723 -1.202208,-1.742808 -1.714985,-2.667933 -0.537591,-0.970997 -0.415974,-2.12222 -0.434123,-3.198097 0.02906,-0.655166 -0.03762,-1.32353 0.104646,-1.96733 0.205273,-0.597852 0.863983,-0.812488 1.319198,-1.176521 1.328315,-0.869403 2.156878,-2.362972 2.378765,-3.916421 0.153224,-1.007651 0.121982,-2.034804 0.06725,-3.049048 -0.01084,-0.338076 -0.358136,-0.521571 -0.664773,-0.488058 -0.384347,0.0251 -0.821635,-7.69e-4 -1.147017,0.236043 -0.185817,0.168466 -0.02454,0.430503 0.167293,0.506761 0.241975,0.121405 0.545957,0.257528 0.553937,0.577298 0.127298,1.060133 -0.236537,2.121103 -0.711614,3.060171 -0.325736,0.632775 -0.792845,1.223203 -1.455679,1.522762 -0.234417,0.09761 -0.519696,0.295355 -0.77464,0.169546 -0.16348,-0.360436 0.09903,-0.852777 -0.237379,-1.147611 -0.283738,-0.283255 -0.696428,-0.338338 -1.078876,-0.304012 -0.507709,-0.0046 -0.897949,0.378995 -1.1875,0.751353 -0.157902,0.134846 -0.288804,0.410895 -0.530574,0.37192 -0.257321,-0.30881 -0.20968,-0.761372 -0.247871,-1.138635 -0.0096,-1.009249 -0.113813,-2.056953 0.236452,-3.025052 0.255648,-0.722499 0.910828,-1.246112 1.106145,-1.995267 0.0094,-0.159474 -0.120627,-0.303764 -0.285532,-0.28696 z"
     id="path864" />
  <path
     style="fill:#00bc00;fill-opacity:1;fill-rule:evenodd;stroke:#726c65;stroke-width:0"
     d="M 15.427284,1.1787861 C 13.904002,1.1911135 12.298009,1.5710843 11.137707,2.6088196 10.700562,2.9879696 10.413249,3.496543 10.185021,4.0199068 10.021,4.3663792 9.6844788,4.6247118 9.2921423,4.6280048 8.7468654,4.6646379 8.0910468,4.7755398 7.8169321,5.3169319 7.604781,5.7130319 7.8862807,6.1177777 8.0479267,6.4716796 8.1351754,6.7234565 8.2480446,7.0326073 8.1363432,7.2847054 7.4544224,7.1573369 6.7105097,7.2935008 6.1479117,7.7116135 5.8363118,7.9466723 5.9041643,8.3765254 6.0053335,8.69997 6.0521567,8.8596146 6.0447102,9.1040985 5.8269231,9.1135815 5.4597666,9.1485219 5.1056687,9.3273242 4.9138372,9.6527946 4.4094814,10.434635 4.355851,11.422859 4.4651442,12.323017 c 0.087418,0.650181 0.338616,1.377363 0.9776142,1.673077 0.3024652,0.159968 0.7389575,0.01274 0.9501202,0.347731 0.1625604,0.330085 0.066236,0.738142 0.2877855,1.051457 0.4053022,0.687253 1.3703711,0.956673 2.0883413,0.635668 C 9.2312638,15.833081 9.41553,15.230239 9.168795,14.799429 9.0808504,14.565835 8.8328138,14.372875 8.8357123,14.115535 c 0.3530089,-0.0605 0.53848,-0.41967 0.6146331,-0.739333 0.060016,-0.254916 0.2767504,-0.470589 0.5559236,-0.431231 0.493544,-0.02485 1.004407,0.0363 1.492571,-0.01323 0.844146,-0.3547 1.501296,-1.016319 2.211046,-1.568681 -0.498684,0.889417 -1.102759,1.734784 -1.445989,2.701622 -0.07569,0.248837 -0.12705,0.579081 0.12778,0.746244 0.491728,0.508705 0.657914,1.225578 1.032301,1.807467 0.142719,0.127271 0.234642,-0.120538 0.242338,-0.232947 0.218361,-1.146079 0.178398,-2.347689 0.589619,-3.450646 0.137986,-0.231935 0.458704,-0.223103 0.668216,-0.363353 0.721561,-0.313242 1.359784,-0.817852 1.822168,-1.453955 0.231603,-0.372544 0.415752,-0.771108 0.629132,-1.1522688 0.0295,1.1519838 0.203288,2.3188308 0.03335,3.4583708 -0.100812,0.710731 -0.613356,1.247139 -0.991129,1.825659 -0.124984,0.222277 -0.374309,0.562937 -0.136118,0.795373 0.26661,0.173638 0.621582,0.10221 0.887245,0.291015 0.410104,0.191145 0.697422,0.556455 1.067082,0.801608 0.264551,0.101002 0.432913,-0.225904 0.583008,-0.386193 0.29971,-0.387724 0.501505,-0.844324 0.601112,-1.321965 0.211238,-0.283575 0.628961,-0.278658 0.951623,-0.302134 0.182273,-0.01426 0.530151,0.04335 0.55619,-0.213341 -0.106167,-0.456744 -0.482793,-0.7975 -0.637574,-1.238979 -0.162771,-0.446877 -0.275643,-0.952424 -0.15855,-1.424032 0.133117,-0.116525 0.331219,0.04693 0.470552,0.08601 0.653321,0.341823 1.498655,0.540232 2.16564,0.123498 0.46955,-0.265093 0.612958,-0.870976 1.089769,-1.11899 0.142583,0.0076 0.125611,0.234452 0.16241,0.338792 0.07879,0.705303 0.09674,1.426562 -0.05707,2.119739 -0.06263,0.306414 -0.375696,0.506253 -0.350232,0.840973 0.01409,0.545762 0.162347,1.133908 0.551833,1.535907 0.347835,0.28439 0.873149,0.24426 1.262771,0.06648 0.272,-0.115374 0.501116,-0.35026 0.526668,-0.655048 0.257275,-0.863391 1.080872,-1.390253 1.42865,-2.210196 0.44192,-0.963342 0.348731,-2.247131 -0.462455,-2.992178 C 26.458413,9.9473073 25.804163,9.8496192 25.195463,9.8070915 25.109506,9.8138908 25.02237,9.7803127 25.088717,9.6908804 25.428997,9.05851 26.052748,8.5810638 26.241737,7.8700419 26.220498,7.5428592 25.825988,7.4374669 25.573543,7.3380408 25.169362,7.2050819 24.624988,7.0367773 24.550706,6.5487531 24.587743,6.1511904 24.221849,5.8358654 23.842473,5.818735 23.156524,5.763346 22.502496,6.0500665 21.836125,6.1667465 c -0.210609,0.046507 -0.423148,0.0855 -0.638859,0.097752 0.02081,-0.6266262 0.414767,-1.1816273 0.411132,-1.8082932 C 21.531444,3.9525635 21.061619,3.6420157 20.744982,3.2863305 19.765239,2.3433545 18.597203,1.4368144 17.200015,1.2872275 16.612775,1.2087336 16.019631,1.1748411 15.427284,1.1787861 Z"
     id="path1014" />
</svg>
