<svg xmlns="http://www.w3.org/2000/svg" width="100" height="100" viewBox="0 0 32 32"><path d="M12.689.185c-1.347.449-2.971 1.658-3.213 2.453-.138.38-.415.691-.656.691-.656 0-2.28 1.347-2.28 1.865 0 .242-.518 1.002-1.14 1.693-1.451 1.52-2.314 3.282-2.314 4.732s.933 3.385 1.762 3.627c.345.138.656.345.656.518 0 .691 1.554 1.727 2.591 1.727.794 0 1.416.345 2.349 1.313l1.278 1.313v3.213c0 3.109-.035 3.213-1.209 4.767-.829 1.071-1.209 1.934-1.209 2.729V32h13.472v-1.14c0-.76-.415-1.727-1.209-2.867-1.036-1.416-1.209-1.969-1.209-3.558 0-1.727.104-1.934 1.313-3.005.725-.622 1.589-1.727 1.934-2.487.484-1.071.794-1.382 1.52-1.382.553 0 1.14-.311 1.485-.794.345-.449.967-1.244 1.382-1.796 1.002-1.313 1.209-3.316.518-4.663-.311-.622-.725-1.105-.933-1.105-.242 0-.311-.38-.207-.933.138-.76-.069-1.174-1.244-2.245-.794-.691-1.865-1.382-2.384-1.485-.518-.138-.967-.415-.967-.656 0-.518-2.28-2.729-3.385-3.316-1.036-.518-5.492-.76-6.701-.38zm5.181 1.279c.587.138 1.693.794 2.487 1.52 1.278 1.174 1.382 1.382 1.036 2.245-.207.518-.311 1.002-.242 1.071s.691-.035 1.382-.242c1.382-.38 1.969-.207 1.969.553 0 .276.38.587.864.725 1.036.276 1.071.484.138 1.658-.656.829-.656.898-.069.898 2.142 0 2.902 2.625 1.313 4.352-.484.518-.864 1.14-.864 1.347 0 .553-.864.898-1.52.656-.553-.207-.933-1.796-.518-2.073.38-.207.415-2.902.035-2.902-.138 0-.449.311-.691.691-.449.76-1.485.898-2.522.345-.553-.311-.656-.242-.656.415 0 .449.242 1.174.553 1.589.484.725.484.76-.345.76-.518 0-.898.207-.898.449s-.207.76-.484 1.105c-.449.622-.518.622-1.036.069-.345-.311-.829-.587-1.105-.587-.656 0-.622-.449.242-1.485.553-.725.656-1.313.587-2.902l-.104-2.003-.518 1.036c-.449.864-1.347 1.589-2.591 2.004-.173.069-.415 1.036-.518 2.176-.207 2.003-.207 2.038-.656 1.002-.242-.553-.587-1.14-.794-1.244-.242-.173-.035-.829.587-1.9l1.002-1.693-1.174.967c-.864.725-1.416.967-2.176.829-.794-.104-1.071 0-1.209.518-.069.345-.311.622-.484.622-.207 0-.173.207.069.518.587.725.173 1.554-.794 1.554s-1.624-.587-1.624-1.451c0-.38-.242-.622-.691-.622-.829 0-1.382-.967-1.382-2.418 0-1.347.553-2.418 1.244-2.418.38 0 .449-.207.311-.691-.173-.518 0-.76.691-1.036.518-.207 1.071-.276 1.244-.138.415.242.38-.587-.035-1.244-.415-.691.207-1.382 1.244-1.382.553 0 .933-.276 1.14-.795.829-2.176 3.938-3.178 7.565-2.453zm-.967 11.503c0 .138-.311.691-.691 1.174-.518.656-.691 1.382-.691 2.971 0 2.211.276 2.556 1.071 1.451.656-.933 2.384-.622 2.211.345-.173.794.276.829 1.347.138 1.347-.898 2.384-4.525 1.416-4.871-.829-.345-.587-.725.449-.76.933-.035.933 0 .898 2.211-.035 2.522-1.002 4.318-2.902 5.423-1.002.622-1.036.725-1.036 3.109 0 2.28.104 2.625 1.209 4.18.656.933 1.209 1.831 1.209 2.003 0 .138-2.418.276-5.354.276s-5.354-.138-5.354-.311c0-.138.553-1.002 1.209-1.865 1.209-1.589 1.209-1.589 1.209-5.147v-3.593l-1.485-1.451c-1.278-1.244-1.52-1.693-1.451-2.764 0-.898.207-1.313.622-1.382.38-.069.587.104.587.518 0 .864 2.245 3.316 2.833 3.109.276-.104.415-.622.345-1.485-.138-1.9.138-2.729 1.036-3.178 1.002-.449 1.313-.484 1.313-.104z"/><path d="M16.67 12.648c-.504.075-.992.29-1.414.573-.652.466-.781 1.33-.78 2.076-.038.675.082 1.361-.038 2.023-.038.23-.268.456-.505.311-.67-.354-1.201-.939-1.682-1.519-.397-.516-.796-1.084-.857-1.742-.086-.398-.636-.42-.902-.187-.4.364-.37.967-.384 1.464-.014.526.076 1.078.43 1.49.758.926 1.658 1.724 2.489 2.585-.015 2.06.036 4.125-.042 6.182-.008.632-.238 1.24-.599 1.754-.573.848-1.256 1.63-1.726 2.542-.085.203.21.242.344.266 1.6.199 3.219.195 4.83.182 1.516-.027 3.037.014 4.55-.096.335-.051.7-.018 1.014-.147.096-.203-.116-.412-.191-.592-.525-.918-1.202-1.742-1.715-2.667-.538-.971-.416-2.123-.434-3.199.029-.655-.038-1.323.105-1.967.205-.598.864-.812 1.319-1.176 1.328-.87 2.157-2.363 2.379-3.917.153-1.007.122-2.035.067-3.049-.011-.338-.358-.521-.665-.488-.384.025-.822 0-1.147.236-.186.169-.025.43.167.507.242.121.546.257.554.577.128 1.06-.236 2.121-.711 3.06-.326.633-.793 1.224-1.456 1.523-.234.098-.52.295-.775.17-.163-.36.1-.853-.237-1.148-.284-.283-.697-.338-1.079-.304-.508-.005-.898.379-1.187.751-.158.135-.29.411-.531.372-.257-.309-.21-.761-.248-1.138-.01-1.01-.114-2.057.237-3.025.255-.723.91-1.247 1.106-1.996.01-.16-.12-.303-.286-.287z" style="fill:#773d09;fill-rule:evenodd;stroke:#726c65;stroke-width:0;fill-opacity:1"/><path d="M15.427 1.179c-1.523.012-3.129.392-4.29 1.43-.436.379-.724.888-.952 1.41-.164.347-.5.606-.893.609-.545.037-1.201.148-1.475.689-.212.396.07.8.23 1.155.088.251.201.56.09.813-.683-.128-1.426.009-1.99.427-.31.235-.243.665-.142.988.047.16.04.404-.178.414-.367.035-.721.213-.913.539-.505.782-.558 1.77-.449 2.67.088.65.339 1.377.978 1.673.302.16.739.013.95.348.162.33.066.738.288 1.051.405.688 1.37.957 2.088.636.462-.198.647-.8.4-1.232-.088-.233-.336-.426-.333-.683.353-.061.538-.42.614-.74.06-.255.277-.47.556-.431.494-.025 1.005.036 1.493-.013.844-.355 1.501-1.017 2.21-1.569-.498.89-1.102 1.735-1.445 2.702-.076.249-.127.579.128.746.491.509.658 1.226 1.032 1.807.143.128.235-.12.242-.233.219-1.146.179-2.347.59-3.45.138-.232.459-.223.668-.364a4.453 4.453 0 0 0 1.822-1.454c.232-.372.416-.77.63-1.152.029 1.152.203 2.32.033 3.459-.101.71-.614 1.247-.991 1.825-.125.223-.375.563-.136.796.266.173.621.102.887.29.41.192.697.557 1.067.802.264.101.433-.226.583-.386.3-.388.501-.844.601-1.322.211-.283.629-.279.952-.302.182-.014.53.043.556-.213-.106-.457-.483-.798-.638-1.24-.163-.446-.275-.952-.158-1.423.133-.117.33.047.47.086.654.341 1.499.54 2.166.123.47-.265.613-.87 1.09-1.119.142.008.125.235.162.339.079.705.097 1.426-.057 2.12-.063.306-.376.506-.35.84.014.546.162 1.135.552 1.537.347.284.873.244 1.262.066.272-.115.501-.35.527-.655.257-.863 1.08-1.39 1.429-2.21.442-.964.348-2.247-.463-2.992-.462-.439-1.116-.536-1.725-.579-.085.007-.173-.027-.106-.116.34-.632.964-1.11 1.153-1.821-.022-.327-.416-.433-.668-.532-.405-.133-.949-.301-1.023-.79.037-.397-.33-.712-.709-.73-.685-.055-1.34.232-2.006.349-.21.046-.423.085-.639.097.021-.626.415-1.181.411-1.808-.077-.503-.546-.814-.863-1.17-.98-.943-2.148-1.85-3.545-1.999a12.745 12.745 0 0 0-1.773-.108Z" style="fill:#00bc00;fill-opacity:1;fill-rule:evenodd;stroke:#726c65;stroke-width:0"/></svg>